  0
SECTION
  2
HEADER
  9
$ACADVER
  1
AC1009
  9
$EXTMIN
 10
0.0
 20
0.0
 30
0.0
  9
$EXTMAX
 10
1000.0
 20
1000.0
 30
0.0
  9
$FILLMODE
 70
 0
  9
$SPLFRAME
 70
 1
  0
ENDSEC
  0
SECTION
  2
TABLES
  0
TABLE
  2
LAYER
 70
1
  0
LAYER
  2
0
 70
     0
 62
     7
  6
CONTINUOUS
  0
ENDTAB
  0
ENDSEC
  0
SECTION
  2
ENTITIES
  0
LINE
  8
0
 62
     0
 10
315.397
 20
111.383
 30
0.0
 11
315.867
 21
111.365
 31
0.0
  0
LINE
  8
0
 62
     0
 10
315.867
 20
111.365
 30
0.0
 11
316.334
 21
111.31
 31
0.0
  0
LINE
  8
0
 62
     0
 10
316.334
 20
111.31
 30
0.0
 11
316.796
 21
111.217
 31
0.0
  0
LINE
  8
0
 62
     0
 10
316.796
 20
111.217
 30
0.0
 11
317.251
 21
111.089
 31
0.0
  0
LINE
  8
0
 62
     0
 10
317.251
 20
111.089
 30
0.0
 11
317.693
 21
110.927
 31
0.0
  0
LINE
  8
0
 62
     0
 10
317.693
 20
110.927
 30
0.0
 11
318.12
 21
110.73
 31
0.0
  0
LINE
  8
0
 62
     0
 10
318.12
 20
110.73
 30
0.0
 11
318.531
 21
110.498
 31
0.0
  0
LINE
  8
0
 62
     0
 10
318.531
 20
110.498
 30
0.0
 11
318.922
 21
110.237
 31
0.0
  0
LINE
  8
0
 62
     0
 10
318.922
 20
110.237
 30
0.0
 11
319.293
 21
109.945
 31
0.0
  0
LINE
  8
0
 62
     0
 10
319.293
 20
109.945
 30
0.0
 11
319.639
 21
109.626
 31
0.0
  0
LINE
  8
0
 62
     0
 10
319.639
 20
109.626
 30
0.0
 11
319.959
 21
109.28
 31
0.0
  0
LINE
  8
0
 62
     0
 10
319.959
 20
109.28
 30
0.0
 11
320.251
 21
108.909
 31
0.0
  0
LINE
  8
0
 62
     0
 10
320.251
 20
108.909
 30
0.0
 11
320.511
 21
108.518
 31
0.0
  0
LINE
  8
0
 62
     0
 10
320.511
 20
108.518
 30
0.0
 11
320.742
 21
108.106
 31
0.0
  0
LINE
  8
0
 62
     0
 10
320.742
 20
108.106
 30
0.0
 11
320.94
 21
107.68
 31
0.0
  0
LINE
  8
0
 62
     0
 10
320.94
 20
107.68
 30
0.0
 11
321.102
 21
107.237
 31
0.0
  0
LINE
  8
0
 62
     0
 10
321.102
 20
107.237
 30
0.0
 11
321.23
 21
106.783
 31
0.0
  0
LINE
  8
0
 62
     0
 10
321.23
 20
106.783
 30
0.0
 11
321.323
 21
106.321
 31
0.0
  0
LINE
  8
0
 62
     0
 10
321.323
 20
106.321
 30
0.0
 11
321.378
 21
105.853
 31
0.0
  0
LINE
  8
0
 62
     0
 10
321.378
 20
105.853
 30
0.0
 11
321.397
 21
105.383
 31
0.0
  0
LINE
  8
0
 62
     0
 10
321.397
 20
105.383
 30
0.0
 11
321.397
 21
6.13227
 31
0.0
  0
LINE
  8
0
 62
     0
 10
321.397
 20
6.13227
 30
0.0
 11
321.378
 21
5.66099
 31
0.0
  0
LINE
  8
0
 62
     0
 10
321.378
 20
5.66099
 30
0.0
 11
321.323
 21
5.19384
 31
0.0
  0
LINE
  8
0
 62
     0
 10
321.323
 20
5.19384
 30
0.0
 11
321.23
 21
4.73082
 31
0.0
  0
LINE
  8
0
 62
     0
 10
321.23
 20
4.73082
 30
0.0
 11
321.102
 21
4.27743
 31
0.0
  0
LINE
  8
0
 62
     0
 10
321.102
 20
4.27743
 30
0.0
 11
320.94
 21
3.83508
 31
0.0
  0
LINE
  8
0
 62
     0
 10
320.94
 20
3.83508
 30
0.0
 11
320.742
 21
3.40789
 31
0.0
  0
LINE
  8
0
 62
     0
 10
320.742
 20
3.40789
 30
0.0
 11
320.511
 21
2.99723
 31
0.0
  0
LINE
  8
0
 62
     0
 10
320.511
 20
2.99723
 30
0.0
 11
320.251
 21
2.60587
 31
0.0
  0
LINE
  8
0
 62
     0
 10
320.251
 20
2.60587
 30
0.0
 11
319.959
 21
2.23518
 31
0.0
  0
LINE
  8
0
 62
     0
 10
319.959
 20
2.23518
 30
0.0
 11
319.639
 21
1.88929
 31
0.0
  0
LINE
  8
0
 62
     0
 10
319.639
 20
1.88929
 30
0.0
 11
319.293
 21
1.56959
 31
0.0
  0
LINE
  8
0
 62
     0
 10
319.293
 20
1.56959
 30
0.0
 11
318.922
 21
1.27744
 31
0.0
  0
LINE
  8
0
 62
     0
 10
318.922
 20
1.27744
 30
0.0
 11
318.531
 21
1.01562
 31
0.0
  0
LINE
  8
0
 62
     0
 10
318.531
 20
1.01562
 30
0.0
 11
318.12
 21
0.785481
 31
0.0
  0
LINE
  8
0
 62
     0
 10
318.12
 20
0.785481
 30
0.0
 11
317.693
 21
0.588423
 31
0.0
  0
LINE
  8
0
 62
     0
 10
317.693
 20
0.588423
 30
0.0
 11
317.251
 21
0.425813
 31
0.0
  0
LINE
  8
0
 62
     0
 10
317.251
 20
0.425813
 30
0.0
 11
316.796
 21
0.297656
 31
0.0
  0
LINE
  8
0
 62
     0
 10
316.796
 20
0.297656
 30
0.0
 11
316.334
 21
0.205328
 31
0.0
  0
LINE
  8
0
 62
     0
 10
316.334
 20
0.205328
 30
0.0
 11
315.867
 21
0.150206
 31
0.0
  0
LINE
  8
0
 62
     0
 10
315.867
 20
0.150206
 30
0.0
 11
315.397
 21
0.130914
 31
0.0
  0
LINE
  8
0
 62
     0
 10
315.397
 20
0.130914
 30
0.0
 11
6.09505
 21
0.132292
 31
0.0
  0
LINE
  8
0
 62
     0
 10
6.09505
 20
0.132292
 30
0.0
 11
5.62515
 21
0.150206
 31
0.0
  0
LINE
  8
0
 62
     0
 10
5.62515
 20
0.150206
 30
0.0
 11
5.15662
 21
0.205328
 31
0.0
  0
LINE
  8
0
 62
     0
 10
5.15662
 20
0.205328
 30
0.0
 11
4.69498
 21
0.297656
 31
0.0
  0
LINE
  8
0
 62
     0
 10
4.69498
 20
0.297656
 30
0.0
 11
4.24021
 21
0.425813
 31
0.0
  0
LINE
  8
0
 62
     0
 10
4.24021
 20
0.425813
 30
0.0
 11
3.79786
 21
0.588423
 31
0.0
  0
LINE
  8
0
 62
     0
 10
3.79786
 20
0.588423
 30
0.0
 11
3.37206
 21
0.785481
 31
0.0
  0
LINE
  8
0
 62
     0
 10
3.37206
 20
0.785481
 30
0.0
 11
2.96003
 21
1.01562
 31
0.0
  0
LINE
  8
0
 62
     0
 10
2.96003
 20
1.01562
 30
0.0
 11
2.56866
 21
1.27744
 31
0.0
  0
LINE
  8
0
 62
     0
 10
2.56866
 20
1.27744
 30
0.0
 11
2.19797
 21
1.56959
 31
0.0
  0
LINE
  8
0
 62
     0
 10
2.19797
 20
1.56959
 30
0.0
 11
1.85208
 21
1.88929
 31
0.0
  0
LINE
  8
0
 62
     0
 10
1.85208
 20
1.88929
 30
0.0
 11
1.53238
 21
2.23518
 31
0.0
  0
LINE
  8
0
 62
     0
 10
1.53238
 20
2.23518
 30
0.0
 11
1.24024
 21
2.60587
 31
0.0
  0
LINE
  8
0
 62
     0
 10
1.24024
 20
2.60587
 30
0.0
 11
0.979784
 21
2.99723
 31
0.0
  0
LINE
  8
0
 62
     0
 10
0.979784
 20
2.99723
 30
0.0
 11
0.748273
 21
3.40789
 31
0.0
  0
LINE
  8
0
 62
     0
 10
0.748273
 20
3.40789
 30
0.0
 11
0.551215
 21
3.83508
 31
0.0
  0
LINE
  8
0
 62
     0
 10
0.551215
 20
3.83508
 30
0.0
 11
0.388606
 21
4.27743
 31
0.0
  0
LINE
  8
0
 62
     0
 10
0.388606
 20
4.27743
 30
0.0
 11
0.260449
 21
4.73082
 31
0.0
  0
LINE
  8
0
 62
     0
 10
0.260449
 20
4.73082
 30
0.0
 11
0.168121
 21
5.19384
 31
0.0
  0
LINE
  8
0
 62
     0
 10
0.168121
 20
5.19384
 30
0.0
 11
0.112999
 21
5.66099
 31
0.0
  0
LINE
  8
0
 62
     0
 10
0.112999
 20
5.66099
 30
0.0
 11
0.0950846
 21
6.13227
 31
0.0
  0
LINE
  8
0
 62
     0
 10
0.0950846
 20
6.13227
 30
0.0
 11
0.0950846
 21
105.383
 31
0.0
  0
LINE
  8
0
 62
     0
 10
0.0950846
 20
105.383
 30
0.0
 11
0.112999
 21
105.853
 31
0.0
  0
LINE
  8
0
 62
     0
 10
0.112999
 20
105.853
 30
0.0
 11
0.168121
 21
106.321
 31
0.0
  0
LINE
  8
0
 62
     0
 10
0.168121
 20
106.321
 30
0.0
 11
0.260449
 21
106.783
 31
0.0
  0
LINE
  8
0
 62
     0
 10
0.260449
 20
106.783
 30
0.0
 11
0.388606
 21
107.237
 31
0.0
  0
LINE
  8
0
 62
     0
 10
0.388606
 20
107.237
 30
0.0
 11
0.551215
 21
107.68
 31
0.0
  0
LINE
  8
0
 62
     0
 10
0.551215
 20
107.68
 30
0.0
 11
0.748273
 21
108.106
 31
0.0
  0
LINE
  8
0
 62
     0
 10
0.748273
 20
108.106
 30
0.0
 11
0.979784
 21
108.518
 31
0.0
  0
LINE
  8
0
 62
     0
 10
0.979784
 20
108.518
 30
0.0
 11
1.24024
 21
108.909
 31
0.0
  0
LINE
  8
0
 62
     0
 10
1.24024
 20
108.909
 30
0.0
 11
1.53238
 21
109.28
 31
0.0
  0
LINE
  8
0
 62
     0
 10
1.53238
 20
109.28
 30
0.0
 11
1.85208
 21
109.626
 31
0.0
  0
LINE
  8
0
 62
     0
 10
1.85208
 20
109.626
 30
0.0
 11
2.19797
 21
109.945
 31
0.0
  0
LINE
  8
0
 62
     0
 10
2.19797
 20
109.945
 30
0.0
 11
2.56866
 21
110.237
 31
0.0
  0
LINE
  8
0
 62
     0
 10
2.56866
 20
110.237
 30
0.0
 11
2.96003
 21
110.498
 31
0.0
  0
LINE
  8
0
 62
     0
 10
2.96003
 20
110.498
 30
0.0
 11
3.37206
 21
110.73
 31
0.0
  0
LINE
  8
0
 62
     0
 10
3.37206
 20
110.73
 30
0.0
 11
3.79786
 21
110.927
 31
0.0
  0
LINE
  8
0
 62
     0
 10
3.79786
 20
110.927
 30
0.0
 11
4.24021
 21
111.089
 31
0.0
  0
LINE
  8
0
 62
     0
 10
4.24021
 20
111.089
 30
0.0
 11
4.69498
 21
111.217
 31
0.0
  0
LINE
  8
0
 62
     0
 10
4.69498
 20
111.217
 30
0.0
 11
5.15662
 21
111.31
 31
0.0
  0
LINE
  8
0
 62
     0
 10
5.15662
 20
111.31
 30
0.0
 11
5.62515
 21
111.365
 31
0.0
  0
LINE
  8
0
 62
     0
 10
5.62515
 20
111.365
 30
0.0
 11
6.09505
 21
111.383
 31
0.0
  0
LINE
  8
0
 62
     0
 10
6.09505
 20
111.383
 30
0.0
 11
315.397
 21
111.383
 31
0.0
  0
LINE
  8
0
 62
     0
 10
3.27008
 20
4.63021
 30
0.0
 11
2.97794
 21
4.48137
 31
0.0
  0
LINE
  8
0
 62
     0
 10
2.97794
 20
4.48137
 30
0.0
 11
2.74505
 21
4.24988
 31
0.0
  0
LINE
  8
0
 62
     0
 10
2.74505
 20
4.24988
 30
0.0
 11
2.59623
 21
3.95633
 31
0.0
  0
LINE
  8
0
 62
     0
 10
2.59623
 20
3.95633
 30
0.0
 11
2.54386
 21
3.63114
 31
0.0
  0
LINE
  8
0
 62
     0
 10
2.54386
 20
3.63114
 30
0.0
 11
2.59623
 21
3.30729
 31
0.0
  0
LINE
  8
0
 62
     0
 10
2.59623
 20
3.30729
 30
0.0
 11
2.74505
 21
3.01377
 31
0.0
  0
LINE
  8
0
 62
     0
 10
2.74505
 20
3.01377
 30
0.0
 11
2.97794
 21
2.78226
 31
0.0
  0
LINE
  8
0
 62
     0
 10
2.97794
 20
2.78226
 30
0.0
 11
3.27008
 21
2.63343
 31
0.0
  0
LINE
  8
0
 62
     0
 10
3.27008
 20
2.63343
 30
0.0
 11
3.59392
 21
2.58107
 31
0.0
  0
LINE
  8
0
 62
     0
 10
3.59392
 20
2.58107
 30
0.0
 11
3.91915
 21
2.63343
 31
0.0
  0
LINE
  8
0
 62
     0
 10
3.91915
 20
2.63343
 30
0.0
 11
4.21266
 21
2.78226
 31
0.0
  0
LINE
  8
0
 62
     0
 10
4.21266
 20
2.78226
 30
0.0
 11
4.44419
 21
3.01377
 31
0.0
  0
LINE
  8
0
 62
     0
 10
4.44419
 20
3.01377
 30
0.0
 11
4.59299
 21
3.30729
 31
0.0
  0
LINE
  8
0
 62
     0
 10
4.59299
 20
3.30729
 30
0.0
 11
4.644
 21
3.63114
 31
0.0
  0
LINE
  8
0
 62
     0
 10
4.644
 20
3.63114
 30
0.0
 11
4.59299
 21
3.95633
 31
0.0
  0
LINE
  8
0
 62
     0
 10
4.59299
 20
3.95633
 30
0.0
 11
4.44419
 21
4.24988
 31
0.0
  0
LINE
  8
0
 62
     0
 10
4.44419
 20
4.24988
 30
0.0
 11
4.21266
 21
4.48137
 31
0.0
  0
LINE
  8
0
 62
     0
 10
4.21266
 20
4.48137
 30
0.0
 11
3.91915
 21
4.63021
 31
0.0
  0
LINE
  8
0
 62
     0
 10
3.91915
 20
4.63021
 30
0.0
 11
3.59392
 21
4.68118
 31
0.0
  0
LINE
  8
0
 62
     0
 10
3.59392
 20
4.68118
 30
0.0
 11
3.27008
 21
4.63021
 31
0.0
  0
LINE
  8
0
 62
     0
 10
108.037
 20
4.63021
 30
0.0
 11
107.745
 21
4.48137
 31
0.0
  0
LINE
  8
0
 62
     0
 10
107.745
 20
4.48137
 30
0.0
 11
107.513
 21
4.24988
 31
0.0
  0
LINE
  8
0
 62
     0
 10
107.513
 20
4.24988
 30
0.0
 11
107.363
 21
3.95633
 31
0.0
  0
LINE
  8
0
 62
     0
 10
107.363
 20
3.95633
 30
0.0
 11
107.312
 21
3.63114
 31
0.0
  0
LINE
  8
0
 62
     0
 10
107.312
 20
3.63114
 30
0.0
 11
107.363
 21
3.30729
 31
0.0
  0
LINE
  8
0
 62
     0
 10
107.363
 20
3.30729
 30
0.0
 11
107.513
 21
3.01377
 31
0.0
  0
LINE
  8
0
 62
     0
 10
107.513
 20
3.01377
 30
0.0
 11
107.745
 21
2.78226
 31
0.0
  0
LINE
  8
0
 62
     0
 10
107.745
 20
2.78226
 30
0.0
 11
108.037
 21
2.63343
 31
0.0
  0
LINE
  8
0
 62
     0
 10
108.037
 20
2.63343
 30
0.0
 11
108.362
 21
2.58107
 31
0.0
  0
LINE
  8
0
 62
     0
 10
108.362
 20
2.58107
 30
0.0
 11
108.686
 21
2.63343
 31
0.0
  0
LINE
  8
0
 62
     0
 10
108.686
 20
2.63343
 30
0.0
 11
108.979
 21
2.78226
 31
0.0
  0
LINE
  8
0
 62
     0
 10
108.979
 20
2.78226
 30
0.0
 11
109.211
 21
3.01377
 31
0.0
  0
LINE
  8
0
 62
     0
 10
109.211
 20
3.01377
 30
0.0
 11
109.361
 21
3.30729
 31
0.0
  0
LINE
  8
0
 62
     0
 10
109.361
 20
3.30729
 30
0.0
 11
109.412
 21
3.63114
 31
0.0
  0
LINE
  8
0
 62
     0
 10
109.412
 20
3.63114
 30
0.0
 11
109.361
 21
3.95633
 31
0.0
  0
LINE
  8
0
 62
     0
 10
109.361
 20
3.95633
 30
0.0
 11
109.211
 21
4.24988
 31
0.0
  0
LINE
  8
0
 62
     0
 10
109.211
 20
4.24988
 30
0.0
 11
108.979
 21
4.48137
 31
0.0
  0
LINE
  8
0
 62
     0
 10
108.979
 20
4.48137
 30
0.0
 11
108.686
 21
4.63021
 31
0.0
  0
LINE
  8
0
 62
     0
 10
108.686
 20
4.63021
 30
0.0
 11
108.362
 21
4.68118
 31
0.0
  0
LINE
  8
0
 62
     0
 10
108.362
 20
4.68118
 30
0.0
 11
108.037
 21
4.63021
 31
0.0
  0
LINE
  8
0
 62
     0
 10
212.805
 20
4.63021
 30
0.0
 11
212.512
 21
4.48137
 31
0.0
  0
LINE
  8
0
 62
     0
 10
212.512
 20
4.48137
 30
0.0
 11
212.28
 21
4.24988
 31
0.0
  0
LINE
  8
0
 62
     0
 10
212.28
 20
4.24988
 30
0.0
 11
212.131
 21
3.95633
 31
0.0
  0
LINE
  8
0
 62
     0
 10
212.131
 20
3.95633
 30
0.0
 11
212.08
 21
3.63114
 31
0.0
  0
LINE
  8
0
 62
     0
 10
212.08
 20
3.63114
 30
0.0
 11
212.131
 21
3.30729
 31
0.0
  0
LINE
  8
0
 62
     0
 10
212.131
 20
3.30729
 30
0.0
 11
212.28
 21
3.01377
 31
0.0
  0
LINE
  8
0
 62
     0
 10
212.28
 20
3.01377
 30
0.0
 11
212.512
 21
2.78226
 31
0.0
  0
LINE
  8
0
 62
     0
 10
212.512
 20
2.78226
 30
0.0
 11
212.805
 21
2.63343
 31
0.0
  0
LINE
  8
0
 62
     0
 10
212.805
 20
2.63343
 30
0.0
 11
213.13
 21
2.58107
 31
0.0
  0
LINE
  8
0
 62
     0
 10
213.13
 20
2.58107
 30
0.0
 11
213.454
 21
2.63343
 31
0.0
  0
LINE
  8
0
 62
     0
 10
213.454
 20
2.63343
 30
0.0
 11
213.746
 21
2.78226
 31
0.0
  0
LINE
  8
0
 62
     0
 10
213.746
 20
2.78226
 30
0.0
 11
213.979
 21
3.01377
 31
0.0
  0
LINE
  8
0
 62
     0
 10
213.979
 20
3.01377
 30
0.0
 11
214.128
 21
3.30729
 31
0.0
  0
LINE
  8
0
 62
     0
 10
214.128
 20
3.30729
 30
0.0
 11
214.179
 21
3.63114
 31
0.0
  0
LINE
  8
0
 62
     0
 10
214.179
 20
3.63114
 30
0.0
 11
214.128
 21
3.95633
 31
0.0
  0
LINE
  8
0
 62
     0
 10
214.128
 20
3.95633
 30
0.0
 11
213.979
 21
4.24988
 31
0.0
  0
LINE
  8
0
 62
     0
 10
213.979
 20
4.24988
 30
0.0
 11
213.746
 21
4.48137
 31
0.0
  0
LINE
  8
0
 62
     0
 10
213.746
 20
4.48137
 30
0.0
 11
213.454
 21
4.63021
 31
0.0
  0
LINE
  8
0
 62
     0
 10
213.454
 20
4.63021
 30
0.0
 11
213.13
 21
4.68118
 31
0.0
  0
LINE
  8
0
 62
     0
 10
213.13
 20
4.68118
 30
0.0
 11
212.805
 21
4.63021
 31
0.0
  0
LINE
  8
0
 62
     0
 10
317.572
 20
4.63021
 30
0.0
 11
317.278
 21
4.48137
 31
0.0
  0
LINE
  8
0
 62
     0
 10
317.278
 20
4.48137
 30
0.0
 11
317.047
 21
4.24988
 31
0.0
  0
LINE
  8
0
 62
     0
 10
317.047
 20
4.24988
 30
0.0
 11
316.898
 21
3.95633
 31
0.0
  0
LINE
  8
0
 62
     0
 10
316.898
 20
3.95633
 30
0.0
 11
316.847
 21
3.63114
 31
0.0
  0
LINE
  8
0
 62
     0
 10
316.847
 20
3.63114
 30
0.0
 11
316.898
 21
3.30729
 31
0.0
  0
LINE
  8
0
 62
     0
 10
316.898
 20
3.30729
 30
0.0
 11
317.047
 21
3.01377
 31
0.0
  0
LINE
  8
0
 62
     0
 10
317.047
 20
3.01377
 30
0.0
 11
317.278
 21
2.78226
 31
0.0
  0
LINE
  8
0
 62
     0
 10
317.278
 20
2.78226
 30
0.0
 11
317.572
 21
2.63343
 31
0.0
  0
LINE
  8
0
 62
     0
 10
317.572
 20
2.63343
 30
0.0
 11
317.897
 21
2.58107
 31
0.0
  0
LINE
  8
0
 62
     0
 10
317.897
 20
2.58107
 30
0.0
 11
318.221
 21
2.63343
 31
0.0
  0
LINE
  8
0
 62
     0
 10
318.221
 20
2.63343
 30
0.0
 11
318.513
 21
2.78226
 31
0.0
  0
LINE
  8
0
 62
     0
 10
318.513
 20
2.78226
 30
0.0
 11
318.746
 21
3.01377
 31
0.0
  0
LINE
  8
0
 62
     0
 10
318.746
 20
3.01377
 30
0.0
 11
318.895
 21
3.30729
 31
0.0
  0
LINE
  8
0
 62
     0
 10
318.895
 20
3.30729
 30
0.0
 11
318.947
 21
3.63114
 31
0.0
  0
LINE
  8
0
 62
     0
 10
318.947
 20
3.63114
 30
0.0
 11
318.895
 21
3.95633
 31
0.0
  0
LINE
  8
0
 62
     0
 10
318.895
 20
3.95633
 30
0.0
 11
318.746
 21
4.24988
 31
0.0
  0
LINE
  8
0
 62
     0
 10
318.746
 20
4.24988
 30
0.0
 11
318.513
 21
4.48137
 31
0.0
  0
LINE
  8
0
 62
     0
 10
318.513
 20
4.48137
 30
0.0
 11
318.221
 21
4.63021
 31
0.0
  0
LINE
  8
0
 62
     0
 10
318.221
 20
4.63021
 30
0.0
 11
317.897
 21
4.68118
 31
0.0
  0
LINE
  8
0
 62
     0
 10
317.897
 20
4.68118
 30
0.0
 11
317.572
 21
4.63021
 31
0.0
  0
LINE
  8
0
 62
     0
 10
132.314
 20
24.6572
 30
0.0
 11
132.314
 21
23.6568
 31
0.0
  0
LINE
  8
0
 62
     0
 10
132.314
 20
23.6568
 30
0.0
 11
131.513
 21
23.6568
 31
0.0
  0
LINE
  8
0
 62
     0
 10
131.513
 20
23.6568
 30
0.0
 11
131.513
 21
20.5589
 31
0.0
  0
LINE
  8
0
 62
     0
 10
131.513
 20
20.5589
 30
0.0
 11
132.314
 21
20.5589
 31
0.0
  0
LINE
  8
0
 62
     0
 10
132.314
 20
20.5589
 30
0.0
 11
132.314
 21
19.9567
 31
0.0
  0
LINE
  8
0
 62
     0
 10
132.314
 20
19.9567
 30
0.0
 11
92.6881
 21
19.9567
 31
0.0
  0
LINE
  8
0
 62
     0
 10
92.6881
 20
19.9567
 30
0.0
 11
92.6881
 21
23.1869
 31
0.0
  0
LINE
  8
0
 62
     0
 10
92.6881
 20
23.1869
 30
0.0
 11
90.963
 21
23.1869
 31
0.0
  0
LINE
  8
0
 62
     0
 10
90.963
 20
23.1869
 30
0.0
 11
90.963
 21
24.1088
 31
0.0
  0
LINE
  8
0
 62
     0
 10
90.963
 20
24.1088
 30
0.0
 11
87.6639
 21
24.1088
 31
0.0
  0
LINE
  8
0
 62
     0
 10
87.6639
 20
24.1088
 30
0.0
 11
87.6639
 21
23.1869
 31
0.0
  0
LINE
  8
0
 62
     0
 10
87.6639
 20
23.1869
 30
0.0
 11
85.9384
 21
23.1869
 31
0.0
  0
LINE
  8
0
 62
     0
 10
85.9384
 20
23.1869
 30
0.0
 11
85.9384
 21
19.9567
 31
0.0
  0
LINE
  8
0
 62
     0
 10
85.9384
 20
19.9567
 30
0.0
 11
85.1133
 21
19.9567
 31
0.0
  0
LINE
  8
0
 62
     0
 10
85.1133
 20
19.9567
 30
0.0
 11
85.1133
 21
17.1579
 31
0.0
  0
LINE
  8
0
 62
     0
 10
85.1133
 20
17.1579
 30
0.0
 11
85.9384
 21
17.1579
 31
0.0
  0
LINE
  8
0
 62
     0
 10
85.9384
 20
17.1579
 30
0.0
 11
85.9384
 21
10.8879
 31
0.0
  0
LINE
  8
0
 62
     0
 10
85.9384
 20
10.8879
 30
0.0
 11
87.6639
 21
10.8879
 31
0.0
  0
LINE
  8
0
 62
     0
 10
87.6639
 20
10.8879
 30
0.0
 11
87.6639
 21
9.90671
 31
0.0
  0
LINE
  8
0
 62
     0
 10
87.6639
 20
9.90671
 30
0.0
 11
90.963
 21
9.90671
 31
0.0
  0
LINE
  8
0
 62
     0
 10
90.963
 20
9.90671
 30
0.0
 11
90.963
 21
10.8879
 31
0.0
  0
LINE
  8
0
 62
     0
 10
90.963
 20
10.8879
 30
0.0
 11
92.6881
 21
10.8879
 31
0.0
  0
LINE
  8
0
 62
     0
 10
92.6881
 20
10.8879
 30
0.0
 11
92.6881
 21
15.3583
 31
0.0
  0
LINE
  8
0
 62
     0
 10
92.6881
 20
15.3583
 30
0.0
 11
132.314
 21
15.3583
 31
0.0
  0
LINE
  8
0
 62
     0
 10
132.314
 20
15.3583
 30
0.0
 11
132.314
 21
14.7574
 31
0.0
  0
LINE
  8
0
 62
     0
 10
132.314
 20
14.7574
 30
0.0
 11
131.513
 21
14.7574
 31
0.0
  0
LINE
  8
0
 62
     0
 10
131.513
 20
14.7574
 30
0.0
 11
131.513
 21
11.6568
 31
0.0
  0
LINE
  8
0
 62
     0
 10
131.513
 20
11.6568
 30
0.0
 11
132.314
 21
11.6568
 31
0.0
  0
LINE
  8
0
 62
     0
 10
132.314
 20
11.6568
 30
0.0
 11
132.314
 21
10.6577
 31
0.0
  0
LINE
  8
0
 62
     0
 10
132.314
 20
10.6577
 30
0.0
 11
146.313
 21
10.6577
 31
0.0
  0
LINE
  8
0
 62
     0
 10
146.313
 20
10.6577
 30
0.0
 11
146.313
 21
11.6568
 31
0.0
  0
LINE
  8
0
 62
     0
 10
146.313
 20
11.6568
 30
0.0
 11
147.114
 21
11.6568
 31
0.0
  0
LINE
  8
0
 62
     0
 10
147.114
 20
11.6568
 30
0.0
 11
147.114
 21
14.7574
 31
0.0
  0
LINE
  8
0
 62
     0
 10
147.114
 20
14.7574
 30
0.0
 11
146.313
 21
14.7574
 31
0.0
  0
LINE
  8
0
 62
     0
 10
146.313
 20
14.7574
 30
0.0
 11
146.313
 21
15.3583
 31
0.0
  0
LINE
  8
0
 62
     0
 10
146.313
 20
15.3583
 30
0.0
 11
185.939
 21
15.3583
 31
0.0
  0
LINE
  8
0
 62
     0
 10
185.939
 20
15.3583
 30
0.0
 11
185.939
 21
10.8879
 31
0.0
  0
LINE
  8
0
 62
     0
 10
185.939
 20
10.8879
 30
0.0
 11
187.664
 21
10.8879
 31
0.0
  0
LINE
  8
0
 62
     0
 10
187.664
 20
10.8879
 30
0.0
 11
187.664
 21
9.90671
 31
0.0
  0
LINE
  8
0
 62
     0
 10
187.664
 20
9.90671
 30
0.0
 11
190.963
 21
9.90671
 31
0.0
  0
LINE
  8
0
 62
     0
 10
190.963
 20
9.90671
 30
0.0
 11
190.963
 21
10.8879
 31
0.0
  0
LINE
  8
0
 62
     0
 10
190.963
 20
10.8879
 30
0.0
 11
192.688
 21
10.8879
 31
0.0
  0
LINE
  8
0
 62
     0
 10
192.688
 20
10.8879
 30
0.0
 11
192.688
 21
17.1579
 31
0.0
  0
LINE
  8
0
 62
     0
 10
192.688
 20
17.1579
 30
0.0
 11
193.514
 21
17.1579
 31
0.0
  0
LINE
  8
0
 62
     0
 10
193.514
 20
17.1579
 30
0.0
 11
193.514
 21
19.9567
 31
0.0
  0
LINE
  8
0
 62
     0
 10
193.514
 20
19.9567
 30
0.0
 11
192.688
 21
19.9567
 31
0.0
  0
LINE
  8
0
 62
     0
 10
192.688
 20
19.9567
 30
0.0
 11
192.688
 21
23.1869
 31
0.0
  0
LINE
  8
0
 62
     0
 10
192.688
 20
23.1869
 30
0.0
 11
190.963
 21
23.1869
 31
0.0
  0
LINE
  8
0
 62
     0
 10
190.963
 20
23.1869
 30
0.0
 11
190.963
 21
24.1088
 31
0.0
  0
LINE
  8
0
 62
     0
 10
190.963
 20
24.1088
 30
0.0
 11
187.664
 21
24.1088
 31
0.0
  0
LINE
  8
0
 62
     0
 10
187.664
 20
24.1088
 30
0.0
 11
187.664
 21
23.1869
 31
0.0
  0
LINE
  8
0
 62
     0
 10
187.664
 20
23.1869
 30
0.0
 11
185.939
 21
23.1869
 31
0.0
  0
LINE
  8
0
 62
     0
 10
185.939
 20
23.1869
 30
0.0
 11
185.939
 21
19.9567
 31
0.0
  0
LINE
  8
0
 62
     0
 10
185.939
 20
19.9567
 30
0.0
 11
146.313
 21
19.9567
 31
0.0
  0
LINE
  8
0
 62
     0
 10
146.313
 20
19.9567
 30
0.0
 11
146.313
 21
20.5589
 31
0.0
  0
LINE
  8
0
 62
     0
 10
146.313
 20
20.5589
 30
0.0
 11
147.114
 21
20.5589
 31
0.0
  0
LINE
  8
0
 62
     0
 10
147.114
 20
20.5589
 30
0.0
 11
147.114
 21
23.6568
 31
0.0
  0
LINE
  8
0
 62
     0
 10
147.114
 20
23.6568
 30
0.0
 11
146.313
 21
23.6568
 31
0.0
  0
LINE
  8
0
 62
     0
 10
146.313
 20
23.6568
 30
0.0
 11
146.313
 21
24.6572
 31
0.0
  0
LINE
  8
0
 62
     0
 10
146.313
 20
24.6572
 30
0.0
 11
132.314
 21
24.6572
 31
0.0
  0
LINE
  8
0
 62
     0
 10
296.62
 20
24.6572
 30
0.0
 11
296.62
 21
23.6568
 31
0.0
  0
LINE
  8
0
 62
     0
 10
296.62
 20
23.6568
 30
0.0
 11
295.821
 21
23.6568
 31
0.0
  0
LINE
  8
0
 62
     0
 10
295.821
 20
23.6568
 30
0.0
 11
295.821
 21
20.5589
 31
0.0
  0
LINE
  8
0
 62
     0
 10
295.821
 20
20.5589
 30
0.0
 11
296.62
 21
20.5589
 31
0.0
  0
LINE
  8
0
 62
     0
 10
296.62
 20
20.5589
 30
0.0
 11
296.62
 21
14.7574
 31
0.0
  0
LINE
  8
0
 62
     0
 10
296.62
 20
14.7574
 30
0.0
 11
295.821
 21
14.7574
 31
0.0
  0
LINE
  8
0
 62
     0
 10
295.821
 20
14.7574
 30
0.0
 11
295.821
 21
11.6568
 31
0.0
  0
LINE
  8
0
 62
     0
 10
295.821
 20
11.6568
 30
0.0
 11
296.62
 21
11.6568
 31
0.0
  0
LINE
  8
0
 62
     0
 10
296.62
 20
11.6568
 30
0.0
 11
296.62
 21
10.6577
 31
0.0
  0
LINE
  8
0
 62
     0
 10
296.62
 20
10.6577
 30
0.0
 11
310.621
 21
10.6577
 31
0.0
  0
LINE
  8
0
 62
     0
 10
310.621
 20
10.6577
 30
0.0
 11
310.621
 21
11.6568
 31
0.0
  0
LINE
  8
0
 62
     0
 10
310.621
 20
11.6568
 30
0.0
 11
311.42
 21
11.6568
 31
0.0
  0
LINE
  8
0
 62
     0
 10
311.42
 20
11.6568
 30
0.0
 11
311.42
 21
14.7574
 31
0.0
  0
LINE
  8
0
 62
     0
 10
311.42
 20
14.7574
 30
0.0
 11
310.621
 21
14.7574
 31
0.0
  0
LINE
  8
0
 62
     0
 10
310.621
 20
14.7574
 30
0.0
 11
310.621
 21
20.5589
 31
0.0
  0
LINE
  8
0
 62
     0
 10
310.621
 20
20.5589
 30
0.0
 11
311.42
 21
20.5589
 31
0.0
  0
LINE
  8
0
 62
     0
 10
311.42
 20
20.5589
 30
0.0
 11
311.42
 21
23.6568
 31
0.0
  0
LINE
  8
0
 62
     0
 10
311.42
 20
23.6568
 30
0.0
 11
310.621
 21
23.6568
 31
0.0
  0
LINE
  8
0
 62
     0
 10
310.621
 20
23.6568
 30
0.0
 11
310.621
 21
24.6572
 31
0.0
  0
LINE
  8
0
 62
     0
 10
310.621
 20
24.6572
 30
0.0
 11
296.62
 21
24.6572
 31
0.0
  0
LINE
  8
0
 62
     0
 10
277.57
 20
24.6572
 30
0.0
 11
277.57
 21
23.6568
 31
0.0
  0
LINE
  8
0
 62
     0
 10
277.57
 20
23.6568
 30
0.0
 11
276.771
 21
23.6568
 31
0.0
  0
LINE
  8
0
 62
     0
 10
276.771
 20
23.6568
 30
0.0
 11
276.771
 21
20.5589
 31
0.0
  0
LINE
  8
0
 62
     0
 10
276.771
 20
20.5589
 30
0.0
 11
277.57
 21
20.5589
 31
0.0
  0
LINE
  8
0
 62
     0
 10
277.57
 20
20.5589
 30
0.0
 11
277.57
 21
14.7574
 31
0.0
  0
LINE
  8
0
 62
     0
 10
277.57
 20
14.7574
 30
0.0
 11
276.771
 21
14.7574
 31
0.0
  0
LINE
  8
0
 62
     0
 10
276.771
 20
14.7574
 30
0.0
 11
276.771
 21
11.6568
 31
0.0
  0
LINE
  8
0
 62
     0
 10
276.771
 20
11.6568
 30
0.0
 11
277.57
 21
11.6568
 31
0.0
  0
LINE
  8
0
 62
     0
 10
277.57
 20
11.6568
 30
0.0
 11
277.57
 21
10.6577
 31
0.0
  0
LINE
  8
0
 62
     0
 10
277.57
 20
10.6577
 30
0.0
 11
291.571
 21
10.6577
 31
0.0
  0
LINE
  8
0
 62
     0
 10
291.571
 20
10.6577
 30
0.0
 11
291.571
 21
11.6568
 31
0.0
  0
LINE
  8
0
 62
     0
 10
291.571
 20
11.6568
 30
0.0
 11
292.37
 21
11.6568
 31
0.0
  0
LINE
  8
0
 62
     0
 10
292.37
 20
11.6568
 30
0.0
 11
292.37
 21
14.7574
 31
0.0
  0
LINE
  8
0
 62
     0
 10
292.37
 20
14.7574
 30
0.0
 11
291.571
 21
14.7574
 31
0.0
  0
LINE
  8
0
 62
     0
 10
291.571
 20
14.7574
 30
0.0
 11
291.571
 21
20.5589
 31
0.0
  0
LINE
  8
0
 62
     0
 10
291.571
 20
20.5589
 30
0.0
 11
292.37
 21
20.5589
 31
0.0
  0
LINE
  8
0
 62
     0
 10
292.37
 20
20.5589
 30
0.0
 11
292.37
 21
23.6568
 31
0.0
  0
LINE
  8
0
 62
     0
 10
292.37
 20
23.6568
 30
0.0
 11
291.571
 21
23.6568
 31
0.0
  0
LINE
  8
0
 62
     0
 10
291.571
 20
23.6568
 30
0.0
 11
291.571
 21
24.6572
 31
0.0
  0
LINE
  8
0
 62
     0
 10
291.571
 20
24.6572
 30
0.0
 11
277.57
 21
24.6572
 31
0.0
  0
LINE
  8
0
 62
     0
 10
258.52
 20
24.6572
 30
0.0
 11
258.52
 21
23.6568
 31
0.0
  0
LINE
  8
0
 62
     0
 10
258.52
 20
23.6568
 30
0.0
 11
257.721
 21
23.6568
 31
0.0
  0
LINE
  8
0
 62
     0
 10
257.721
 20
23.6568
 30
0.0
 11
257.721
 21
20.5589
 31
0.0
  0
LINE
  8
0
 62
     0
 10
257.721
 20
20.5589
 30
0.0
 11
258.52
 21
20.5589
 31
0.0
  0
LINE
  8
0
 62
     0
 10
258.52
 20
20.5589
 30
0.0
 11
258.52
 21
14.7574
 31
0.0
  0
LINE
  8
0
 62
     0
 10
258.52
 20
14.7574
 30
0.0
 11
257.721
 21
14.7574
 31
0.0
  0
LINE
  8
0
 62
     0
 10
257.721
 20
14.7574
 30
0.0
 11
257.721
 21
11.6568
 31
0.0
  0
LINE
  8
0
 62
     0
 10
257.721
 20
11.6568
 30
0.0
 11
258.52
 21
11.6568
 31
0.0
  0
LINE
  8
0
 62
     0
 10
258.52
 20
11.6568
 30
0.0
 11
258.52
 21
10.6577
 31
0.0
  0
LINE
  8
0
 62
     0
 10
258.52
 20
10.6577
 30
0.0
 11
272.521
 21
10.6577
 31
0.0
  0
LINE
  8
0
 62
     0
 10
272.521
 20
10.6577
 30
0.0
 11
272.521
 21
11.6568
 31
0.0
  0
LINE
  8
0
 62
     0
 10
272.521
 20
11.6568
 30
0.0
 11
273.32
 21
11.6568
 31
0.0
  0
LINE
  8
0
 62
     0
 10
273.32
 20
11.6568
 30
0.0
 11
273.32
 21
14.7574
 31
0.0
  0
LINE
  8
0
 62
     0
 10
273.32
 20
14.7574
 30
0.0
 11
272.521
 21
14.7574
 31
0.0
  0
LINE
  8
0
 62
     0
 10
272.521
 20
14.7574
 30
0.0
 11
272.521
 21
20.5589
 31
0.0
  0
LINE
  8
0
 62
     0
 10
272.521
 20
20.5589
 30
0.0
 11
273.32
 21
20.5589
 31
0.0
  0
LINE
  8
0
 62
     0
 10
273.32
 20
20.5589
 30
0.0
 11
273.32
 21
23.6568
 31
0.0
  0
LINE
  8
0
 62
     0
 10
273.32
 20
23.6568
 30
0.0
 11
272.521
 21
23.6568
 31
0.0
  0
LINE
  8
0
 62
     0
 10
272.521
 20
23.6568
 30
0.0
 11
272.521
 21
24.6572
 31
0.0
  0
LINE
  8
0
 62
     0
 10
272.521
 20
24.6572
 30
0.0
 11
258.52
 21
24.6572
 31
0.0
  0
LINE
  8
0
 62
     0
 10
227.564
 20
24.6572
 30
0.0
 11
227.564
 21
23.6568
 31
0.0
  0
LINE
  8
0
 62
     0
 10
227.564
 20
23.6568
 30
0.0
 11
226.763
 21
23.6568
 31
0.0
  0
LINE
  8
0
 62
     0
 10
226.763
 20
23.6568
 30
0.0
 11
226.763
 21
20.5589
 31
0.0
  0
LINE
  8
0
 62
     0
 10
226.763
 20
20.5589
 30
0.0
 11
227.564
 21
20.5589
 31
0.0
  0
LINE
  8
0
 62
     0
 10
227.564
 20
20.5589
 30
0.0
 11
227.564
 21
14.7574
 31
0.0
  0
LINE
  8
0
 62
     0
 10
227.564
 20
14.7574
 30
0.0
 11
226.763
 21
14.7574
 31
0.0
  0
LINE
  8
0
 62
     0
 10
226.763
 20
14.7574
 30
0.0
 11
226.763
 21
11.6568
 31
0.0
  0
LINE
  8
0
 62
     0
 10
226.763
 20
11.6568
 30
0.0
 11
227.564
 21
11.6568
 31
0.0
  0
LINE
  8
0
 62
     0
 10
227.564
 20
11.6568
 30
0.0
 11
227.564
 21
10.6577
 31
0.0
  0
LINE
  8
0
 62
     0
 10
227.564
 20
10.6577
 30
0.0
 11
241.563
 21
10.6577
 31
0.0
  0
LINE
  8
0
 62
     0
 10
241.563
 20
10.6577
 30
0.0
 11
241.563
 21
11.6568
 31
0.0
  0
LINE
  8
0
 62
     0
 10
241.563
 20
11.6568
 30
0.0
 11
242.364
 21
11.6568
 31
0.0
  0
LINE
  8
0
 62
     0
 10
242.364
 20
11.6568
 30
0.0
 11
242.364
 21
14.7574
 31
0.0
  0
LINE
  8
0
 62
     0
 10
242.364
 20
14.7574
 30
0.0
 11
241.563
 21
14.7574
 31
0.0
  0
LINE
  8
0
 62
     0
 10
241.563
 20
14.7574
 30
0.0
 11
241.563
 21
20.5589
 31
0.0
  0
LINE
  8
0
 62
     0
 10
241.563
 20
20.5589
 30
0.0
 11
242.364
 21
20.5589
 31
0.0
  0
LINE
  8
0
 62
     0
 10
242.364
 20
20.5589
 30
0.0
 11
242.364
 21
23.6568
 31
0.0
  0
LINE
  8
0
 62
     0
 10
242.364
 20
23.6568
 30
0.0
 11
241.563
 21
23.6568
 31
0.0
  0
LINE
  8
0
 62
     0
 10
241.563
 20
23.6568
 30
0.0
 11
241.563
 21
24.6572
 31
0.0
  0
LINE
  8
0
 62
     0
 10
241.563
 20
24.6572
 30
0.0
 11
227.564
 21
24.6572
 31
0.0
  0
LINE
  8
0
 62
     0
 10
203.751
 20
24.6572
 30
0.0
 11
203.751
 21
23.6568
 31
0.0
  0
LINE
  8
0
 62
     0
 10
203.751
 20
23.6568
 30
0.0
 11
202.952
 21
23.6568
 31
0.0
  0
LINE
  8
0
 62
     0
 10
202.952
 20
23.6568
 30
0.0
 11
202.952
 21
20.5589
 31
0.0
  0
LINE
  8
0
 62
     0
 10
202.952
 20
20.5589
 30
0.0
 11
203.751
 21
20.5589
 31
0.0
  0
LINE
  8
0
 62
     0
 10
203.751
 20
20.5589
 30
0.0
 11
203.751
 21
14.7574
 31
0.0
  0
LINE
  8
0
 62
     0
 10
203.751
 20
14.7574
 30
0.0
 11
202.952
 21
14.7574
 31
0.0
  0
LINE
  8
0
 62
     0
 10
202.952
 20
14.7574
 30
0.0
 11
202.952
 21
11.6568
 31
0.0
  0
LINE
  8
0
 62
     0
 10
202.952
 20
11.6568
 30
0.0
 11
203.751
 21
11.6568
 31
0.0
  0
LINE
  8
0
 62
     0
 10
203.751
 20
11.6568
 30
0.0
 11
203.751
 21
10.6577
 31
0.0
  0
LINE
  8
0
 62
     0
 10
203.751
 20
10.6577
 30
0.0
 11
217.752
 21
10.6577
 31
0.0
  0
LINE
  8
0
 62
     0
 10
217.752
 20
10.6577
 30
0.0
 11
217.752
 21
11.6568
 31
0.0
  0
LINE
  8
0
 62
     0
 10
217.752
 20
11.6568
 30
0.0
 11
218.551
 21
11.6568
 31
0.0
  0
LINE
  8
0
 62
     0
 10
218.551
 20
11.6568
 30
0.0
 11
218.551
 21
14.7574
 31
0.0
  0
LINE
  8
0
 62
     0
 10
218.551
 20
14.7574
 30
0.0
 11
217.752
 21
14.7574
 31
0.0
  0
LINE
  8
0
 62
     0
 10
217.752
 20
14.7574
 30
0.0
 11
217.752
 21
20.5589
 31
0.0
  0
LINE
  8
0
 62
     0
 10
217.752
 20
20.5589
 30
0.0
 11
218.551
 21
20.5589
 31
0.0
  0
LINE
  8
0
 62
     0
 10
218.551
 20
20.5589
 30
0.0
 11
218.551
 21
23.6568
 31
0.0
  0
LINE
  8
0
 62
     0
 10
218.551
 20
23.6568
 30
0.0
 11
217.752
 21
23.6568
 31
0.0
  0
LINE
  8
0
 62
     0
 10
217.752
 20
23.6568
 30
0.0
 11
217.752
 21
24.6572
 31
0.0
  0
LINE
  8
0
 62
     0
 10
217.752
 20
24.6572
 30
0.0
 11
203.751
 21
24.6572
 31
0.0
  0
LINE
  8
0
 62
     0
 10
60.8764
 20
24.6572
 30
0.0
 11
60.8764
 21
23.6568
 31
0.0
  0
LINE
  8
0
 62
     0
 10
60.8764
 20
23.6568
 30
0.0
 11
60.0756
 21
23.6568
 31
0.0
  0
LINE
  8
0
 62
     0
 10
60.0756
 20
23.6568
 30
0.0
 11
60.0756
 21
20.5589
 31
0.0
  0
LINE
  8
0
 62
     0
 10
60.0756
 20
20.5589
 30
0.0
 11
60.8764
 21
20.5589
 31
0.0
  0
LINE
  8
0
 62
     0
 10
60.8764
 20
20.5589
 30
0.0
 11
60.8764
 21
14.7574
 31
0.0
  0
LINE
  8
0
 62
     0
 10
60.8764
 20
14.7574
 30
0.0
 11
60.0756
 21
14.7574
 31
0.0
  0
LINE
  8
0
 62
     0
 10
60.0756
 20
14.7574
 30
0.0
 11
60.0756
 21
11.6568
 31
0.0
  0
LINE
  8
0
 62
     0
 10
60.0756
 20
11.6568
 30
0.0
 11
60.8764
 21
11.6568
 31
0.0
  0
LINE
  8
0
 62
     0
 10
60.8764
 20
11.6568
 30
0.0
 11
60.8764
 21
10.6577
 31
0.0
  0
LINE
  8
0
 62
     0
 10
60.8764
 20
10.6577
 30
0.0
 11
74.8771
 21
10.6577
 31
0.0
  0
LINE
  8
0
 62
     0
 10
74.8771
 20
10.6577
 30
0.0
 11
74.8771
 21
11.6568
 31
0.0
  0
LINE
  8
0
 62
     0
 10
74.8771
 20
11.6568
 30
0.0
 11
75.6765
 21
11.6568
 31
0.0
  0
LINE
  8
0
 62
     0
 10
75.6765
 20
11.6568
 30
0.0
 11
75.6765
 21
14.7574
 31
0.0
  0
LINE
  8
0
 62
     0
 10
75.6765
 20
14.7574
 30
0.0
 11
74.8771
 21
14.7574
 31
0.0
  0
LINE
  8
0
 62
     0
 10
74.8771
 20
14.7574
 30
0.0
 11
74.8771
 21
20.5589
 31
0.0
  0
LINE
  8
0
 62
     0
 10
74.8771
 20
20.5589
 30
0.0
 11
75.6765
 21
20.5589
 31
0.0
  0
LINE
  8
0
 62
     0
 10
75.6765
 20
20.5589
 30
0.0
 11
75.6765
 21
23.6568
 31
0.0
  0
LINE
  8
0
 62
     0
 10
75.6765
 20
23.6568
 30
0.0
 11
74.8771
 21
23.6568
 31
0.0
  0
LINE
  8
0
 62
     0
 10
74.8771
 20
23.6568
 30
0.0
 11
74.8771
 21
24.6572
 31
0.0
  0
LINE
  8
0
 62
     0
 10
74.8771
 20
24.6572
 30
0.0
 11
60.8764
 21
24.6572
 31
0.0
  0
LINE
  8
0
 62
     0
 10
37.0639
 20
24.6572
 30
0.0
 11
37.0639
 21
23.6568
 31
0.0
  0
LINE
  8
0
 62
     0
 10
37.0639
 20
23.6568
 30
0.0
 11
36.2631
 21
23.6568
 31
0.0
  0
LINE
  8
0
 62
     0
 10
36.2631
 20
23.6568
 30
0.0
 11
36.2631
 21
20.5589
 31
0.0
  0
LINE
  8
0
 62
     0
 10
36.2631
 20
20.5589
 30
0.0
 11
37.0639
 21
20.5589
 31
0.0
  0
LINE
  8
0
 62
     0
 10
37.0639
 20
20.5589
 30
0.0
 11
37.0639
 21
14.7574
 31
0.0
  0
LINE
  8
0
 62
     0
 10
37.0639
 20
14.7574
 30
0.0
 11
36.2631
 21
14.7574
 31
0.0
  0
LINE
  8
0
 62
     0
 10
36.2631
 20
14.7574
 30
0.0
 11
36.2631
 21
11.6568
 31
0.0
  0
LINE
  8
0
 62
     0
 10
36.2631
 20
11.6568
 30
0.0
 11
37.0639
 21
11.6568
 31
0.0
  0
LINE
  8
0
 62
     0
 10
37.0639
 20
11.6568
 30
0.0
 11
37.0639
 21
10.6577
 31
0.0
  0
LINE
  8
0
 62
     0
 10
37.0639
 20
10.6577
 30
0.0
 11
51.0632
 21
10.6577
 31
0.0
  0
LINE
  8
0
 62
     0
 10
51.0632
 20
10.6577
 30
0.0
 11
51.0632
 21
11.6568
 31
0.0
  0
LINE
  8
0
 62
     0
 10
51.0632
 20
11.6568
 30
0.0
 11
51.864
 21
11.6568
 31
0.0
  0
LINE
  8
0
 62
     0
 10
51.864
 20
11.6568
 30
0.0
 11
51.864
 21
14.7574
 31
0.0
  0
LINE
  8
0
 62
     0
 10
51.864
 20
14.7574
 30
0.0
 11
51.0632
 21
14.7574
 31
0.0
  0
LINE
  8
0
 62
     0
 10
51.0632
 20
14.7574
 30
0.0
 11
51.0632
 21
20.5589
 31
0.0
  0
LINE
  8
0
 62
     0
 10
51.0632
 20
20.5589
 30
0.0
 11
51.864
 21
20.5589
 31
0.0
  0
LINE
  8
0
 62
     0
 10
51.864
 20
20.5589
 30
0.0
 11
51.864
 21
23.6568
 31
0.0
  0
LINE
  8
0
 62
     0
 10
51.864
 20
23.6568
 30
0.0
 11
51.0632
 21
23.6568
 31
0.0
  0
LINE
  8
0
 62
     0
 10
51.0632
 20
23.6568
 30
0.0
 11
51.0632
 21
24.6572
 31
0.0
  0
LINE
  8
0
 62
     0
 10
51.0632
 20
24.6572
 30
0.0
 11
37.0639
 21
24.6572
 31
0.0
  0
LINE
  8
0
 62
     0
 10
13.2512
 20
24.6572
 30
0.0
 11
13.2512
 21
23.6568
 31
0.0
  0
LINE
  8
0
 62
     0
 10
13.2512
 20
23.6568
 30
0.0
 11
12.452
 21
23.6568
 31
0.0
  0
LINE
  8
0
 62
     0
 10
12.452
 20
23.6568
 30
0.0
 11
12.452
 21
20.5589
 31
0.0
  0
LINE
  8
0
 62
     0
 10
12.452
 20
20.5589
 30
0.0
 11
13.2512
 21
20.5589
 31
0.0
  0
LINE
  8
0
 62
     0
 10
13.2512
 20
20.5589
 30
0.0
 11
13.2512
 21
14.7574
 31
0.0
  0
LINE
  8
0
 62
     0
 10
13.2512
 20
14.7574
 30
0.0
 11
12.452
 21
14.7574
 31
0.0
  0
LINE
  8
0
 62
     0
 10
12.452
 20
14.7574
 30
0.0
 11
12.452
 21
11.6568
 31
0.0
  0
LINE
  8
0
 62
     0
 10
12.452
 20
11.6568
 30
0.0
 11
13.2512
 21
11.6568
 31
0.0
  0
LINE
  8
0
 62
     0
 10
13.2512
 20
11.6568
 30
0.0
 11
13.2512
 21
10.6577
 31
0.0
  0
LINE
  8
0
 62
     0
 10
13.2512
 20
10.6577
 30
0.0
 11
27.2521
 21
10.6577
 31
0.0
  0
LINE
  8
0
 62
     0
 10
27.2521
 20
10.6577
 30
0.0
 11
27.2521
 21
11.6568
 31
0.0
  0
LINE
  8
0
 62
     0
 10
27.2521
 20
11.6568
 30
0.0
 11
28.0513
 21
11.6568
 31
0.0
  0
LINE
  8
0
 62
     0
 10
28.0513
 20
11.6568
 30
0.0
 11
28.0513
 21
14.7574
 31
0.0
  0
LINE
  8
0
 62
     0
 10
28.0513
 20
14.7574
 30
0.0
 11
27.2521
 21
14.7574
 31
0.0
  0
LINE
  8
0
 62
     0
 10
27.2521
 20
14.7574
 30
0.0
 11
27.2521
 21
20.5589
 31
0.0
  0
LINE
  8
0
 62
     0
 10
27.2521
 20
20.5589
 30
0.0
 11
28.0513
 21
20.5589
 31
0.0
  0
LINE
  8
0
 62
     0
 10
28.0513
 20
20.5589
 30
0.0
 11
28.0513
 21
23.6568
 31
0.0
  0
LINE
  8
0
 62
     0
 10
28.0513
 20
23.6568
 30
0.0
 11
27.2521
 21
23.6568
 31
0.0
  0
LINE
  8
0
 62
     0
 10
27.2521
 20
23.6568
 30
0.0
 11
27.2521
 21
24.6572
 31
0.0
  0
LINE
  8
0
 62
     0
 10
27.2521
 20
24.6572
 30
0.0
 11
13.2512
 21
24.6572
 31
0.0
  0
LINE
  8
0
 62
     0
 10
22.7762
 20
43.7074
 30
0.0
 11
22.7762
 21
42.7069
 31
0.0
  0
LINE
  8
0
 62
     0
 10
22.7762
 20
42.7069
 30
0.0
 11
21.977
 21
42.7069
 31
0.0
  0
LINE
  8
0
 62
     0
 10
21.977
 20
42.7069
 30
0.0
 11
21.977
 21
39.6088
 31
0.0
  0
LINE
  8
0
 62
     0
 10
21.977
 20
39.6088
 30
0.0
 11
22.7762
 21
39.6088
 31
0.0
  0
LINE
  8
0
 62
     0
 10
22.7762
 20
39.6088
 30
0.0
 11
22.7762
 21
39.0066
 31
0.0
  0
LINE
  8
0
 62
     0
 10
22.7762
 20
39.0066
 30
0.0
 11
21.2521
 21
39.0066
 31
0.0
  0
LINE
  8
0
 62
     0
 10
21.2521
 20
39.0066
 30
0.0
 11
21.2521
 21
42.237
 31
0.0
  0
LINE
  8
0
 62
     0
 10
21.2521
 20
42.237
 30
0.0
 11
19.5268
 21
42.237
 31
0.0
  0
LINE
  8
0
 62
     0
 10
19.5268
 20
42.237
 30
0.0
 11
19.5268
 21
43.1574
 31
0.0
  0
LINE
  8
0
 62
     0
 10
19.5268
 20
43.1574
 30
0.0
 11
16.2264
 21
43.1574
 31
0.0
  0
LINE
  8
0
 62
     0
 10
16.2264
 20
43.1574
 30
0.0
 11
16.2264
 21
42.237
 31
0.0
  0
LINE
  8
0
 62
     0
 10
16.2264
 20
42.237
 30
0.0
 11
14.5011
 21
42.237
 31
0.0
  0
LINE
  8
0
 62
     0
 10
14.5011
 20
42.237
 30
0.0
 11
14.5011
 21
39.0066
 31
0.0
  0
LINE
  8
0
 62
     0
 10
14.5011
 20
39.0066
 30
0.0
 11
13.677
 21
39.0066
 31
0.0
  0
LINE
  8
0
 62
     0
 10
13.677
 20
39.0066
 30
0.0
 11
13.677
 21
36.2081
 31
0.0
  0
LINE
  8
0
 62
     0
 10
13.677
 20
36.2081
 30
0.0
 11
14.5011
 21
36.2081
 31
0.0
  0
LINE
  8
0
 62
     0
 10
14.5011
 20
36.2081
 30
0.0
 11
14.5011
 21
29.9379
 31
0.0
  0
LINE
  8
0
 62
     0
 10
14.5011
 20
29.9379
 30
0.0
 11
16.2264
 21
29.9379
 31
0.0
  0
LINE
  8
0
 62
     0
 10
16.2264
 20
29.9379
 30
0.0
 11
16.2264
 21
28.9567
 31
0.0
  0
LINE
  8
0
 62
     0
 10
16.2264
 20
28.9567
 30
0.0
 11
19.5268
 21
28.9567
 31
0.0
  0
LINE
  8
0
 62
     0
 10
19.5268
 20
28.9567
 30
0.0
 11
19.5268
 21
29.9379
 31
0.0
  0
LINE
  8
0
 62
     0
 10
19.5268
 20
29.9379
 30
0.0
 11
21.2521
 21
29.9379
 31
0.0
  0
LINE
  8
0
 62
     0
 10
21.2521
 20
29.9379
 30
0.0
 11
21.2521
 21
34.4069
 31
0.0
  0
LINE
  8
0
 62
     0
 10
21.2521
 20
34.4069
 30
0.0
 11
22.7762
 21
34.4069
 31
0.0
  0
LINE
  8
0
 62
     0
 10
22.7762
 20
34.4069
 30
0.0
 11
22.7762
 21
33.8074
 31
0.0
  0
LINE
  8
0
 62
     0
 10
22.7762
 20
33.8074
 30
0.0
 11
21.977
 21
33.8074
 31
0.0
  0
LINE
  8
0
 62
     0
 10
21.977
 20
33.8074
 30
0.0
 11
21.977
 21
30.7068
 31
0.0
  0
LINE
  8
0
 62
     0
 10
21.977
 20
30.7068
 30
0.0
 11
22.7762
 21
30.7068
 31
0.0
  0
LINE
  8
0
 62
     0
 10
22.7762
 20
30.7068
 30
0.0
 11
22.7762
 21
29.7077
 31
0.0
  0
LINE
  8
0
 62
     0
 10
22.7762
 20
29.7077
 30
0.0
 11
36.7771
 21
29.7077
 31
0.0
  0
LINE
  8
0
 62
     0
 10
36.7771
 20
29.7077
 30
0.0
 11
36.7771
 21
30.7068
 31
0.0
  0
LINE
  8
0
 62
     0
 10
36.7771
 20
30.7068
 30
0.0
 11
37.5765
 21
30.7068
 31
0.0
  0
LINE
  8
0
 62
     0
 10
37.5765
 20
30.7068
 30
0.0
 11
37.5765
 21
33.8074
 31
0.0
  0
LINE
  8
0
 62
     0
 10
37.5765
 20
33.8074
 30
0.0
 11
36.7771
 21
33.8074
 31
0.0
  0
LINE
  8
0
 62
     0
 10
36.7771
 20
33.8074
 30
0.0
 11
36.7771
 21
34.4069
 31
0.0
  0
LINE
  8
0
 62
     0
 10
36.7771
 20
34.4069
 30
0.0
 11
38.3011
 21
34.4069
 31
0.0
  0
LINE
  8
0
 62
     0
 10
38.3011
 20
34.4069
 30
0.0
 11
38.3011
 21
29.9379
 31
0.0
  0
LINE
  8
0
 62
     0
 10
38.3011
 20
29.9379
 30
0.0
 11
40.0265
 21
29.9379
 31
0.0
  0
LINE
  8
0
 62
     0
 10
40.0265
 20
29.9379
 30
0.0
 11
40.0265
 21
28.9567
 31
0.0
  0
LINE
  8
0
 62
     0
 10
40.0265
 20
28.9567
 30
0.0
 11
43.3268
 21
28.9567
 31
0.0
  0
LINE
  8
0
 62
     0
 10
43.3268
 20
28.9567
 30
0.0
 11
43.3268
 21
29.9379
 31
0.0
  0
LINE
  8
0
 62
     0
 10
43.3268
 20
29.9379
 30
0.0
 11
45.0508
 21
29.9379
 31
0.0
  0
LINE
  8
0
 62
     0
 10
45.0508
 20
29.9379
 30
0.0
 11
45.0508
 21
36.2081
 31
0.0
  0
LINE
  8
0
 62
     0
 10
45.0508
 20
36.2081
 30
0.0
 11
45.8763
 21
36.2081
 31
0.0
  0
LINE
  8
0
 62
     0
 10
45.8763
 20
36.2081
 30
0.0
 11
45.8763
 21
39.0066
 31
0.0
  0
LINE
  8
0
 62
     0
 10
45.8763
 20
39.0066
 30
0.0
 11
45.0508
 21
39.0066
 31
0.0
  0
LINE
  8
0
 62
     0
 10
45.0508
 20
39.0066
 30
0.0
 11
45.0508
 21
42.237
 31
0.0
  0
LINE
  8
0
 62
     0
 10
45.0508
 20
42.237
 30
0.0
 11
43.3268
 21
42.237
 31
0.0
  0
LINE
  8
0
 62
     0
 10
43.3268
 20
42.237
 30
0.0
 11
43.3268
 21
43.1574
 31
0.0
  0
LINE
  8
0
 62
     0
 10
43.3268
 20
43.1574
 30
0.0
 11
40.0265
 21
43.1574
 31
0.0
  0
LINE
  8
0
 62
     0
 10
40.0265
 20
43.1574
 30
0.0
 11
40.0265
 21
42.237
 31
0.0
  0
LINE
  8
0
 62
     0
 10
40.0265
 20
42.237
 30
0.0
 11
38.3011
 21
42.237
 31
0.0
  0
LINE
  8
0
 62
     0
 10
38.3011
 20
42.237
 30
0.0
 11
38.3011
 21
39.0066
 31
0.0
  0
LINE
  8
0
 62
     0
 10
38.3011
 20
39.0066
 30
0.0
 11
36.7771
 21
39.0066
 31
0.0
  0
LINE
  8
0
 62
     0
 10
36.7771
 20
39.0066
 30
0.0
 11
36.7771
 21
39.6088
 31
0.0
  0
LINE
  8
0
 62
     0
 10
36.7771
 20
39.6088
 30
0.0
 11
37.5765
 21
39.6088
 31
0.0
  0
LINE
  8
0
 62
     0
 10
37.5765
 20
39.6088
 30
0.0
 11
37.5765
 21
42.7069
 31
0.0
  0
LINE
  8
0
 62
     0
 10
37.5765
 20
42.7069
 30
0.0
 11
36.7771
 21
42.7069
 31
0.0
  0
LINE
  8
0
 62
     0
 10
36.7771
 20
42.7069
 30
0.0
 11
36.7771
 21
43.7074
 31
0.0
  0
LINE
  8
0
 62
     0
 10
36.7771
 20
43.7074
 30
0.0
 11
22.7762
 21
43.7074
 31
0.0
  0
LINE
  8
0
 62
     0
 10
296.62
 20
43.7074
 30
0.0
 11
296.62
 21
42.7069
 31
0.0
  0
LINE
  8
0
 62
     0
 10
296.62
 20
42.7069
 30
0.0
 11
295.821
 21
42.7069
 31
0.0
  0
LINE
  8
0
 62
     0
 10
295.821
 20
42.7069
 30
0.0
 11
295.821
 21
39.6088
 31
0.0
  0
LINE
  8
0
 62
     0
 10
295.821
 20
39.6088
 30
0.0
 11
296.62
 21
39.6088
 31
0.0
  0
LINE
  8
0
 62
     0
 10
296.62
 20
39.6088
 30
0.0
 11
296.62
 21
33.8074
 31
0.0
  0
LINE
  8
0
 62
     0
 10
296.62
 20
33.8074
 30
0.0
 11
295.821
 21
33.8074
 31
0.0
  0
LINE
  8
0
 62
     0
 10
295.821
 20
33.8074
 30
0.0
 11
295.821
 21
30.7068
 31
0.0
  0
LINE
  8
0
 62
     0
 10
295.821
 20
30.7068
 30
0.0
 11
296.62
 21
30.7068
 31
0.0
  0
LINE
  8
0
 62
     0
 10
296.62
 20
30.7068
 30
0.0
 11
296.62
 21
29.7077
 31
0.0
  0
LINE
  8
0
 62
     0
 10
296.62
 20
29.7077
 30
0.0
 11
310.621
 21
29.7077
 31
0.0
  0
LINE
  8
0
 62
     0
 10
310.621
 20
29.7077
 30
0.0
 11
310.621
 21
30.7068
 31
0.0
  0
LINE
  8
0
 62
     0
 10
310.621
 20
30.7068
 30
0.0
 11
311.42
 21
30.7068
 31
0.0
  0
LINE
  8
0
 62
     0
 10
311.42
 20
30.7068
 30
0.0
 11
311.42
 21
33.8074
 31
0.0
  0
LINE
  8
0
 62
     0
 10
311.42
 20
33.8074
 30
0.0
 11
310.621
 21
33.8074
 31
0.0
  0
LINE
  8
0
 62
     0
 10
310.621
 20
33.8074
 30
0.0
 11
310.621
 21
39.6088
 31
0.0
  0
LINE
  8
0
 62
     0
 10
310.621
 20
39.6088
 30
0.0
 11
311.42
 21
39.6088
 31
0.0
  0
LINE
  8
0
 62
     0
 10
311.42
 20
39.6088
 30
0.0
 11
311.42
 21
42.7069
 31
0.0
  0
LINE
  8
0
 62
     0
 10
311.42
 20
42.7069
 30
0.0
 11
310.621
 21
42.7069
 31
0.0
  0
LINE
  8
0
 62
     0
 10
310.621
 20
42.7069
 30
0.0
 11
310.621
 21
43.7074
 31
0.0
  0
LINE
  8
0
 62
     0
 10
310.621
 20
43.7074
 30
0.0
 11
296.62
 21
43.7074
 31
0.0
  0
LINE
  8
0
 62
     0
 10
277.57
 20
43.7074
 30
0.0
 11
277.57
 21
42.7069
 31
0.0
  0
LINE
  8
0
 62
     0
 10
277.57
 20
42.7069
 30
0.0
 11
276.771
 21
42.7069
 31
0.0
  0
LINE
  8
0
 62
     0
 10
276.771
 20
42.7069
 30
0.0
 11
276.771
 21
39.6088
 31
0.0
  0
LINE
  8
0
 62
     0
 10
276.771
 20
39.6088
 30
0.0
 11
277.57
 21
39.6088
 31
0.0
  0
LINE
  8
0
 62
     0
 10
277.57
 20
39.6088
 30
0.0
 11
277.57
 21
33.8074
 31
0.0
  0
LINE
  8
0
 62
     0
 10
277.57
 20
33.8074
 30
0.0
 11
276.771
 21
33.8074
 31
0.0
  0
LINE
  8
0
 62
     0
 10
276.771
 20
33.8074
 30
0.0
 11
276.771
 21
30.7068
 31
0.0
  0
LINE
  8
0
 62
     0
 10
276.771
 20
30.7068
 30
0.0
 11
277.57
 21
30.7068
 31
0.0
  0
LINE
  8
0
 62
     0
 10
277.57
 20
30.7068
 30
0.0
 11
277.57
 21
29.7077
 31
0.0
  0
LINE
  8
0
 62
     0
 10
277.57
 20
29.7077
 30
0.0
 11
291.571
 21
29.7077
 31
0.0
  0
LINE
  8
0
 62
     0
 10
291.571
 20
29.7077
 30
0.0
 11
291.571
 21
30.7068
 31
0.0
  0
LINE
  8
0
 62
     0
 10
291.571
 20
30.7068
 30
0.0
 11
292.37
 21
30.7068
 31
0.0
  0
LINE
  8
0
 62
     0
 10
292.37
 20
30.7068
 30
0.0
 11
292.37
 21
33.8074
 31
0.0
  0
LINE
  8
0
 62
     0
 10
292.37
 20
33.8074
 30
0.0
 11
291.571
 21
33.8074
 31
0.0
  0
LINE
  8
0
 62
     0
 10
291.571
 20
33.8074
 30
0.0
 11
291.571
 21
39.6088
 31
0.0
  0
LINE
  8
0
 62
     0
 10
291.571
 20
39.6088
 30
0.0
 11
292.37
 21
39.6088
 31
0.0
  0
LINE
  8
0
 62
     0
 10
292.37
 20
39.6088
 30
0.0
 11
292.37
 21
42.7069
 31
0.0
  0
LINE
  8
0
 62
     0
 10
292.37
 20
42.7069
 30
0.0
 11
291.571
 21
42.7069
 31
0.0
  0
LINE
  8
0
 62
     0
 10
291.571
 20
42.7069
 30
0.0
 11
291.571
 21
43.7074
 31
0.0
  0
LINE
  8
0
 62
     0
 10
291.571
 20
43.7074
 30
0.0
 11
277.57
 21
43.7074
 31
0.0
  0
LINE
  8
0
 62
     0
 10
251.376
 20
43.7074
 30
0.0
 11
251.376
 21
42.7069
 31
0.0
  0
LINE
  8
0
 62
     0
 10
251.376
 20
42.7069
 30
0.0
 11
250.577
 21
42.7069
 31
0.0
  0
LINE
  8
0
 62
     0
 10
250.577
 20
42.7069
 30
0.0
 11
250.577
 21
39.6088
 31
0.0
  0
LINE
  8
0
 62
     0
 10
250.577
 20
39.6088
 30
0.0
 11
251.376
 21
39.6088
 31
0.0
  0
LINE
  8
0
 62
     0
 10
251.376
 20
39.6088
 30
0.0
 11
251.376
 21
33.8074
 31
0.0
  0
LINE
  8
0
 62
     0
 10
251.376
 20
33.8074
 30
0.0
 11
250.577
 21
33.8074
 31
0.0
  0
LINE
  8
0
 62
     0
 10
250.577
 20
33.8074
 30
0.0
 11
250.577
 21
30.7068
 31
0.0
  0
LINE
  8
0
 62
     0
 10
250.577
 20
30.7068
 30
0.0
 11
251.376
 21
30.7068
 31
0.0
  0
LINE
  8
0
 62
     0
 10
251.376
 20
30.7068
 30
0.0
 11
251.376
 21
29.7077
 31
0.0
  0
LINE
  8
0
 62
     0
 10
251.376
 20
29.7077
 30
0.0
 11
265.377
 21
29.7077
 31
0.0
  0
LINE
  8
0
 62
     0
 10
265.377
 20
29.7077
 30
0.0
 11
265.377
 21
30.7068
 31
0.0
  0
LINE
  8
0
 62
     0
 10
265.377
 20
30.7068
 30
0.0
 11
266.176
 21
30.7068
 31
0.0
  0
LINE
  8
0
 62
     0
 10
266.176
 20
30.7068
 30
0.0
 11
266.176
 21
33.8074
 31
0.0
  0
LINE
  8
0
 62
     0
 10
266.176
 20
33.8074
 30
0.0
 11
265.377
 21
33.8074
 31
0.0
  0
LINE
  8
0
 62
     0
 10
265.377
 20
33.8074
 30
0.0
 11
265.377
 21
39.6088
 31
0.0
  0
LINE
  8
0
 62
     0
 10
265.377
 20
39.6088
 30
0.0
 11
266.176
 21
39.6088
 31
0.0
  0
LINE
  8
0
 62
     0
 10
266.176
 20
39.6088
 30
0.0
 11
266.176
 21
42.7069
 31
0.0
  0
LINE
  8
0
 62
     0
 10
266.176
 20
42.7069
 30
0.0
 11
265.377
 21
42.7069
 31
0.0
  0
LINE
  8
0
 62
     0
 10
265.377
 20
42.7069
 30
0.0
 11
265.377
 21
43.7074
 31
0.0
  0
LINE
  8
0
 62
     0
 10
265.377
 20
43.7074
 30
0.0
 11
251.376
 21
43.7074
 31
0.0
  0
LINE
  8
0
 62
     0
 10
225.183
 20
43.7074
 30
0.0
 11
225.183
 21
42.7069
 31
0.0
  0
LINE
  8
0
 62
     0
 10
225.183
 20
42.7069
 30
0.0
 11
224.382
 21
42.7069
 31
0.0
  0
LINE
  8
0
 62
     0
 10
224.382
 20
42.7069
 30
0.0
 11
224.382
 21
39.6088
 31
0.0
  0
LINE
  8
0
 62
     0
 10
224.382
 20
39.6088
 30
0.0
 11
225.183
 21
39.6088
 31
0.0
  0
LINE
  8
0
 62
     0
 10
225.183
 20
39.6088
 30
0.0
 11
225.183
 21
33.8074
 31
0.0
  0
LINE
  8
0
 62
     0
 10
225.183
 20
33.8074
 30
0.0
 11
224.382
 21
33.8074
 31
0.0
  0
LINE
  8
0
 62
     0
 10
224.382
 20
33.8074
 30
0.0
 11
224.382
 21
30.7068
 31
0.0
  0
LINE
  8
0
 62
     0
 10
224.382
 20
30.7068
 30
0.0
 11
225.183
 21
30.7068
 31
0.0
  0
LINE
  8
0
 62
     0
 10
225.183
 20
30.7068
 30
0.0
 11
225.183
 21
29.7077
 31
0.0
  0
LINE
  8
0
 62
     0
 10
225.183
 20
29.7077
 30
0.0
 11
239.182
 21
29.7077
 31
0.0
  0
LINE
  8
0
 62
     0
 10
239.182
 20
29.7077
 30
0.0
 11
239.182
 21
30.7068
 31
0.0
  0
LINE
  8
0
 62
     0
 10
239.182
 20
30.7068
 30
0.0
 11
239.983
 21
30.7068
 31
0.0
  0
LINE
  8
0
 62
     0
 10
239.983
 20
30.7068
 30
0.0
 11
239.983
 21
33.8074
 31
0.0
  0
LINE
  8
0
 62
     0
 10
239.983
 20
33.8074
 30
0.0
 11
239.182
 21
33.8074
 31
0.0
  0
LINE
  8
0
 62
     0
 10
239.182
 20
33.8074
 30
0.0
 11
239.182
 21
39.6088
 31
0.0
  0
LINE
  8
0
 62
     0
 10
239.182
 20
39.6088
 30
0.0
 11
239.983
 21
39.6088
 31
0.0
  0
LINE
  8
0
 62
     0
 10
239.983
 20
39.6088
 30
0.0
 11
239.983
 21
42.7069
 31
0.0
  0
LINE
  8
0
 62
     0
 10
239.983
 20
42.7069
 30
0.0
 11
239.182
 21
42.7069
 31
0.0
  0
LINE
  8
0
 62
     0
 10
239.182
 20
42.7069
 30
0.0
 11
239.182
 21
43.7074
 31
0.0
  0
LINE
  8
0
 62
     0
 10
239.182
 20
43.7074
 30
0.0
 11
225.183
 21
43.7074
 31
0.0
  0
LINE
  8
0
 62
     0
 10
206.133
 20
43.7074
 30
0.0
 11
206.133
 21
42.7069
 31
0.0
  0
LINE
  8
0
 62
     0
 10
206.133
 20
42.7069
 30
0.0
 11
205.332
 21
42.7069
 31
0.0
  0
LINE
  8
0
 62
     0
 10
205.332
 20
42.7069
 30
0.0
 11
205.332
 21
39.6088
 31
0.0
  0
LINE
  8
0
 62
     0
 10
205.332
 20
39.6088
 30
0.0
 11
206.133
 21
39.6088
 31
0.0
  0
LINE
  8
0
 62
     0
 10
206.133
 20
39.6088
 30
0.0
 11
206.133
 21
33.8074
 31
0.0
  0
LINE
  8
0
 62
     0
 10
206.133
 20
33.8074
 30
0.0
 11
205.332
 21
33.8074
 31
0.0
  0
LINE
  8
0
 62
     0
 10
205.332
 20
33.8074
 30
0.0
 11
205.332
 21
30.7068
 31
0.0
  0
LINE
  8
0
 62
     0
 10
205.332
 20
30.7068
 30
0.0
 11
206.133
 21
30.7068
 31
0.0
  0
LINE
  8
0
 62
     0
 10
206.133
 20
30.7068
 30
0.0
 11
206.133
 21
29.7077
 31
0.0
  0
LINE
  8
0
 62
     0
 10
206.133
 20
29.7077
 30
0.0
 11
220.132
 21
29.7077
 31
0.0
  0
LINE
  8
0
 62
     0
 10
220.132
 20
29.7077
 30
0.0
 11
220.132
 21
30.7068
 31
0.0
  0
LINE
  8
0
 62
     0
 10
220.132
 20
30.7068
 30
0.0
 11
220.933
 21
30.7068
 31
0.0
  0
LINE
  8
0
 62
     0
 10
220.933
 20
30.7068
 30
0.0
 11
220.933
 21
33.8074
 31
0.0
  0
LINE
  8
0
 62
     0
 10
220.933
 20
33.8074
 30
0.0
 11
220.132
 21
33.8074
 31
0.0
  0
LINE
  8
0
 62
     0
 10
220.132
 20
33.8074
 30
0.0
 11
220.132
 21
39.6088
 31
0.0
  0
LINE
  8
0
 62
     0
 10
220.132
 20
39.6088
 30
0.0
 11
220.933
 21
39.6088
 31
0.0
  0
LINE
  8
0
 62
     0
 10
220.933
 20
39.6088
 30
0.0
 11
220.933
 21
42.7069
 31
0.0
  0
LINE
  8
0
 62
     0
 10
220.933
 20
42.7069
 30
0.0
 11
220.132
 21
42.7069
 31
0.0
  0
LINE
  8
0
 62
     0
 10
220.132
 20
42.7069
 30
0.0
 11
220.132
 21
43.7074
 31
0.0
  0
LINE
  8
0
 62
     0
 10
220.132
 20
43.7074
 30
0.0
 11
206.133
 21
43.7074
 31
0.0
  0
LINE
  8
0
 62
     0
 10
187.083
 20
43.7074
 30
0.0
 11
187.083
 21
42.7069
 31
0.0
  0
LINE
  8
0
 62
     0
 10
187.083
 20
42.7069
 30
0.0
 11
186.282
 21
42.7069
 31
0.0
  0
LINE
  8
0
 62
     0
 10
186.282
 20
42.7069
 30
0.0
 11
186.282
 21
39.6088
 31
0.0
  0
LINE
  8
0
 62
     0
 10
186.282
 20
39.6088
 30
0.0
 11
187.083
 21
39.6088
 31
0.0
  0
LINE
  8
0
 62
     0
 10
187.083
 20
39.6088
 30
0.0
 11
187.083
 21
33.8074
 31
0.0
  0
LINE
  8
0
 62
     0
 10
187.083
 20
33.8074
 30
0.0
 11
186.282
 21
33.8074
 31
0.0
  0
LINE
  8
0
 62
     0
 10
186.282
 20
33.8074
 30
0.0
 11
186.282
 21
30.7068
 31
0.0
  0
LINE
  8
0
 62
     0
 10
186.282
 20
30.7068
 30
0.0
 11
187.083
 21
30.7068
 31
0.0
  0
LINE
  8
0
 62
     0
 10
187.083
 20
30.7068
 30
0.0
 11
187.083
 21
29.7077
 31
0.0
  0
LINE
  8
0
 62
     0
 10
187.083
 20
29.7077
 30
0.0
 11
201.082
 21
29.7077
 31
0.0
  0
LINE
  8
0
 62
     0
 10
201.082
 20
29.7077
 30
0.0
 11
201.082
 21
30.7068
 31
0.0
  0
LINE
  8
0
 62
     0
 10
201.082
 20
30.7068
 30
0.0
 11
201.883
 21
30.7068
 31
0.0
  0
LINE
  8
0
 62
     0
 10
201.883
 20
30.7068
 30
0.0
 11
201.883
 21
33.8074
 31
0.0
  0
LINE
  8
0
 62
     0
 10
201.883
 20
33.8074
 30
0.0
 11
201.082
 21
33.8074
 31
0.0
  0
LINE
  8
0
 62
     0
 10
201.082
 20
33.8074
 30
0.0
 11
201.082
 21
39.6088
 31
0.0
  0
LINE
  8
0
 62
     0
 10
201.082
 20
39.6088
 30
0.0
 11
201.883
 21
39.6088
 31
0.0
  0
LINE
  8
0
 62
     0
 10
201.883
 20
39.6088
 30
0.0
 11
201.883
 21
42.7069
 31
0.0
  0
LINE
  8
0
 62
     0
 10
201.883
 20
42.7069
 30
0.0
 11
201.082
 21
42.7069
 31
0.0
  0
LINE
  8
0
 62
     0
 10
201.082
 20
42.7069
 30
0.0
 11
201.082
 21
43.7074
 31
0.0
  0
LINE
  8
0
 62
     0
 10
201.082
 20
43.7074
 30
0.0
 11
187.083
 21
43.7074
 31
0.0
  0
LINE
  8
0
 62
     0
 10
168.033
 20
43.7074
 30
0.0
 11
168.033
 21
42.7069
 31
0.0
  0
LINE
  8
0
 62
     0
 10
168.033
 20
42.7069
 30
0.0
 11
167.232
 21
42.7069
 31
0.0
  0
LINE
  8
0
 62
     0
 10
167.232
 20
42.7069
 30
0.0
 11
167.232
 21
39.6088
 31
0.0
  0
LINE
  8
0
 62
     0
 10
167.232
 20
39.6088
 30
0.0
 11
168.033
 21
39.6088
 31
0.0
  0
LINE
  8
0
 62
     0
 10
168.033
 20
39.6088
 30
0.0
 11
168.033
 21
33.8074
 31
0.0
  0
LINE
  8
0
 62
     0
 10
168.033
 20
33.8074
 30
0.0
 11
167.232
 21
33.8074
 31
0.0
  0
LINE
  8
0
 62
     0
 10
167.232
 20
33.8074
 30
0.0
 11
167.232
 21
30.7068
 31
0.0
  0
LINE
  8
0
 62
     0
 10
167.232
 20
30.7068
 30
0.0
 11
168.033
 21
30.7068
 31
0.0
  0
LINE
  8
0
 62
     0
 10
168.033
 20
30.7068
 30
0.0
 11
168.033
 21
29.7077
 31
0.0
  0
LINE
  8
0
 62
     0
 10
168.033
 20
29.7077
 30
0.0
 11
182.032
 21
29.7077
 31
0.0
  0
LINE
  8
0
 62
     0
 10
182.032
 20
29.7077
 30
0.0
 11
182.032
 21
30.7068
 31
0.0
  0
LINE
  8
0
 62
     0
 10
182.032
 20
30.7068
 30
0.0
 11
182.833
 21
30.7068
 31
0.0
  0
LINE
  8
0
 62
     0
 10
182.833
 20
30.7068
 30
0.0
 11
182.833
 21
33.8074
 31
0.0
  0
LINE
  8
0
 62
     0
 10
182.833
 20
33.8074
 30
0.0
 11
182.032
 21
33.8074
 31
0.0
  0
LINE
  8
0
 62
     0
 10
182.032
 20
33.8074
 30
0.0
 11
182.032
 21
39.6088
 31
0.0
  0
LINE
  8
0
 62
     0
 10
182.032
 20
39.6088
 30
0.0
 11
182.833
 21
39.6088
 31
0.0
  0
LINE
  8
0
 62
     0
 10
182.833
 20
39.6088
 30
0.0
 11
182.833
 21
42.7069
 31
0.0
  0
LINE
  8
0
 62
     0
 10
182.833
 20
42.7069
 30
0.0
 11
182.032
 21
42.7069
 31
0.0
  0
LINE
  8
0
 62
     0
 10
182.032
 20
42.7069
 30
0.0
 11
182.032
 21
43.7074
 31
0.0
  0
LINE
  8
0
 62
     0
 10
182.032
 20
43.7074
 30
0.0
 11
168.033
 21
43.7074
 31
0.0
  0
LINE
  8
0
 62
     0
 10
148.983
 20
43.7074
 30
0.0
 11
148.983
 21
42.7069
 31
0.0
  0
LINE
  8
0
 62
     0
 10
148.983
 20
42.7069
 30
0.0
 11
148.182
 21
42.7069
 31
0.0
  0
LINE
  8
0
 62
     0
 10
148.182
 20
42.7069
 30
0.0
 11
148.182
 21
39.6088
 31
0.0
  0
LINE
  8
0
 62
     0
 10
148.182
 20
39.6088
 30
0.0
 11
148.983
 21
39.6088
 31
0.0
  0
LINE
  8
0
 62
     0
 10
148.983
 20
39.6088
 30
0.0
 11
148.983
 21
33.8074
 31
0.0
  0
LINE
  8
0
 62
     0
 10
148.983
 20
33.8074
 30
0.0
 11
148.182
 21
33.8074
 31
0.0
  0
LINE
  8
0
 62
     0
 10
148.182
 20
33.8074
 30
0.0
 11
148.182
 21
30.7068
 31
0.0
  0
LINE
  8
0
 62
     0
 10
148.182
 20
30.7068
 30
0.0
 11
148.983
 21
30.7068
 31
0.0
  0
LINE
  8
0
 62
     0
 10
148.983
 20
30.7068
 30
0.0
 11
148.983
 21
29.7077
 31
0.0
  0
LINE
  8
0
 62
     0
 10
148.983
 20
29.7077
 30
0.0
 11
162.982
 21
29.7077
 31
0.0
  0
LINE
  8
0
 62
     0
 10
162.982
 20
29.7077
 30
0.0
 11
162.982
 21
30.7068
 31
0.0
  0
LINE
  8
0
 62
     0
 10
162.982
 20
30.7068
 30
0.0
 11
163.783
 21
30.7068
 31
0.0
  0
LINE
  8
0
 62
     0
 10
163.783
 20
30.7068
 30
0.0
 11
163.783
 21
33.8074
 31
0.0
  0
LINE
  8
0
 62
     0
 10
163.783
 20
33.8074
 30
0.0
 11
162.982
 21
33.8074
 31
0.0
  0
LINE
  8
0
 62
     0
 10
162.982
 20
33.8074
 30
0.0
 11
162.982
 21
39.6088
 31
0.0
  0
LINE
  8
0
 62
     0
 10
162.982
 20
39.6088
 30
0.0
 11
163.783
 21
39.6088
 31
0.0
  0
LINE
  8
0
 62
     0
 10
163.783
 20
39.6088
 30
0.0
 11
163.783
 21
42.7069
 31
0.0
  0
LINE
  8
0
 62
     0
 10
163.783
 20
42.7069
 30
0.0
 11
162.982
 21
42.7069
 31
0.0
  0
LINE
  8
0
 62
     0
 10
162.982
 20
42.7069
 30
0.0
 11
162.982
 21
43.7074
 31
0.0
  0
LINE
  8
0
 62
     0
 10
162.982
 20
43.7074
 30
0.0
 11
148.983
 21
43.7074
 31
0.0
  0
LINE
  8
0
 62
     0
 10
129.933
 20
43.7074
 30
0.0
 11
129.933
 21
42.7069
 31
0.0
  0
LINE
  8
0
 62
     0
 10
129.933
 20
42.7069
 30
0.0
 11
129.132
 21
42.7069
 31
0.0
  0
LINE
  8
0
 62
     0
 10
129.132
 20
42.7069
 30
0.0
 11
129.132
 21
39.6088
 31
0.0
  0
LINE
  8
0
 62
     0
 10
129.132
 20
39.6088
 30
0.0
 11
129.933
 21
39.6088
 31
0.0
  0
LINE
  8
0
 62
     0
 10
129.933
 20
39.6088
 30
0.0
 11
129.933
 21
33.8074
 31
0.0
  0
LINE
  8
0
 62
     0
 10
129.933
 20
33.8074
 30
0.0
 11
129.132
 21
33.8074
 31
0.0
  0
LINE
  8
0
 62
     0
 10
129.132
 20
33.8074
 30
0.0
 11
129.132
 21
30.7068
 31
0.0
  0
LINE
  8
0
 62
     0
 10
129.132
 20
30.7068
 30
0.0
 11
129.933
 21
30.7068
 31
0.0
  0
LINE
  8
0
 62
     0
 10
129.933
 20
30.7068
 30
0.0
 11
129.933
 21
29.7077
 31
0.0
  0
LINE
  8
0
 62
     0
 10
129.933
 20
29.7077
 30
0.0
 11
143.932
 21
29.7077
 31
0.0
  0
LINE
  8
0
 62
     0
 10
143.932
 20
29.7077
 30
0.0
 11
143.932
 21
30.7068
 31
0.0
  0
LINE
  8
0
 62
     0
 10
143.932
 20
30.7068
 30
0.0
 11
144.733
 21
30.7068
 31
0.0
  0
LINE
  8
0
 62
     0
 10
144.733
 20
30.7068
 30
0.0
 11
144.733
 21
33.8074
 31
0.0
  0
LINE
  8
0
 62
     0
 10
144.733
 20
33.8074
 30
0.0
 11
143.932
 21
33.8074
 31
0.0
  0
LINE
  8
0
 62
     0
 10
143.932
 20
33.8074
 30
0.0
 11
143.932
 21
39.6088
 31
0.0
  0
LINE
  8
0
 62
     0
 10
143.932
 20
39.6088
 30
0.0
 11
144.733
 21
39.6088
 31
0.0
  0
LINE
  8
0
 62
     0
 10
144.733
 20
39.6088
 30
0.0
 11
144.733
 21
42.7069
 31
0.0
  0
LINE
  8
0
 62
     0
 10
144.733
 20
42.7069
 30
0.0
 11
143.932
 21
42.7069
 31
0.0
  0
LINE
  8
0
 62
     0
 10
143.932
 20
42.7069
 30
0.0
 11
143.932
 21
43.7074
 31
0.0
  0
LINE
  8
0
 62
     0
 10
143.932
 20
43.7074
 30
0.0
 11
129.933
 21
43.7074
 31
0.0
  0
LINE
  8
0
 62
     0
 10
110.883
 20
43.7074
 30
0.0
 11
110.883
 21
42.7069
 31
0.0
  0
LINE
  8
0
 62
     0
 10
110.883
 20
42.7069
 30
0.0
 11
110.082
 21
42.7069
 31
0.0
  0
LINE
  8
0
 62
     0
 10
110.082
 20
42.7069
 30
0.0
 11
110.082
 21
39.6088
 31
0.0
  0
LINE
  8
0
 62
     0
 10
110.082
 20
39.6088
 30
0.0
 11
110.883
 21
39.6088
 31
0.0
  0
LINE
  8
0
 62
     0
 10
110.883
 20
39.6088
 30
0.0
 11
110.883
 21
33.8074
 31
0.0
  0
LINE
  8
0
 62
     0
 10
110.883
 20
33.8074
 30
0.0
 11
110.082
 21
33.8074
 31
0.0
  0
LINE
  8
0
 62
     0
 10
110.082
 20
33.8074
 30
0.0
 11
110.082
 21
30.7068
 31
0.0
  0
LINE
  8
0
 62
     0
 10
110.082
 20
30.7068
 30
0.0
 11
110.883
 21
30.7068
 31
0.0
  0
LINE
  8
0
 62
     0
 10
110.883
 20
30.7068
 30
0.0
 11
110.883
 21
29.7077
 31
0.0
  0
LINE
  8
0
 62
     0
 10
110.883
 20
29.7077
 30
0.0
 11
124.882
 21
29.7077
 31
0.0
  0
LINE
  8
0
 62
     0
 10
124.882
 20
29.7077
 30
0.0
 11
124.882
 21
30.7068
 31
0.0
  0
LINE
  8
0
 62
     0
 10
124.882
 20
30.7068
 30
0.0
 11
125.681
 21
30.7068
 31
0.0
  0
LINE
  8
0
 62
     0
 10
125.681
 20
30.7068
 30
0.0
 11
125.681
 21
33.8074
 31
0.0
  0
LINE
  8
0
 62
     0
 10
125.681
 20
33.8074
 30
0.0
 11
124.882
 21
33.8074
 31
0.0
  0
LINE
  8
0
 62
     0
 10
124.882
 20
33.8074
 30
0.0
 11
124.882
 21
39.6088
 31
0.0
  0
LINE
  8
0
 62
     0
 10
124.882
 20
39.6088
 30
0.0
 11
125.681
 21
39.6088
 31
0.0
  0
LINE
  8
0
 62
     0
 10
125.681
 20
39.6088
 30
0.0
 11
125.681
 21
42.7069
 31
0.0
  0
LINE
  8
0
 62
     0
 10
125.681
 20
42.7069
 30
0.0
 11
124.882
 21
42.7069
 31
0.0
  0
LINE
  8
0
 62
     0
 10
124.882
 20
42.7069
 30
0.0
 11
124.882
 21
43.7074
 31
0.0
  0
LINE
  8
0
 62
     0
 10
124.882
 20
43.7074
 30
0.0
 11
110.883
 21
43.7074
 31
0.0
  0
LINE
  8
0
 62
     0
 10
91.8326
 20
43.7074
 30
0.0
 11
91.8326
 21
42.7069
 31
0.0
  0
LINE
  8
0
 62
     0
 10
91.8326
 20
42.7069
 30
0.0
 11
91.0318
 21
42.7069
 31
0.0
  0
LINE
  8
0
 62
     0
 10
91.0318
 20
42.7069
 30
0.0
 11
91.0318
 21
39.6088
 31
0.0
  0
LINE
  8
0
 62
     0
 10
91.0318
 20
39.6088
 30
0.0
 11
91.8326
 21
39.6088
 31
0.0
  0
LINE
  8
0
 62
     0
 10
91.8326
 20
39.6088
 30
0.0
 11
91.8326
 21
33.8074
 31
0.0
  0
LINE
  8
0
 62
     0
 10
91.8326
 20
33.8074
 30
0.0
 11
91.0318
 21
33.8074
 31
0.0
  0
LINE
  8
0
 62
     0
 10
91.0318
 20
33.8074
 30
0.0
 11
91.0318
 21
30.7068
 31
0.0
  0
LINE
  8
0
 62
     0
 10
91.0318
 20
30.7068
 30
0.0
 11
91.8326
 21
30.7068
 31
0.0
  0
LINE
  8
0
 62
     0
 10
91.8326
 20
30.7068
 30
0.0
 11
91.8326
 21
29.7077
 31
0.0
  0
LINE
  8
0
 62
     0
 10
91.8326
 20
29.7077
 30
0.0
 11
105.832
 21
29.7077
 31
0.0
  0
LINE
  8
0
 62
     0
 10
105.832
 20
29.7077
 30
0.0
 11
105.832
 21
30.7068
 31
0.0
  0
LINE
  8
0
 62
     0
 10
105.832
 20
30.7068
 30
0.0
 11
106.633
 21
30.7068
 31
0.0
  0
LINE
  8
0
 62
     0
 10
106.633
 20
30.7068
 30
0.0
 11
106.633
 21
33.8074
 31
0.0
  0
LINE
  8
0
 62
     0
 10
106.633
 20
33.8074
 30
0.0
 11
105.832
 21
33.8074
 31
0.0
  0
LINE
  8
0
 62
     0
 10
105.832
 20
33.8074
 30
0.0
 11
105.832
 21
39.6088
 31
0.0
  0
LINE
  8
0
 62
     0
 10
105.832
 20
39.6088
 30
0.0
 11
106.633
 21
39.6088
 31
0.0
  0
LINE
  8
0
 62
     0
 10
106.633
 20
39.6088
 30
0.0
 11
106.633
 21
42.7069
 31
0.0
  0
LINE
  8
0
 62
     0
 10
106.633
 20
42.7069
 30
0.0
 11
105.832
 21
42.7069
 31
0.0
  0
LINE
  8
0
 62
     0
 10
105.832
 20
42.7069
 30
0.0
 11
105.832
 21
43.7074
 31
0.0
  0
LINE
  8
0
 62
     0
 10
105.832
 20
43.7074
 30
0.0
 11
91.8326
 21
43.7074
 31
0.0
  0
LINE
  8
0
 62
     0
 10
72.7826
 20
43.7074
 30
0.0
 11
72.7826
 21
42.7069
 31
0.0
  0
LINE
  8
0
 62
     0
 10
72.7826
 20
42.7069
 30
0.0
 11
71.9818
 21
42.7069
 31
0.0
  0
LINE
  8
0
 62
     0
 10
71.9818
 20
42.7069
 30
0.0
 11
71.9818
 21
39.6088
 31
0.0
  0
LINE
  8
0
 62
     0
 10
71.9818
 20
39.6088
 30
0.0
 11
72.7826
 21
39.6088
 31
0.0
  0
LINE
  8
0
 62
     0
 10
72.7826
 20
39.6088
 30
0.0
 11
72.7826
 21
33.8074
 31
0.0
  0
LINE
  8
0
 62
     0
 10
72.7826
 20
33.8074
 30
0.0
 11
71.9818
 21
33.8074
 31
0.0
  0
LINE
  8
0
 62
     0
 10
71.9818
 20
33.8074
 30
0.0
 11
71.9818
 21
30.7068
 31
0.0
  0
LINE
  8
0
 62
     0
 10
71.9818
 20
30.7068
 30
0.0
 11
72.7826
 21
30.7068
 31
0.0
  0
LINE
  8
0
 62
     0
 10
72.7826
 20
30.7068
 30
0.0
 11
72.7826
 21
29.7077
 31
0.0
  0
LINE
  8
0
 62
     0
 10
72.7826
 20
29.7077
 30
0.0
 11
86.7819
 21
29.7077
 31
0.0
  0
LINE
  8
0
 62
     0
 10
86.7819
 20
29.7077
 30
0.0
 11
86.7819
 21
30.7068
 31
0.0
  0
LINE
  8
0
 62
     0
 10
86.7819
 20
30.7068
 30
0.0
 11
87.5827
 21
30.7068
 31
0.0
  0
LINE
  8
0
 62
     0
 10
87.5827
 20
30.7068
 30
0.0
 11
87.5827
 21
33.8074
 31
0.0
  0
LINE
  8
0
 62
     0
 10
87.5827
 20
33.8074
 30
0.0
 11
86.7819
 21
33.8074
 31
0.0
  0
LINE
  8
0
 62
     0
 10
86.7819
 20
33.8074
 30
0.0
 11
86.7819
 21
39.6088
 31
0.0
  0
LINE
  8
0
 62
     0
 10
86.7819
 20
39.6088
 30
0.0
 11
87.5827
 21
39.6088
 31
0.0
  0
LINE
  8
0
 62
     0
 10
87.5827
 20
39.6088
 30
0.0
 11
87.5827
 21
42.7069
 31
0.0
  0
LINE
  8
0
 62
     0
 10
87.5827
 20
42.7069
 30
0.0
 11
86.7819
 21
42.7069
 31
0.0
  0
LINE
  8
0
 62
     0
 10
86.7819
 20
42.7069
 30
0.0
 11
86.7819
 21
43.7074
 31
0.0
  0
LINE
  8
0
 62
     0
 10
86.7819
 20
43.7074
 30
0.0
 11
72.7826
 21
43.7074
 31
0.0
  0
LINE
  8
0
 62
     0
 10
53.7326
 20
43.7074
 30
0.0
 11
53.7326
 21
42.7069
 31
0.0
  0
LINE
  8
0
 62
     0
 10
53.7326
 20
42.7069
 30
0.0
 11
52.9318
 21
42.7069
 31
0.0
  0
LINE
  8
0
 62
     0
 10
52.9318
 20
42.7069
 30
0.0
 11
52.9318
 21
39.6088
 31
0.0
  0
LINE
  8
0
 62
     0
 10
52.9318
 20
39.6088
 30
0.0
 11
53.7326
 21
39.6088
 31
0.0
  0
LINE
  8
0
 62
     0
 10
53.7326
 20
39.6088
 30
0.0
 11
53.7326
 21
33.8074
 31
0.0
  0
LINE
  8
0
 62
     0
 10
53.7326
 20
33.8074
 30
0.0
 11
52.9318
 21
33.8074
 31
0.0
  0
LINE
  8
0
 62
     0
 10
52.9318
 20
33.8074
 30
0.0
 11
52.9318
 21
30.7068
 31
0.0
  0
LINE
  8
0
 62
     0
 10
52.9318
 20
30.7068
 30
0.0
 11
53.7326
 21
30.7068
 31
0.0
  0
LINE
  8
0
 62
     0
 10
53.7326
 20
30.7068
 30
0.0
 11
53.7326
 21
29.7077
 31
0.0
  0
LINE
  8
0
 62
     0
 10
53.7326
 20
29.7077
 30
0.0
 11
67.7319
 21
29.7077
 31
0.0
  0
LINE
  8
0
 62
     0
 10
67.7319
 20
29.7077
 30
0.0
 11
67.7319
 21
30.7068
 31
0.0
  0
LINE
  8
0
 62
     0
 10
67.7319
 20
30.7068
 30
0.0
 11
68.5327
 21
30.7068
 31
0.0
  0
LINE
  8
0
 62
     0
 10
68.5327
 20
30.7068
 30
0.0
 11
68.5327
 21
33.8074
 31
0.0
  0
LINE
  8
0
 62
     0
 10
68.5327
 20
33.8074
 30
0.0
 11
67.7319
 21
33.8074
 31
0.0
  0
LINE
  8
0
 62
     0
 10
67.7319
 20
33.8074
 30
0.0
 11
67.7319
 21
39.6088
 31
0.0
  0
LINE
  8
0
 62
     0
 10
67.7319
 20
39.6088
 30
0.0
 11
68.5327
 21
39.6088
 31
0.0
  0
LINE
  8
0
 62
     0
 10
68.5327
 20
39.6088
 30
0.0
 11
68.5327
 21
42.7069
 31
0.0
  0
LINE
  8
0
 62
     0
 10
68.5327
 20
42.7069
 30
0.0
 11
67.7319
 21
42.7069
 31
0.0
  0
LINE
  8
0
 62
     0
 10
67.7319
 20
42.7069
 30
0.0
 11
67.7319
 21
43.7074
 31
0.0
  0
LINE
  8
0
 62
     0
 10
67.7319
 20
43.7074
 30
0.0
 11
53.7326
 21
43.7074
 31
0.0
  0
LINE
  8
0
 62
     0
 10
265.664
 20
62.7574
 30
0.0
 11
265.664
 21
61.7569
 31
0.0
  0
LINE
  8
0
 62
     0
 10
265.664
 20
61.7569
 30
0.0
 11
264.863
 21
61.7569
 31
0.0
  0
LINE
  8
0
 62
     0
 10
264.863
 20
61.7569
 30
0.0
 11
264.863
 21
58.6574
 31
0.0
  0
LINE
  8
0
 62
     0
 10
264.863
 20
58.6574
 30
0.0
 11
265.664
 21
58.6574
 31
0.0
  0
LINE
  8
0
 62
     0
 10
265.664
 20
58.6574
 30
0.0
 11
265.664
 21
58.0566
 31
0.0
  0
LINE
  8
0
 62
     0
 10
265.664
 20
58.0566
 30
0.0
 11
264.138
 21
58.0566
 31
0.0
  0
LINE
  8
0
 62
     0
 10
264.138
 20
58.0566
 30
0.0
 11
264.138
 21
61.287
 31
0.0
  0
LINE
  8
0
 62
     0
 10
264.138
 20
61.287
 30
0.0
 11
262.413
 21
61.287
 31
0.0
  0
LINE
  8
0
 62
     0
 10
262.413
 20
61.287
 30
0.0
 11
262.413
 21
62.2074
 31
0.0
  0
LINE
  8
0
 62
     0
 10
262.413
 20
62.2074
 30
0.0
 11
259.114
 21
62.2074
 31
0.0
  0
LINE
  8
0
 62
     0
 10
259.114
 20
62.2074
 30
0.0
 11
259.114
 21
61.287
 31
0.0
  0
LINE
  8
0
 62
     0
 10
259.114
 20
61.287
 30
0.0
 11
257.388
 21
61.287
 31
0.0
  0
LINE
  8
0
 62
     0
 10
257.388
 20
61.287
 30
0.0
 11
257.388
 21
58.0566
 31
0.0
  0
LINE
  8
0
 62
     0
 10
257.388
 20
58.0566
 30
0.0
 11
256.563
 21
58.0566
 31
0.0
  0
LINE
  8
0
 62
     0
 10
256.563
 20
58.0566
 30
0.0
 11
256.563
 21
55.2581
 31
0.0
  0
LINE
  8
0
 62
     0
 10
256.563
 20
55.2581
 30
0.0
 11
257.388
 21
55.2581
 31
0.0
  0
LINE
  8
0
 62
     0
 10
257.388
 20
55.2581
 30
0.0
 11
257.388
 21
48.9878
 31
0.0
  0
LINE
  8
0
 62
     0
 10
257.388
 20
48.9878
 30
0.0
 11
259.114
 21
48.9878
 31
0.0
  0
LINE
  8
0
 62
     0
 10
259.114
 20
48.9878
 30
0.0
 11
259.114
 21
48.0067
 31
0.0
  0
LINE
  8
0
 62
     0
 10
259.114
 20
48.0067
 30
0.0
 11
262.413
 21
48.0067
 31
0.0
  0
LINE
  8
0
 62
     0
 10
262.413
 20
48.0067
 30
0.0
 11
262.413
 21
48.9878
 31
0.0
  0
LINE
  8
0
 62
     0
 10
262.413
 20
48.9878
 30
0.0
 11
264.138
 21
48.9878
 31
0.0
  0
LINE
  8
0
 62
     0
 10
264.138
 20
48.9878
 30
0.0
 11
264.138
 21
53.4568
 31
0.0
  0
LINE
  8
0
 62
     0
 10
264.138
 20
53.4568
 30
0.0
 11
265.664
 21
53.4568
 31
0.0
  0
LINE
  8
0
 62
     0
 10
265.664
 20
53.4568
 30
0.0
 11
265.664
 21
52.8574
 31
0.0
  0
LINE
  8
0
 62
     0
 10
265.664
 20
52.8574
 30
0.0
 11
264.863
 21
52.8574
 31
0.0
  0
LINE
  8
0
 62
     0
 10
264.863
 20
52.8574
 30
0.0
 11
264.863
 21
49.7568
 31
0.0
  0
LINE
  8
0
 62
     0
 10
264.863
 20
49.7568
 30
0.0
 11
265.664
 21
49.7568
 31
0.0
  0
LINE
  8
0
 62
     0
 10
265.664
 20
49.7568
 30
0.0
 11
265.664
 21
48.7578
 31
0.0
  0
LINE
  8
0
 62
     0
 10
265.664
 20
48.7578
 30
0.0
 11
279.663
 21
48.7578
 31
0.0
  0
LINE
  8
0
 62
     0
 10
279.663
 20
48.7578
 30
0.0
 11
279.663
 21
49.7568
 31
0.0
  0
LINE
  8
0
 62
     0
 10
279.663
 20
49.7568
 30
0.0
 11
280.464
 21
49.7568
 31
0.0
  0
LINE
  8
0
 62
     0
 10
280.464
 20
49.7568
 30
0.0
 11
280.464
 21
52.8574
 31
0.0
  0
LINE
  8
0
 62
     0
 10
280.464
 20
52.8574
 30
0.0
 11
279.663
 21
52.8574
 31
0.0
  0
LINE
  8
0
 62
     0
 10
279.663
 20
52.8574
 30
0.0
 11
279.663
 21
53.4568
 31
0.0
  0
LINE
  8
0
 62
     0
 10
279.663
 20
53.4568
 30
0.0
 11
281.189
 21
53.4568
 31
0.0
  0
LINE
  8
0
 62
     0
 10
281.189
 20
53.4568
 30
0.0
 11
281.189
 21
48.9878
 31
0.0
  0
LINE
  8
0
 62
     0
 10
281.189
 20
48.9878
 30
0.0
 11
282.914
 21
48.9878
 31
0.0
  0
LINE
  8
0
 62
     0
 10
282.914
 20
48.9878
 30
0.0
 11
282.914
 21
48.0067
 31
0.0
  0
LINE
  8
0
 62
     0
 10
282.914
 20
48.0067
 30
0.0
 11
286.213
 21
48.0067
 31
0.0
  0
LINE
  8
0
 62
     0
 10
286.213
 20
48.0067
 30
0.0
 11
286.213
 21
48.9878
 31
0.0
  0
LINE
  8
0
 62
     0
 10
286.213
 20
48.9878
 30
0.0
 11
287.938
 21
48.9878
 31
0.0
  0
LINE
  8
0
 62
     0
 10
287.938
 20
48.9878
 30
0.0
 11
287.938
 21
55.2581
 31
0.0
  0
LINE
  8
0
 62
     0
 10
287.938
 20
55.2581
 30
0.0
 11
288.764
 21
55.2581
 31
0.0
  0
LINE
  8
0
 62
     0
 10
288.764
 20
55.2581
 30
0.0
 11
288.764
 21
58.0566
 31
0.0
  0
LINE
  8
0
 62
     0
 10
288.764
 20
58.0566
 30
0.0
 11
287.938
 21
58.0566
 31
0.0
  0
LINE
  8
0
 62
     0
 10
287.938
 20
58.0566
 30
0.0
 11
287.938
 21
61.287
 31
0.0
  0
LINE
  8
0
 62
     0
 10
287.938
 20
61.287
 30
0.0
 11
286.213
 21
61.287
 31
0.0
  0
LINE
  8
0
 62
     0
 10
286.213
 20
61.287
 30
0.0
 11
286.213
 21
62.2074
 31
0.0
  0
LINE
  8
0
 62
     0
 10
286.213
 20
62.2074
 30
0.0
 11
282.914
 21
62.2074
 31
0.0
  0
LINE
  8
0
 62
     0
 10
282.914
 20
62.2074
 30
0.0
 11
282.914
 21
61.287
 31
0.0
  0
LINE
  8
0
 62
     0
 10
282.914
 20
61.287
 30
0.0
 11
281.189
 21
61.287
 31
0.0
  0
LINE
  8
0
 62
     0
 10
281.189
 20
61.287
 30
0.0
 11
281.189
 21
58.0566
 31
0.0
  0
LINE
  8
0
 62
     0
 10
281.189
 20
58.0566
 30
0.0
 11
279.663
 21
58.0566
 31
0.0
  0
LINE
  8
0
 62
     0
 10
279.663
 20
58.0566
 30
0.0
 11
279.663
 21
58.6574
 31
0.0
  0
LINE
  8
0
 62
     0
 10
279.663
 20
58.6574
 30
0.0
 11
280.464
 21
58.6574
 31
0.0
  0
LINE
  8
0
 62
     0
 10
280.464
 20
58.6574
 30
0.0
 11
280.464
 21
61.7569
 31
0.0
  0
LINE
  8
0
 62
     0
 10
280.464
 20
61.7569
 30
0.0
 11
279.663
 21
61.7569
 31
0.0
  0
LINE
  8
0
 62
     0
 10
279.663
 20
61.7569
 30
0.0
 11
279.663
 21
62.7574
 31
0.0
  0
LINE
  8
0
 62
     0
 10
279.663
 20
62.7574
 30
0.0
 11
265.664
 21
62.7574
 31
0.0
  0
LINE
  8
0
 62
     0
 10
296.62
 20
62.7574
 30
0.0
 11
296.62
 21
61.7569
 31
0.0
  0
LINE
  8
0
 62
     0
 10
296.62
 20
61.7569
 30
0.0
 11
295.821
 21
61.7569
 31
0.0
  0
LINE
  8
0
 62
     0
 10
295.821
 20
61.7569
 30
0.0
 11
295.821
 21
58.6574
 31
0.0
  0
LINE
  8
0
 62
     0
 10
295.821
 20
58.6574
 30
0.0
 11
296.62
 21
58.6574
 31
0.0
  0
LINE
  8
0
 62
     0
 10
296.62
 20
58.6574
 30
0.0
 11
296.62
 21
52.8574
 31
0.0
  0
LINE
  8
0
 62
     0
 10
296.62
 20
52.8574
 30
0.0
 11
295.821
 21
52.8574
 31
0.0
  0
LINE
  8
0
 62
     0
 10
295.821
 20
52.8574
 30
0.0
 11
295.821
 21
49.7568
 31
0.0
  0
LINE
  8
0
 62
     0
 10
295.821
 20
49.7568
 30
0.0
 11
296.62
 21
49.7568
 31
0.0
  0
LINE
  8
0
 62
     0
 10
296.62
 20
49.7568
 30
0.0
 11
296.62
 21
48.7578
 31
0.0
  0
LINE
  8
0
 62
     0
 10
296.62
 20
48.7578
 30
0.0
 11
310.621
 21
48.7578
 31
0.0
  0
LINE
  8
0
 62
     0
 10
310.621
 20
48.7578
 30
0.0
 11
310.621
 21
49.7568
 31
0.0
  0
LINE
  8
0
 62
     0
 10
310.621
 20
49.7568
 30
0.0
 11
311.42
 21
49.7568
 31
0.0
  0
LINE
  8
0
 62
     0
 10
311.42
 20
49.7568
 30
0.0
 11
311.42
 21
52.8574
 31
0.0
  0
LINE
  8
0
 62
     0
 10
311.42
 20
52.8574
 30
0.0
 11
310.621
 21
52.8574
 31
0.0
  0
LINE
  8
0
 62
     0
 10
310.621
 20
52.8574
 30
0.0
 11
310.621
 21
58.6574
 31
0.0
  0
LINE
  8
0
 62
     0
 10
310.621
 20
58.6574
 30
0.0
 11
311.42
 21
58.6574
 31
0.0
  0
LINE
  8
0
 62
     0
 10
311.42
 20
58.6574
 30
0.0
 11
311.42
 21
61.7569
 31
0.0
  0
LINE
  8
0
 62
     0
 10
311.42
 20
61.7569
 30
0.0
 11
310.621
 21
61.7569
 31
0.0
  0
LINE
  8
0
 62
     0
 10
310.621
 20
61.7569
 30
0.0
 11
310.621
 21
62.7574
 31
0.0
  0
LINE
  8
0
 62
     0
 10
310.621
 20
62.7574
 30
0.0
 11
296.62
 21
62.7574
 31
0.0
  0
LINE
  8
0
 62
     0
 10
234.708
 20
62.7574
 30
0.0
 11
234.708
 21
61.7569
 31
0.0
  0
LINE
  8
0
 62
     0
 10
234.708
 20
61.7569
 30
0.0
 11
233.907
 21
61.7569
 31
0.0
  0
LINE
  8
0
 62
     0
 10
233.907
 20
61.7569
 30
0.0
 11
233.907
 21
58.6574
 31
0.0
  0
LINE
  8
0
 62
     0
 10
233.907
 20
58.6574
 30
0.0
 11
234.708
 21
58.6574
 31
0.0
  0
LINE
  8
0
 62
     0
 10
234.708
 20
58.6574
 30
0.0
 11
234.708
 21
52.8574
 31
0.0
  0
LINE
  8
0
 62
     0
 10
234.708
 20
52.8574
 30
0.0
 11
233.907
 21
52.8574
 31
0.0
  0
LINE
  8
0
 62
     0
 10
233.907
 20
52.8574
 30
0.0
 11
233.907
 21
49.7568
 31
0.0
  0
LINE
  8
0
 62
     0
 10
233.907
 20
49.7568
 30
0.0
 11
234.708
 21
49.7568
 31
0.0
  0
LINE
  8
0
 62
     0
 10
234.708
 20
49.7568
 30
0.0
 11
234.708
 21
48.7578
 31
0.0
  0
LINE
  8
0
 62
     0
 10
234.708
 20
48.7578
 30
0.0
 11
248.707
 21
48.7578
 31
0.0
  0
LINE
  8
0
 62
     0
 10
248.707
 20
48.7578
 30
0.0
 11
248.707
 21
49.7568
 31
0.0
  0
LINE
  8
0
 62
     0
 10
248.707
 20
49.7568
 30
0.0
 11
249.508
 21
49.7568
 31
0.0
  0
LINE
  8
0
 62
     0
 10
249.508
 20
49.7568
 30
0.0
 11
249.508
 21
52.8574
 31
0.0
  0
LINE
  8
0
 62
     0
 10
249.508
 20
52.8574
 30
0.0
 11
248.707
 21
52.8574
 31
0.0
  0
LINE
  8
0
 62
     0
 10
248.707
 20
52.8574
 30
0.0
 11
248.707
 21
58.6574
 31
0.0
  0
LINE
  8
0
 62
     0
 10
248.707
 20
58.6574
 30
0.0
 11
249.508
 21
58.6574
 31
0.0
  0
LINE
  8
0
 62
     0
 10
249.508
 20
58.6574
 30
0.0
 11
249.508
 21
61.7569
 31
0.0
  0
LINE
  8
0
 62
     0
 10
249.508
 20
61.7569
 30
0.0
 11
248.707
 21
61.7569
 31
0.0
  0
LINE
  8
0
 62
     0
 10
248.707
 20
61.7569
 30
0.0
 11
248.707
 21
62.7574
 31
0.0
  0
LINE
  8
0
 62
     0
 10
248.707
 20
62.7574
 30
0.0
 11
234.708
 21
62.7574
 31
0.0
  0
LINE
  8
0
 62
     0
 10
215.658
 20
62.7574
 30
0.0
 11
215.658
 21
61.7569
 31
0.0
  0
LINE
  8
0
 62
     0
 10
215.658
 20
61.7569
 30
0.0
 11
214.857
 21
61.7569
 31
0.0
  0
LINE
  8
0
 62
     0
 10
214.857
 20
61.7569
 30
0.0
 11
214.857
 21
58.6574
 31
0.0
  0
LINE
  8
0
 62
     0
 10
214.857
 20
58.6574
 30
0.0
 11
215.658
 21
58.6574
 31
0.0
  0
LINE
  8
0
 62
     0
 10
215.658
 20
58.6574
 30
0.0
 11
215.658
 21
52.8574
 31
0.0
  0
LINE
  8
0
 62
     0
 10
215.658
 20
52.8574
 30
0.0
 11
214.857
 21
52.8574
 31
0.0
  0
LINE
  8
0
 62
     0
 10
214.857
 20
52.8574
 30
0.0
 11
214.857
 21
49.7568
 31
0.0
  0
LINE
  8
0
 62
     0
 10
214.857
 20
49.7568
 30
0.0
 11
215.658
 21
49.7568
 31
0.0
  0
LINE
  8
0
 62
     0
 10
215.658
 20
49.7568
 30
0.0
 11
215.658
 21
48.7578
 31
0.0
  0
LINE
  8
0
 62
     0
 10
215.658
 20
48.7578
 30
0.0
 11
229.657
 21
48.7578
 31
0.0
  0
LINE
  8
0
 62
     0
 10
229.657
 20
48.7578
 30
0.0
 11
229.657
 21
49.7568
 31
0.0
  0
LINE
  8
0
 62
     0
 10
229.657
 20
49.7568
 30
0.0
 11
230.458
 21
49.7568
 31
0.0
  0
LINE
  8
0
 62
     0
 10
230.458
 20
49.7568
 30
0.0
 11
230.458
 21
52.8574
 31
0.0
  0
LINE
  8
0
 62
     0
 10
230.458
 20
52.8574
 30
0.0
 11
229.657
 21
52.8574
 31
0.0
  0
LINE
  8
0
 62
     0
 10
229.657
 20
52.8574
 30
0.0
 11
229.657
 21
58.6574
 31
0.0
  0
LINE
  8
0
 62
     0
 10
229.657
 20
58.6574
 30
0.0
 11
230.458
 21
58.6574
 31
0.0
  0
LINE
  8
0
 62
     0
 10
230.458
 20
58.6574
 30
0.0
 11
230.458
 21
61.7569
 31
0.0
  0
LINE
  8
0
 62
     0
 10
230.458
 20
61.7569
 30
0.0
 11
229.657
 21
61.7569
 31
0.0
  0
LINE
  8
0
 62
     0
 10
229.657
 20
61.7569
 30
0.0
 11
229.657
 21
62.7574
 31
0.0
  0
LINE
  8
0
 62
     0
 10
229.657
 20
62.7574
 30
0.0
 11
215.658
 21
62.7574
 31
0.0
  0
LINE
  8
0
 62
     0
 10
196.608
 20
62.7574
 30
0.0
 11
196.608
 21
61.7569
 31
0.0
  0
LINE
  8
0
 62
     0
 10
196.608
 20
61.7569
 30
0.0
 11
195.807
 21
61.7569
 31
0.0
  0
LINE
  8
0
 62
     0
 10
195.807
 20
61.7569
 30
0.0
 11
195.807
 21
58.6574
 31
0.0
  0
LINE
  8
0
 62
     0
 10
195.807
 20
58.6574
 30
0.0
 11
196.608
 21
58.6574
 31
0.0
  0
LINE
  8
0
 62
     0
 10
196.608
 20
58.6574
 30
0.0
 11
196.608
 21
52.8574
 31
0.0
  0
LINE
  8
0
 62
     0
 10
196.608
 20
52.8574
 30
0.0
 11
195.807
 21
52.8574
 31
0.0
  0
LINE
  8
0
 62
     0
 10
195.807
 20
52.8574
 30
0.0
 11
195.807
 21
49.7568
 31
0.0
  0
LINE
  8
0
 62
     0
 10
195.807
 20
49.7568
 30
0.0
 11
196.608
 21
49.7568
 31
0.0
  0
LINE
  8
0
 62
     0
 10
196.608
 20
49.7568
 30
0.0
 11
196.608
 21
48.7578
 31
0.0
  0
LINE
  8
0
 62
     0
 10
196.608
 20
48.7578
 30
0.0
 11
210.607
 21
48.7578
 31
0.0
  0
LINE
  8
0
 62
     0
 10
210.607
 20
48.7578
 30
0.0
 11
210.607
 21
49.7568
 31
0.0
  0
LINE
  8
0
 62
     0
 10
210.607
 20
49.7568
 30
0.0
 11
211.408
 21
49.7568
 31
0.0
  0
LINE
  8
0
 62
     0
 10
211.408
 20
49.7568
 30
0.0
 11
211.408
 21
52.8574
 31
0.0
  0
LINE
  8
0
 62
     0
 10
211.408
 20
52.8574
 30
0.0
 11
210.607
 21
52.8574
 31
0.0
  0
LINE
  8
0
 62
     0
 10
210.607
 20
52.8574
 30
0.0
 11
210.607
 21
58.6574
 31
0.0
  0
LINE
  8
0
 62
     0
 10
210.607
 20
58.6574
 30
0.0
 11
211.408
 21
58.6574
 31
0.0
  0
LINE
  8
0
 62
     0
 10
211.408
 20
58.6574
 30
0.0
 11
211.408
 21
61.7569
 31
0.0
  0
LINE
  8
0
 62
     0
 10
211.408
 20
61.7569
 30
0.0
 11
210.607
 21
61.7569
 31
0.0
  0
LINE
  8
0
 62
     0
 10
210.607
 20
61.7569
 30
0.0
 11
210.607
 21
62.7574
 31
0.0
  0
LINE
  8
0
 62
     0
 10
210.607
 20
62.7574
 30
0.0
 11
196.608
 21
62.7574
 31
0.0
  0
LINE
  8
0
 62
     0
 10
177.558
 20
62.7574
 30
0.0
 11
177.558
 21
61.7569
 31
0.0
  0
LINE
  8
0
 62
     0
 10
177.558
 20
61.7569
 30
0.0
 11
176.757
 21
61.7569
 31
0.0
  0
LINE
  8
0
 62
     0
 10
176.757
 20
61.7569
 30
0.0
 11
176.757
 21
58.6574
 31
0.0
  0
LINE
  8
0
 62
     0
 10
176.757
 20
58.6574
 30
0.0
 11
177.558
 21
58.6574
 31
0.0
  0
LINE
  8
0
 62
     0
 10
177.558
 20
58.6574
 30
0.0
 11
177.558
 21
52.8574
 31
0.0
  0
LINE
  8
0
 62
     0
 10
177.558
 20
52.8574
 30
0.0
 11
176.757
 21
52.8574
 31
0.0
  0
LINE
  8
0
 62
     0
 10
176.757
 20
52.8574
 30
0.0
 11
176.757
 21
49.7568
 31
0.0
  0
LINE
  8
0
 62
     0
 10
176.757
 20
49.7568
 30
0.0
 11
177.558
 21
49.7568
 31
0.0
  0
LINE
  8
0
 62
     0
 10
177.558
 20
49.7568
 30
0.0
 11
177.558
 21
48.7578
 31
0.0
  0
LINE
  8
0
 62
     0
 10
177.558
 20
48.7578
 30
0.0
 11
191.557
 21
48.7578
 31
0.0
  0
LINE
  8
0
 62
     0
 10
191.557
 20
48.7578
 30
0.0
 11
191.557
 21
49.7568
 31
0.0
  0
LINE
  8
0
 62
     0
 10
191.557
 20
49.7568
 30
0.0
 11
192.358
 21
49.7568
 31
0.0
  0
LINE
  8
0
 62
     0
 10
192.358
 20
49.7568
 30
0.0
 11
192.358
 21
52.8574
 31
0.0
  0
LINE
  8
0
 62
     0
 10
192.358
 20
52.8574
 30
0.0
 11
191.557
 21
52.8574
 31
0.0
  0
LINE
  8
0
 62
     0
 10
191.557
 20
52.8574
 30
0.0
 11
191.557
 21
58.6574
 31
0.0
  0
LINE
  8
0
 62
     0
 10
191.557
 20
58.6574
 30
0.0
 11
192.358
 21
58.6574
 31
0.0
  0
LINE
  8
0
 62
     0
 10
192.358
 20
58.6574
 30
0.0
 11
192.358
 21
61.7569
 31
0.0
  0
LINE
  8
0
 62
     0
 10
192.358
 20
61.7569
 30
0.0
 11
191.557
 21
61.7569
 31
0.0
  0
LINE
  8
0
 62
     0
 10
191.557
 20
61.7569
 30
0.0
 11
191.557
 21
62.7574
 31
0.0
  0
LINE
  8
0
 62
     0
 10
191.557
 20
62.7574
 30
0.0
 11
177.558
 21
62.7574
 31
0.0
  0
LINE
  8
0
 62
     0
 10
158.508
 20
62.7574
 30
0.0
 11
158.508
 21
61.7569
 31
0.0
  0
LINE
  8
0
 62
     0
 10
158.508
 20
61.7569
 30
0.0
 11
157.707
 21
61.7569
 31
0.0
  0
LINE
  8
0
 62
     0
 10
157.707
 20
61.7569
 30
0.0
 11
157.707
 21
58.6574
 31
0.0
  0
LINE
  8
0
 62
     0
 10
157.707
 20
58.6574
 30
0.0
 11
158.508
 21
58.6574
 31
0.0
  0
LINE
  8
0
 62
     0
 10
158.508
 20
58.6574
 30
0.0
 11
158.508
 21
52.8574
 31
0.0
  0
LINE
  8
0
 62
     0
 10
158.508
 20
52.8574
 30
0.0
 11
157.707
 21
52.8574
 31
0.0
  0
LINE
  8
0
 62
     0
 10
157.707
 20
52.8574
 30
0.0
 11
157.707
 21
49.7568
 31
0.0
  0
LINE
  8
0
 62
     0
 10
157.707
 20
49.7568
 30
0.0
 11
158.508
 21
49.7568
 31
0.0
  0
LINE
  8
0
 62
     0
 10
158.508
 20
49.7568
 30
0.0
 11
158.508
 21
48.7578
 31
0.0
  0
LINE
  8
0
 62
     0
 10
158.508
 20
48.7578
 30
0.0
 11
172.507
 21
48.7578
 31
0.0
  0
LINE
  8
0
 62
     0
 10
172.507
 20
48.7578
 30
0.0
 11
172.507
 21
49.7568
 31
0.0
  0
LINE
  8
0
 62
     0
 10
172.507
 20
49.7568
 30
0.0
 11
173.308
 21
49.7568
 31
0.0
  0
LINE
  8
0
 62
     0
 10
173.308
 20
49.7568
 30
0.0
 11
173.308
 21
52.8574
 31
0.0
  0
LINE
  8
0
 62
     0
 10
173.308
 20
52.8574
 30
0.0
 11
172.507
 21
52.8574
 31
0.0
  0
LINE
  8
0
 62
     0
 10
172.507
 20
52.8574
 30
0.0
 11
172.507
 21
58.6574
 31
0.0
  0
LINE
  8
0
 62
     0
 10
172.507
 20
58.6574
 30
0.0
 11
173.308
 21
58.6574
 31
0.0
  0
LINE
  8
0
 62
     0
 10
173.308
 20
58.6574
 30
0.0
 11
173.308
 21
61.7569
 31
0.0
  0
LINE
  8
0
 62
     0
 10
173.308
 20
61.7569
 30
0.0
 11
172.507
 21
61.7569
 31
0.0
  0
LINE
  8
0
 62
     0
 10
172.507
 20
61.7569
 30
0.0
 11
172.507
 21
62.7574
 31
0.0
  0
LINE
  8
0
 62
     0
 10
172.507
 20
62.7574
 30
0.0
 11
158.508
 21
62.7574
 31
0.0
  0
LINE
  8
0
 62
     0
 10
139.458
 20
62.7574
 30
0.0
 11
139.458
 21
61.7569
 31
0.0
  0
LINE
  8
0
 62
     0
 10
139.458
 20
61.7569
 30
0.0
 11
138.657
 21
61.7569
 31
0.0
  0
LINE
  8
0
 62
     0
 10
138.657
 20
61.7569
 30
0.0
 11
138.657
 21
58.6574
 31
0.0
  0
LINE
  8
0
 62
     0
 10
138.657
 20
58.6574
 30
0.0
 11
139.458
 21
58.6574
 31
0.0
  0
LINE
  8
0
 62
     0
 10
139.458
 20
58.6574
 30
0.0
 11
139.458
 21
52.8574
 31
0.0
  0
LINE
  8
0
 62
     0
 10
139.458
 20
52.8574
 30
0.0
 11
138.657
 21
52.8574
 31
0.0
  0
LINE
  8
0
 62
     0
 10
138.657
 20
52.8574
 30
0.0
 11
138.657
 21
49.7568
 31
0.0
  0
LINE
  8
0
 62
     0
 10
138.657
 20
49.7568
 30
0.0
 11
139.458
 21
49.7568
 31
0.0
  0
LINE
  8
0
 62
     0
 10
139.458
 20
49.7568
 30
0.0
 11
139.458
 21
48.7578
 31
0.0
  0
LINE
  8
0
 62
     0
 10
139.458
 20
48.7578
 30
0.0
 11
153.457
 21
48.7578
 31
0.0
  0
LINE
  8
0
 62
     0
 10
153.457
 20
48.7578
 30
0.0
 11
153.457
 21
49.7568
 31
0.0
  0
LINE
  8
0
 62
     0
 10
153.457
 20
49.7568
 30
0.0
 11
154.258
 21
49.7568
 31
0.0
  0
LINE
  8
0
 62
     0
 10
154.258
 20
49.7568
 30
0.0
 11
154.258
 21
52.8574
 31
0.0
  0
LINE
  8
0
 62
     0
 10
154.258
 20
52.8574
 30
0.0
 11
153.457
 21
52.8574
 31
0.0
  0
LINE
  8
0
 62
     0
 10
153.457
 20
52.8574
 30
0.0
 11
153.457
 21
58.6574
 31
0.0
  0
LINE
  8
0
 62
     0
 10
153.457
 20
58.6574
 30
0.0
 11
154.258
 21
58.6574
 31
0.0
  0
LINE
  8
0
 62
     0
 10
154.258
 20
58.6574
 30
0.0
 11
154.258
 21
61.7569
 31
0.0
  0
LINE
  8
0
 62
     0
 10
154.258
 20
61.7569
 30
0.0
 11
153.457
 21
61.7569
 31
0.0
  0
LINE
  8
0
 62
     0
 10
153.457
 20
61.7569
 30
0.0
 11
153.457
 21
62.7574
 31
0.0
  0
LINE
  8
0
 62
     0
 10
153.457
 20
62.7574
 30
0.0
 11
139.458
 21
62.7574
 31
0.0
  0
LINE
  8
0
 62
     0
 10
120.408
 20
62.7574
 30
0.0
 11
120.408
 21
61.7569
 31
0.0
  0
LINE
  8
0
 62
     0
 10
120.408
 20
61.7569
 30
0.0
 11
119.607
 21
61.7569
 31
0.0
  0
LINE
  8
0
 62
     0
 10
119.607
 20
61.7569
 30
0.0
 11
119.607
 21
58.6574
 31
0.0
  0
LINE
  8
0
 62
     0
 10
119.607
 20
58.6574
 30
0.0
 11
120.408
 21
58.6574
 31
0.0
  0
LINE
  8
0
 62
     0
 10
120.408
 20
58.6574
 30
0.0
 11
120.408
 21
52.8574
 31
0.0
  0
LINE
  8
0
 62
     0
 10
120.408
 20
52.8574
 30
0.0
 11
119.607
 21
52.8574
 31
0.0
  0
LINE
  8
0
 62
     0
 10
119.607
 20
52.8574
 30
0.0
 11
119.607
 21
49.7568
 31
0.0
  0
LINE
  8
0
 62
     0
 10
119.607
 20
49.7568
 30
0.0
 11
120.408
 21
49.7568
 31
0.0
  0
LINE
  8
0
 62
     0
 10
120.408
 20
49.7568
 30
0.0
 11
120.408
 21
48.7578
 31
0.0
  0
LINE
  8
0
 62
     0
 10
120.408
 20
48.7578
 30
0.0
 11
134.407
 21
48.7578
 31
0.0
  0
LINE
  8
0
 62
     0
 10
134.407
 20
48.7578
 30
0.0
 11
134.407
 21
49.7568
 31
0.0
  0
LINE
  8
0
 62
     0
 10
134.407
 20
49.7568
 30
0.0
 11
135.208
 21
49.7568
 31
0.0
  0
LINE
  8
0
 62
     0
 10
135.208
 20
49.7568
 30
0.0
 11
135.208
 21
52.8574
 31
0.0
  0
LINE
  8
0
 62
     0
 10
135.208
 20
52.8574
 30
0.0
 11
134.407
 21
52.8574
 31
0.0
  0
LINE
  8
0
 62
     0
 10
134.407
 20
52.8574
 30
0.0
 11
134.407
 21
58.6574
 31
0.0
  0
LINE
  8
0
 62
     0
 10
134.407
 20
58.6574
 30
0.0
 11
135.208
 21
58.6574
 31
0.0
  0
LINE
  8
0
 62
     0
 10
135.208
 20
58.6574
 30
0.0
 11
135.208
 21
61.7569
 31
0.0
  0
LINE
  8
0
 62
     0
 10
135.208
 20
61.7569
 30
0.0
 11
134.407
 21
61.7569
 31
0.0
  0
LINE
  8
0
 62
     0
 10
134.407
 20
61.7569
 30
0.0
 11
134.407
 21
62.7574
 31
0.0
  0
LINE
  8
0
 62
     0
 10
134.407
 20
62.7574
 30
0.0
 11
120.408
 21
62.7574
 31
0.0
  0
LINE
  8
0
 62
     0
 10
101.358
 20
62.7574
 30
0.0
 11
101.358
 21
61.7569
 31
0.0
  0
LINE
  8
0
 62
     0
 10
101.358
 20
61.7569
 30
0.0
 11
100.557
 21
61.7569
 31
0.0
  0
LINE
  8
0
 62
     0
 10
100.557
 20
61.7569
 30
0.0
 11
100.557
 21
58.6574
 31
0.0
  0
LINE
  8
0
 62
     0
 10
100.557
 20
58.6574
 30
0.0
 11
101.358
 21
58.6574
 31
0.0
  0
LINE
  8
0
 62
     0
 10
101.358
 20
58.6574
 30
0.0
 11
101.358
 21
52.8574
 31
0.0
  0
LINE
  8
0
 62
     0
 10
101.358
 20
52.8574
 30
0.0
 11
100.557
 21
52.8574
 31
0.0
  0
LINE
  8
0
 62
     0
 10
100.557
 20
52.8574
 30
0.0
 11
100.557
 21
49.7568
 31
0.0
  0
LINE
  8
0
 62
     0
 10
100.557
 20
49.7568
 30
0.0
 11
101.358
 21
49.7568
 31
0.0
  0
LINE
  8
0
 62
     0
 10
101.358
 20
49.7568
 30
0.0
 11
101.358
 21
48.7578
 31
0.0
  0
LINE
  8
0
 62
     0
 10
101.358
 20
48.7578
 30
0.0
 11
115.357
 21
48.7578
 31
0.0
  0
LINE
  8
0
 62
     0
 10
115.357
 20
48.7578
 30
0.0
 11
115.357
 21
49.7568
 31
0.0
  0
LINE
  8
0
 62
     0
 10
115.357
 20
49.7568
 30
0.0
 11
116.158
 21
49.7568
 31
0.0
  0
LINE
  8
0
 62
     0
 10
116.158
 20
49.7568
 30
0.0
 11
116.158
 21
52.8574
 31
0.0
  0
LINE
  8
0
 62
     0
 10
116.158
 20
52.8574
 30
0.0
 11
115.357
 21
52.8574
 31
0.0
  0
LINE
  8
0
 62
     0
 10
115.357
 20
52.8574
 30
0.0
 11
115.357
 21
58.6574
 31
0.0
  0
LINE
  8
0
 62
     0
 10
115.357
 20
58.6574
 30
0.0
 11
116.158
 21
58.6574
 31
0.0
  0
LINE
  8
0
 62
     0
 10
116.158
 20
58.6574
 30
0.0
 11
116.158
 21
61.7569
 31
0.0
  0
LINE
  8
0
 62
     0
 10
116.158
 20
61.7569
 30
0.0
 11
115.357
 21
61.7569
 31
0.0
  0
LINE
  8
0
 62
     0
 10
115.357
 20
61.7569
 30
0.0
 11
115.357
 21
62.7574
 31
0.0
  0
LINE
  8
0
 62
     0
 10
115.357
 20
62.7574
 30
0.0
 11
101.358
 21
62.7574
 31
0.0
  0
LINE
  8
0
 62
     0
 10
82.3076
 20
62.7574
 30
0.0
 11
82.3076
 21
61.7569
 31
0.0
  0
LINE
  8
0
 62
     0
 10
82.3076
 20
61.7569
 30
0.0
 11
81.5068
 21
61.7569
 31
0.0
  0
LINE
  8
0
 62
     0
 10
81.5068
 20
61.7569
 30
0.0
 11
81.5068
 21
58.6574
 31
0.0
  0
LINE
  8
0
 62
     0
 10
81.5068
 20
58.6574
 30
0.0
 11
82.3076
 21
58.6574
 31
0.0
  0
LINE
  8
0
 62
     0
 10
82.3076
 20
58.6574
 30
0.0
 11
82.3076
 21
52.8574
 31
0.0
  0
LINE
  8
0
 62
     0
 10
82.3076
 20
52.8574
 30
0.0
 11
81.5068
 21
52.8574
 31
0.0
  0
LINE
  8
0
 62
     0
 10
81.5068
 20
52.8574
 30
0.0
 11
81.5068
 21
49.7568
 31
0.0
  0
LINE
  8
0
 62
     0
 10
81.5068
 20
49.7568
 30
0.0
 11
82.3076
 21
49.7568
 31
0.0
  0
LINE
  8
0
 62
     0
 10
82.3076
 20
49.7568
 30
0.0
 11
82.3076
 21
48.7578
 31
0.0
  0
LINE
  8
0
 62
     0
 10
82.3076
 20
48.7578
 30
0.0
 11
96.3069
 21
48.7578
 31
0.0
  0
LINE
  8
0
 62
     0
 10
96.3069
 20
48.7578
 30
0.0
 11
96.3069
 21
49.7568
 31
0.0
  0
LINE
  8
0
 62
     0
 10
96.3069
 20
49.7568
 30
0.0
 11
97.1077
 21
49.7568
 31
0.0
  0
LINE
  8
0
 62
     0
 10
97.1077
 20
49.7568
 30
0.0
 11
97.1077
 21
52.8574
 31
0.0
  0
LINE
  8
0
 62
     0
 10
97.1077
 20
52.8574
 30
0.0
 11
96.3069
 21
52.8574
 31
0.0
  0
LINE
  8
0
 62
     0
 10
96.3069
 20
52.8574
 30
0.0
 11
96.3069
 21
58.6574
 31
0.0
  0
LINE
  8
0
 62
     0
 10
96.3069
 20
58.6574
 30
0.0
 11
97.1077
 21
58.6574
 31
0.0
  0
LINE
  8
0
 62
     0
 10
97.1077
 20
58.6574
 30
0.0
 11
97.1077
 21
61.7569
 31
0.0
  0
LINE
  8
0
 62
     0
 10
97.1077
 20
61.7569
 30
0.0
 11
96.3069
 21
61.7569
 31
0.0
  0
LINE
  8
0
 62
     0
 10
96.3069
 20
61.7569
 30
0.0
 11
96.3069
 21
62.7574
 31
0.0
  0
LINE
  8
0
 62
     0
 10
96.3069
 20
62.7574
 30
0.0
 11
82.3076
 21
62.7574
 31
0.0
  0
LINE
  8
0
 62
     0
 10
63.2576
 20
62.7574
 30
0.0
 11
63.2576
 21
61.7569
 31
0.0
  0
LINE
  8
0
 62
     0
 10
63.2576
 20
61.7569
 30
0.0
 11
62.4568
 21
61.7569
 31
0.0
  0
LINE
  8
0
 62
     0
 10
62.4568
 20
61.7569
 30
0.0
 11
62.4568
 21
58.6574
 31
0.0
  0
LINE
  8
0
 62
     0
 10
62.4568
 20
58.6574
 30
0.0
 11
63.2576
 21
58.6574
 31
0.0
  0
LINE
  8
0
 62
     0
 10
63.2576
 20
58.6574
 30
0.0
 11
63.2576
 21
52.8574
 31
0.0
  0
LINE
  8
0
 62
     0
 10
63.2576
 20
52.8574
 30
0.0
 11
62.4568
 21
52.8574
 31
0.0
  0
LINE
  8
0
 62
     0
 10
62.4568
 20
52.8574
 30
0.0
 11
62.4568
 21
49.7568
 31
0.0
  0
LINE
  8
0
 62
     0
 10
62.4568
 20
49.7568
 30
0.0
 11
63.2576
 21
49.7568
 31
0.0
  0
LINE
  8
0
 62
     0
 10
63.2576
 20
49.7568
 30
0.0
 11
63.2576
 21
48.7578
 31
0.0
  0
LINE
  8
0
 62
     0
 10
63.2576
 20
48.7578
 30
0.0
 11
77.2569
 21
48.7578
 31
0.0
  0
LINE
  8
0
 62
     0
 10
77.2569
 20
48.7578
 30
0.0
 11
77.2569
 21
49.7568
 31
0.0
  0
LINE
  8
0
 62
     0
 10
77.2569
 20
49.7568
 30
0.0
 11
78.0577
 21
49.7568
 31
0.0
  0
LINE
  8
0
 62
     0
 10
78.0577
 20
49.7568
 30
0.0
 11
78.0577
 21
52.8574
 31
0.0
  0
LINE
  8
0
 62
     0
 10
78.0577
 20
52.8574
 30
0.0
 11
77.2569
 21
52.8574
 31
0.0
  0
LINE
  8
0
 62
     0
 10
77.2569
 20
52.8574
 30
0.0
 11
77.2569
 21
58.6574
 31
0.0
  0
LINE
  8
0
 62
     0
 10
77.2569
 20
58.6574
 30
0.0
 11
78.0577
 21
58.6574
 31
0.0
  0
LINE
  8
0
 62
     0
 10
78.0577
 20
58.6574
 30
0.0
 11
78.0577
 21
61.7569
 31
0.0
  0
LINE
  8
0
 62
     0
 10
78.0577
 20
61.7569
 30
0.0
 11
77.2569
 21
61.7569
 31
0.0
  0
LINE
  8
0
 62
     0
 10
77.2569
 20
61.7569
 30
0.0
 11
77.2569
 21
62.7574
 31
0.0
  0
LINE
  8
0
 62
     0
 10
77.2569
 20
62.7574
 30
0.0
 11
63.2576
 21
62.7574
 31
0.0
  0
LINE
  8
0
 62
     0
 10
44.2076
 20
62.7574
 30
0.0
 11
44.2076
 21
61.7569
 31
0.0
  0
LINE
  8
0
 62
     0
 10
44.2076
 20
61.7569
 30
0.0
 11
43.4068
 21
61.7569
 31
0.0
  0
LINE
  8
0
 62
     0
 10
43.4068
 20
61.7569
 30
0.0
 11
43.4068
 21
58.6574
 31
0.0
  0
LINE
  8
0
 62
     0
 10
43.4068
 20
58.6574
 30
0.0
 11
44.2076
 21
58.6574
 31
0.0
  0
LINE
  8
0
 62
     0
 10
44.2076
 20
58.6574
 30
0.0
 11
44.2076
 21
52.8574
 31
0.0
  0
LINE
  8
0
 62
     0
 10
44.2076
 20
52.8574
 30
0.0
 11
43.4068
 21
52.8574
 31
0.0
  0
LINE
  8
0
 62
     0
 10
43.4068
 20
52.8574
 30
0.0
 11
43.4068
 21
49.7568
 31
0.0
  0
LINE
  8
0
 62
     0
 10
43.4068
 20
49.7568
 30
0.0
 11
44.2076
 21
49.7568
 31
0.0
  0
LINE
  8
0
 62
     0
 10
44.2076
 20
49.7568
 30
0.0
 11
44.2076
 21
48.7578
 31
0.0
  0
LINE
  8
0
 62
     0
 10
44.2076
 20
48.7578
 30
0.0
 11
58.2069
 21
48.7578
 31
0.0
  0
LINE
  8
0
 62
     0
 10
58.2069
 20
48.7578
 30
0.0
 11
58.2069
 21
49.7568
 31
0.0
  0
LINE
  8
0
 62
     0
 10
58.2069
 20
49.7568
 30
0.0
 11
59.0077
 21
49.7568
 31
0.0
  0
LINE
  8
0
 62
     0
 10
59.0077
 20
49.7568
 30
0.0
 11
59.0077
 21
52.8574
 31
0.0
  0
LINE
  8
0
 62
     0
 10
59.0077
 20
52.8574
 30
0.0
 11
58.2069
 21
52.8574
 31
0.0
  0
LINE
  8
0
 62
     0
 10
58.2069
 20
52.8574
 30
0.0
 11
58.2069
 21
58.6574
 31
0.0
  0
LINE
  8
0
 62
     0
 10
58.2069
 20
58.6574
 30
0.0
 11
59.0077
 21
58.6574
 31
0.0
  0
LINE
  8
0
 62
     0
 10
59.0077
 20
58.6574
 30
0.0
 11
59.0077
 21
61.7569
 31
0.0
  0
LINE
  8
0
 62
     0
 10
59.0077
 20
61.7569
 30
0.0
 11
58.2069
 21
61.7569
 31
0.0
  0
LINE
  8
0
 62
     0
 10
58.2069
 20
61.7569
 30
0.0
 11
58.2069
 21
62.7574
 31
0.0
  0
LINE
  8
0
 62
     0
 10
58.2069
 20
62.7574
 30
0.0
 11
44.2076
 21
62.7574
 31
0.0
  0
LINE
  8
0
 62
     0
 10
18.0137
 20
62.7574
 30
0.0
 11
18.0137
 21
61.7569
 31
0.0
  0
LINE
  8
0
 62
     0
 10
18.0137
 20
61.7569
 30
0.0
 11
17.2131
 21
61.7569
 31
0.0
  0
LINE
  8
0
 62
     0
 10
17.2131
 20
61.7569
 30
0.0
 11
17.2131
 21
58.6574
 31
0.0
  0
LINE
  8
0
 62
     0
 10
17.2131
 20
58.6574
 30
0.0
 11
18.0137
 21
58.6574
 31
0.0
  0
LINE
  8
0
 62
     0
 10
18.0137
 20
58.6574
 30
0.0
 11
18.0137
 21
52.8574
 31
0.0
  0
LINE
  8
0
 62
     0
 10
18.0137
 20
52.8574
 30
0.0
 11
17.2131
 21
52.8574
 31
0.0
  0
LINE
  8
0
 62
     0
 10
17.2131
 20
52.8574
 30
0.0
 11
17.2131
 21
49.7568
 31
0.0
  0
LINE
  8
0
 62
     0
 10
17.2131
 20
49.7568
 30
0.0
 11
18.0137
 21
49.7568
 31
0.0
  0
LINE
  8
0
 62
     0
 10
18.0137
 20
49.7568
 30
0.0
 11
18.0137
 21
48.7578
 31
0.0
  0
LINE
  8
0
 62
     0
 10
18.0137
 20
48.7578
 30
0.0
 11
32.0132
 21
48.7578
 31
0.0
  0
LINE
  8
0
 62
     0
 10
32.0132
 20
48.7578
 30
0.0
 11
32.0132
 21
49.7568
 31
0.0
  0
LINE
  8
0
 62
     0
 10
32.0132
 20
49.7568
 30
0.0
 11
32.8138
 21
49.7568
 31
0.0
  0
LINE
  8
0
 62
     0
 10
32.8138
 20
49.7568
 30
0.0
 11
32.8138
 21
52.8574
 31
0.0
  0
LINE
  8
0
 62
     0
 10
32.8138
 20
52.8574
 30
0.0
 11
32.0132
 21
52.8574
 31
0.0
  0
LINE
  8
0
 62
     0
 10
32.0132
 20
52.8574
 30
0.0
 11
32.0132
 21
58.6574
 31
0.0
  0
LINE
  8
0
 62
     0
 10
32.0132
 20
58.6574
 30
0.0
 11
32.8138
 21
58.6574
 31
0.0
  0
LINE
  8
0
 62
     0
 10
32.8138
 20
58.6574
 30
0.0
 11
32.8138
 21
61.7569
 31
0.0
  0
LINE
  8
0
 62
     0
 10
32.8138
 20
61.7569
 30
0.0
 11
32.0132
 21
61.7569
 31
0.0
  0
LINE
  8
0
 62
     0
 10
32.0132
 20
61.7569
 30
0.0
 11
32.0132
 21
62.7574
 31
0.0
  0
LINE
  8
0
 62
     0
 10
32.0132
 20
62.7574
 30
0.0
 11
18.0137
 21
62.7574
 31
0.0
  0
LINE
  8
0
 62
     0
 10
296.62
 20
81.8074
 30
0.0
 11
296.62
 21
80.8069
 31
0.0
  0
LINE
  8
0
 62
     0
 10
296.62
 20
80.8069
 30
0.0
 11
295.821
 21
80.8069
 31
0.0
  0
LINE
  8
0
 62
     0
 10
295.821
 20
80.8069
 30
0.0
 11
295.821
 21
77.7074
 31
0.0
  0
LINE
  8
0
 62
     0
 10
295.821
 20
77.7074
 30
0.0
 11
296.62
 21
77.7074
 31
0.0
  0
LINE
  8
0
 62
     0
 10
296.62
 20
77.7074
 30
0.0
 11
296.62
 21
71.9074
 31
0.0
  0
LINE
  8
0
 62
     0
 10
296.62
 20
71.9074
 30
0.0
 11
295.821
 21
71.9074
 31
0.0
  0
LINE
  8
0
 62
     0
 10
295.821
 20
71.9074
 30
0.0
 11
295.821
 21
68.8068
 31
0.0
  0
LINE
  8
0
 62
     0
 10
295.821
 20
68.8068
 30
0.0
 11
296.62
 21
68.8068
 31
0.0
  0
LINE
  8
0
 62
     0
 10
296.62
 20
68.8068
 30
0.0
 11
296.62
 21
67.8078
 31
0.0
  0
LINE
  8
0
 62
     0
 10
296.62
 20
67.8078
 30
0.0
 11
310.621
 21
67.8078
 31
0.0
  0
LINE
  8
0
 62
     0
 10
310.621
 20
67.8078
 30
0.0
 11
310.621
 21
68.8068
 31
0.0
  0
LINE
  8
0
 62
     0
 10
310.621
 20
68.8068
 30
0.0
 11
311.42
 21
68.8068
 31
0.0
  0
LINE
  8
0
 62
     0
 10
311.42
 20
68.8068
 30
0.0
 11
311.42
 21
71.9074
 31
0.0
  0
LINE
  8
0
 62
     0
 10
311.42
 20
71.9074
 30
0.0
 11
310.621
 21
71.9074
 31
0.0
  0
LINE
  8
0
 62
     0
 10
310.621
 20
71.9074
 30
0.0
 11
310.621
 21
77.7074
 31
0.0
  0
LINE
  8
0
 62
     0
 10
310.621
 20
77.7074
 30
0.0
 11
311.42
 21
77.7074
 31
0.0
  0
LINE
  8
0
 62
     0
 10
311.42
 20
77.7074
 30
0.0
 11
311.42
 21
80.8069
 31
0.0
  0
LINE
  8
0
 62
     0
 10
311.42
 20
80.8069
 30
0.0
 11
310.621
 21
80.8069
 31
0.0
  0
LINE
  8
0
 62
     0
 10
310.621
 20
80.8069
 30
0.0
 11
310.621
 21
81.8074
 31
0.0
  0
LINE
  8
0
 62
     0
 10
310.621
 20
81.8074
 30
0.0
 11
296.62
 21
81.8074
 31
0.0
  0
LINE
  8
0
 62
     0
 10
272.808
 20
81.8074
 30
0.0
 11
272.808
 21
80.8069
 31
0.0
  0
LINE
  8
0
 62
     0
 10
272.808
 20
80.8069
 30
0.0
 11
272.007
 21
80.8069
 31
0.0
  0
LINE
  8
0
 62
     0
 10
272.007
 20
80.8069
 30
0.0
 11
272.007
 21
77.7074
 31
0.0
  0
LINE
  8
0
 62
     0
 10
272.007
 20
77.7074
 30
0.0
 11
272.808
 21
77.7074
 31
0.0
  0
LINE
  8
0
 62
     0
 10
272.808
 20
77.7074
 30
0.0
 11
272.808
 21
71.9074
 31
0.0
  0
LINE
  8
0
 62
     0
 10
272.808
 20
71.9074
 30
0.0
 11
272.007
 21
71.9074
 31
0.0
  0
LINE
  8
0
 62
     0
 10
272.007
 20
71.9074
 30
0.0
 11
272.007
 21
68.8068
 31
0.0
  0
LINE
  8
0
 62
     0
 10
272.007
 20
68.8068
 30
0.0
 11
272.808
 21
68.8068
 31
0.0
  0
LINE
  8
0
 62
     0
 10
272.808
 20
68.8068
 30
0.0
 11
272.808
 21
67.8078
 31
0.0
  0
LINE
  8
0
 62
     0
 10
272.808
 20
67.8078
 30
0.0
 11
286.807
 21
67.8078
 31
0.0
  0
LINE
  8
0
 62
     0
 10
286.807
 20
67.8078
 30
0.0
 11
286.807
 21
68.8068
 31
0.0
  0
LINE
  8
0
 62
     0
 10
286.807
 20
68.8068
 30
0.0
 11
287.608
 21
68.8068
 31
0.0
  0
LINE
  8
0
 62
     0
 10
287.608
 20
68.8068
 30
0.0
 11
287.608
 21
71.9074
 31
0.0
  0
LINE
  8
0
 62
     0
 10
287.608
 20
71.9074
 30
0.0
 11
286.807
 21
71.9074
 31
0.0
  0
LINE
  8
0
 62
     0
 10
286.807
 20
71.9074
 30
0.0
 11
286.807
 21
77.7074
 31
0.0
  0
LINE
  8
0
 62
     0
 10
286.807
 20
77.7074
 30
0.0
 11
287.608
 21
77.7074
 31
0.0
  0
LINE
  8
0
 62
     0
 10
287.608
 20
77.7074
 30
0.0
 11
287.608
 21
80.8069
 31
0.0
  0
LINE
  8
0
 62
     0
 10
287.608
 20
80.8069
 30
0.0
 11
286.807
 21
80.8069
 31
0.0
  0
LINE
  8
0
 62
     0
 10
286.807
 20
80.8069
 30
0.0
 11
286.807
 21
81.8074
 31
0.0
  0
LINE
  8
0
 62
     0
 10
286.807
 20
81.8074
 30
0.0
 11
272.808
 21
81.8074
 31
0.0
  0
LINE
  8
0
 62
     0
 10
248.995
 20
81.8074
 30
0.0
 11
248.995
 21
80.8069
 31
0.0
  0
LINE
  8
0
 62
     0
 10
248.995
 20
80.8069
 30
0.0
 11
248.196
 21
80.8069
 31
0.0
  0
LINE
  8
0
 62
     0
 10
248.196
 20
80.8069
 30
0.0
 11
248.196
 21
77.7074
 31
0.0
  0
LINE
  8
0
 62
     0
 10
248.196
 20
77.7074
 30
0.0
 11
248.995
 21
77.7074
 31
0.0
  0
LINE
  8
0
 62
     0
 10
248.995
 20
77.7074
 30
0.0
 11
248.995
 21
71.9074
 31
0.0
  0
LINE
  8
0
 62
     0
 10
248.995
 20
71.9074
 30
0.0
 11
248.196
 21
71.9074
 31
0.0
  0
LINE
  8
0
 62
     0
 10
248.196
 20
71.9074
 30
0.0
 11
248.196
 21
68.8068
 31
0.0
  0
LINE
  8
0
 62
     0
 10
248.196
 20
68.8068
 30
0.0
 11
248.995
 21
68.8068
 31
0.0
  0
LINE
  8
0
 62
     0
 10
248.995
 20
68.8068
 30
0.0
 11
248.995
 21
67.8078
 31
0.0
  0
LINE
  8
0
 62
     0
 10
248.995
 20
67.8078
 30
0.0
 11
262.996
 21
67.8078
 31
0.0
  0
LINE
  8
0
 62
     0
 10
262.996
 20
67.8078
 30
0.0
 11
262.996
 21
68.8068
 31
0.0
  0
LINE
  8
0
 62
     0
 10
262.996
 20
68.8068
 30
0.0
 11
263.795
 21
68.8068
 31
0.0
  0
LINE
  8
0
 62
     0
 10
263.795
 20
68.8068
 30
0.0
 11
263.795
 21
71.9074
 31
0.0
  0
LINE
  8
0
 62
     0
 10
263.795
 20
71.9074
 30
0.0
 11
262.996
 21
71.9074
 31
0.0
  0
LINE
  8
0
 62
     0
 10
262.996
 20
71.9074
 30
0.0
 11
262.996
 21
77.7074
 31
0.0
  0
LINE
  8
0
 62
     0
 10
262.996
 20
77.7074
 30
0.0
 11
263.795
 21
77.7074
 31
0.0
  0
LINE
  8
0
 62
     0
 10
263.795
 20
77.7074
 30
0.0
 11
263.795
 21
80.8069
 31
0.0
  0
LINE
  8
0
 62
     0
 10
263.795
 20
80.8069
 30
0.0
 11
262.996
 21
80.8069
 31
0.0
  0
LINE
  8
0
 62
     0
 10
262.996
 20
80.8069
 30
0.0
 11
262.996
 21
81.8074
 31
0.0
  0
LINE
  8
0
 62
     0
 10
262.996
 20
81.8074
 30
0.0
 11
248.995
 21
81.8074
 31
0.0
  0
LINE
  8
0
 62
     0
 10
229.945
 20
81.8074
 30
0.0
 11
229.945
 21
80.8069
 31
0.0
  0
LINE
  8
0
 62
     0
 10
229.945
 20
80.8069
 30
0.0
 11
229.146
 21
80.8069
 31
0.0
  0
LINE
  8
0
 62
     0
 10
229.146
 20
80.8069
 30
0.0
 11
229.146
 21
77.7074
 31
0.0
  0
LINE
  8
0
 62
     0
 10
229.146
 20
77.7074
 30
0.0
 11
229.945
 21
77.7074
 31
0.0
  0
LINE
  8
0
 62
     0
 10
229.945
 20
77.7074
 30
0.0
 11
229.945
 21
71.9074
 31
0.0
  0
LINE
  8
0
 62
     0
 10
229.945
 20
71.9074
 30
0.0
 11
229.146
 21
71.9074
 31
0.0
  0
LINE
  8
0
 62
     0
 10
229.146
 20
71.9074
 30
0.0
 11
229.146
 21
68.8068
 31
0.0
  0
LINE
  8
0
 62
     0
 10
229.146
 20
68.8068
 30
0.0
 11
229.945
 21
68.8068
 31
0.0
  0
LINE
  8
0
 62
     0
 10
229.945
 20
68.8068
 30
0.0
 11
229.945
 21
67.8078
 31
0.0
  0
LINE
  8
0
 62
     0
 10
229.945
 20
67.8078
 30
0.0
 11
243.946
 21
67.8078
 31
0.0
  0
LINE
  8
0
 62
     0
 10
243.946
 20
67.8078
 30
0.0
 11
243.946
 21
68.8068
 31
0.0
  0
LINE
  8
0
 62
     0
 10
243.946
 20
68.8068
 30
0.0
 11
244.745
 21
68.8068
 31
0.0
  0
LINE
  8
0
 62
     0
 10
244.745
 20
68.8068
 30
0.0
 11
244.745
 21
71.9074
 31
0.0
  0
LINE
  8
0
 62
     0
 10
244.745
 20
71.9074
 30
0.0
 11
243.946
 21
71.9074
 31
0.0
  0
LINE
  8
0
 62
     0
 10
243.946
 20
71.9074
 30
0.0
 11
243.946
 21
77.7074
 31
0.0
  0
LINE
  8
0
 62
     0
 10
243.946
 20
77.7074
 30
0.0
 11
244.745
 21
77.7074
 31
0.0
  0
LINE
  8
0
 62
     0
 10
244.745
 20
77.7074
 30
0.0
 11
244.745
 21
80.8069
 31
0.0
  0
LINE
  8
0
 62
     0
 10
244.745
 20
80.8069
 30
0.0
 11
243.946
 21
80.8069
 31
0.0
  0
LINE
  8
0
 62
     0
 10
243.946
 20
80.8069
 30
0.0
 11
243.946
 21
81.8074
 31
0.0
  0
LINE
  8
0
 62
     0
 10
243.946
 20
81.8074
 30
0.0
 11
229.945
 21
81.8074
 31
0.0
  0
LINE
  8
0
 62
     0
 10
210.895
 20
81.8074
 30
0.0
 11
210.895
 21
80.8069
 31
0.0
  0
LINE
  8
0
 62
     0
 10
210.895
 20
80.8069
 30
0.0
 11
210.096
 21
80.8069
 31
0.0
  0
LINE
  8
0
 62
     0
 10
210.096
 20
80.8069
 30
0.0
 11
210.096
 21
77.7074
 31
0.0
  0
LINE
  8
0
 62
     0
 10
210.096
 20
77.7074
 30
0.0
 11
210.895
 21
77.7074
 31
0.0
  0
LINE
  8
0
 62
     0
 10
210.895
 20
77.7074
 30
0.0
 11
210.895
 21
71.9074
 31
0.0
  0
LINE
  8
0
 62
     0
 10
210.895
 20
71.9074
 30
0.0
 11
210.096
 21
71.9074
 31
0.0
  0
LINE
  8
0
 62
     0
 10
210.096
 20
71.9074
 30
0.0
 11
210.096
 21
68.8068
 31
0.0
  0
LINE
  8
0
 62
     0
 10
210.096
 20
68.8068
 30
0.0
 11
210.895
 21
68.8068
 31
0.0
  0
LINE
  8
0
 62
     0
 10
210.895
 20
68.8068
 30
0.0
 11
210.895
 21
67.8078
 31
0.0
  0
LINE
  8
0
 62
     0
 10
210.895
 20
67.8078
 30
0.0
 11
224.896
 21
67.8078
 31
0.0
  0
LINE
  8
0
 62
     0
 10
224.896
 20
67.8078
 30
0.0
 11
224.896
 21
68.8068
 31
0.0
  0
LINE
  8
0
 62
     0
 10
224.896
 20
68.8068
 30
0.0
 11
225.695
 21
68.8068
 31
0.0
  0
LINE
  8
0
 62
     0
 10
225.695
 20
68.8068
 30
0.0
 11
225.695
 21
71.9074
 31
0.0
  0
LINE
  8
0
 62
     0
 10
225.695
 20
71.9074
 30
0.0
 11
224.896
 21
71.9074
 31
0.0
  0
LINE
  8
0
 62
     0
 10
224.896
 20
71.9074
 30
0.0
 11
224.896
 21
77.7074
 31
0.0
  0
LINE
  8
0
 62
     0
 10
224.896
 20
77.7074
 30
0.0
 11
225.695
 21
77.7074
 31
0.0
  0
LINE
  8
0
 62
     0
 10
225.695
 20
77.7074
 30
0.0
 11
225.695
 21
80.8069
 31
0.0
  0
LINE
  8
0
 62
     0
 10
225.695
 20
80.8069
 30
0.0
 11
224.896
 21
80.8069
 31
0.0
  0
LINE
  8
0
 62
     0
 10
224.896
 20
80.8069
 30
0.0
 11
224.896
 21
81.8074
 31
0.0
  0
LINE
  8
0
 62
     0
 10
224.896
 20
81.8074
 30
0.0
 11
210.895
 21
81.8074
 31
0.0
  0
LINE
  8
0
 62
     0
 10
191.845
 20
81.8074
 30
0.0
 11
191.845
 21
80.8069
 31
0.0
  0
LINE
  8
0
 62
     0
 10
191.845
 20
80.8069
 30
0.0
 11
191.046
 21
80.8069
 31
0.0
  0
LINE
  8
0
 62
     0
 10
191.046
 20
80.8069
 30
0.0
 11
191.046
 21
77.7074
 31
0.0
  0
LINE
  8
0
 62
     0
 10
191.046
 20
77.7074
 30
0.0
 11
191.845
 21
77.7074
 31
0.0
  0
LINE
  8
0
 62
     0
 10
191.845
 20
77.7074
 30
0.0
 11
191.845
 21
71.9074
 31
0.0
  0
LINE
  8
0
 62
     0
 10
191.845
 20
71.9074
 30
0.0
 11
191.046
 21
71.9074
 31
0.0
  0
LINE
  8
0
 62
     0
 10
191.046
 20
71.9074
 30
0.0
 11
191.046
 21
68.8068
 31
0.0
  0
LINE
  8
0
 62
     0
 10
191.046
 20
68.8068
 30
0.0
 11
191.845
 21
68.8068
 31
0.0
  0
LINE
  8
0
 62
     0
 10
191.845
 20
68.8068
 30
0.0
 11
191.845
 21
67.8078
 31
0.0
  0
LINE
  8
0
 62
     0
 10
191.845
 20
67.8078
 30
0.0
 11
205.846
 21
67.8078
 31
0.0
  0
LINE
  8
0
 62
     0
 10
205.846
 20
67.8078
 30
0.0
 11
205.846
 21
68.8068
 31
0.0
  0
LINE
  8
0
 62
     0
 10
205.846
 20
68.8068
 30
0.0
 11
206.645
 21
68.8068
 31
0.0
  0
LINE
  8
0
 62
     0
 10
206.645
 20
68.8068
 30
0.0
 11
206.645
 21
71.9074
 31
0.0
  0
LINE
  8
0
 62
     0
 10
206.645
 20
71.9074
 30
0.0
 11
205.846
 21
71.9074
 31
0.0
  0
LINE
  8
0
 62
     0
 10
205.846
 20
71.9074
 30
0.0
 11
205.846
 21
77.7074
 31
0.0
  0
LINE
  8
0
 62
     0
 10
205.846
 20
77.7074
 30
0.0
 11
206.645
 21
77.7074
 31
0.0
  0
LINE
  8
0
 62
     0
 10
206.645
 20
77.7074
 30
0.0
 11
206.645
 21
80.8069
 31
0.0
  0
LINE
  8
0
 62
     0
 10
206.645
 20
80.8069
 30
0.0
 11
205.846
 21
80.8069
 31
0.0
  0
LINE
  8
0
 62
     0
 10
205.846
 20
80.8069
 30
0.0
 11
205.846
 21
81.8074
 31
0.0
  0
LINE
  8
0
 62
     0
 10
205.846
 20
81.8074
 30
0.0
 11
191.845
 21
81.8074
 31
0.0
  0
LINE
  8
0
 62
     0
 10
172.795
 20
81.8074
 30
0.0
 11
172.795
 21
80.8069
 31
0.0
  0
LINE
  8
0
 62
     0
 10
172.795
 20
80.8069
 30
0.0
 11
171.996
 21
80.8069
 31
0.0
  0
LINE
  8
0
 62
     0
 10
171.996
 20
80.8069
 30
0.0
 11
171.996
 21
77.7074
 31
0.0
  0
LINE
  8
0
 62
     0
 10
171.996
 20
77.7074
 30
0.0
 11
172.795
 21
77.7074
 31
0.0
  0
LINE
  8
0
 62
     0
 10
172.795
 20
77.7074
 30
0.0
 11
172.795
 21
71.9074
 31
0.0
  0
LINE
  8
0
 62
     0
 10
172.795
 20
71.9074
 30
0.0
 11
171.996
 21
71.9074
 31
0.0
  0
LINE
  8
0
 62
     0
 10
171.996
 20
71.9074
 30
0.0
 11
171.996
 21
68.8068
 31
0.0
  0
LINE
  8
0
 62
     0
 10
171.996
 20
68.8068
 30
0.0
 11
172.795
 21
68.8068
 31
0.0
  0
LINE
  8
0
 62
     0
 10
172.795
 20
68.8068
 30
0.0
 11
172.795
 21
67.8078
 31
0.0
  0
LINE
  8
0
 62
     0
 10
172.795
 20
67.8078
 30
0.0
 11
186.796
 21
67.8078
 31
0.0
  0
LINE
  8
0
 62
     0
 10
186.796
 20
67.8078
 30
0.0
 11
186.796
 21
68.8068
 31
0.0
  0
LINE
  8
0
 62
     0
 10
186.796
 20
68.8068
 30
0.0
 11
187.595
 21
68.8068
 31
0.0
  0
LINE
  8
0
 62
     0
 10
187.595
 20
68.8068
 30
0.0
 11
187.595
 21
71.9074
 31
0.0
  0
LINE
  8
0
 62
     0
 10
187.595
 20
71.9074
 30
0.0
 11
186.796
 21
71.9074
 31
0.0
  0
LINE
  8
0
 62
     0
 10
186.796
 20
71.9074
 30
0.0
 11
186.796
 21
77.7074
 31
0.0
  0
LINE
  8
0
 62
     0
 10
186.796
 20
77.7074
 30
0.0
 11
187.595
 21
77.7074
 31
0.0
  0
LINE
  8
0
 62
     0
 10
187.595
 20
77.7074
 30
0.0
 11
187.595
 21
80.8069
 31
0.0
  0
LINE
  8
0
 62
     0
 10
187.595
 20
80.8069
 30
0.0
 11
186.796
 21
80.8069
 31
0.0
  0
LINE
  8
0
 62
     0
 10
186.796
 20
80.8069
 30
0.0
 11
186.796
 21
81.8074
 31
0.0
  0
LINE
  8
0
 62
     0
 10
186.796
 20
81.8074
 30
0.0
 11
172.795
 21
81.8074
 31
0.0
  0
LINE
  8
0
 62
     0
 10
153.745
 20
81.8074
 30
0.0
 11
153.745
 21
80.8069
 31
0.0
  0
LINE
  8
0
 62
     0
 10
153.745
 20
80.8069
 30
0.0
 11
152.946
 21
80.8069
 31
0.0
  0
LINE
  8
0
 62
     0
 10
152.946
 20
80.8069
 30
0.0
 11
152.946
 21
77.7074
 31
0.0
  0
LINE
  8
0
 62
     0
 10
152.946
 20
77.7074
 30
0.0
 11
153.745
 21
77.7074
 31
0.0
  0
LINE
  8
0
 62
     0
 10
153.745
 20
77.7074
 30
0.0
 11
153.745
 21
71.9074
 31
0.0
  0
LINE
  8
0
 62
     0
 10
153.745
 20
71.9074
 30
0.0
 11
152.946
 21
71.9074
 31
0.0
  0
LINE
  8
0
 62
     0
 10
152.946
 20
71.9074
 30
0.0
 11
152.946
 21
68.8068
 31
0.0
  0
LINE
  8
0
 62
     0
 10
152.946
 20
68.8068
 30
0.0
 11
153.745
 21
68.8068
 31
0.0
  0
LINE
  8
0
 62
     0
 10
153.745
 20
68.8068
 30
0.0
 11
153.745
 21
67.8078
 31
0.0
  0
LINE
  8
0
 62
     0
 10
153.745
 20
67.8078
 30
0.0
 11
167.746
 21
67.8078
 31
0.0
  0
LINE
  8
0
 62
     0
 10
167.746
 20
67.8078
 30
0.0
 11
167.746
 21
68.8068
 31
0.0
  0
LINE
  8
0
 62
     0
 10
167.746
 20
68.8068
 30
0.0
 11
168.545
 21
68.8068
 31
0.0
  0
LINE
  8
0
 62
     0
 10
168.545
 20
68.8068
 30
0.0
 11
168.545
 21
71.9074
 31
0.0
  0
LINE
  8
0
 62
     0
 10
168.545
 20
71.9074
 30
0.0
 11
167.746
 21
71.9074
 31
0.0
  0
LINE
  8
0
 62
     0
 10
167.746
 20
71.9074
 30
0.0
 11
167.746
 21
77.7074
 31
0.0
  0
LINE
  8
0
 62
     0
 10
167.746
 20
77.7074
 30
0.0
 11
168.545
 21
77.7074
 31
0.0
  0
LINE
  8
0
 62
     0
 10
168.545
 20
77.7074
 30
0.0
 11
168.545
 21
80.8069
 31
0.0
  0
LINE
  8
0
 62
     0
 10
168.545
 20
80.8069
 30
0.0
 11
167.746
 21
80.8069
 31
0.0
  0
LINE
  8
0
 62
     0
 10
167.746
 20
80.8069
 30
0.0
 11
167.746
 21
81.8074
 31
0.0
  0
LINE
  8
0
 62
     0
 10
167.746
 20
81.8074
 30
0.0
 11
153.745
 21
81.8074
 31
0.0
  0
LINE
  8
0
 62
     0
 10
134.695
 20
81.8074
 30
0.0
 11
134.695
 21
80.8069
 31
0.0
  0
LINE
  8
0
 62
     0
 10
134.695
 20
80.8069
 30
0.0
 11
133.894
 21
80.8069
 31
0.0
  0
LINE
  8
0
 62
     0
 10
133.894
 20
80.8069
 30
0.0
 11
133.894
 21
77.7074
 31
0.0
  0
LINE
  8
0
 62
     0
 10
133.894
 20
77.7074
 30
0.0
 11
134.695
 21
77.7074
 31
0.0
  0
LINE
  8
0
 62
     0
 10
134.695
 20
77.7074
 30
0.0
 11
134.695
 21
71.9074
 31
0.0
  0
LINE
  8
0
 62
     0
 10
134.695
 20
71.9074
 30
0.0
 11
133.894
 21
71.9074
 31
0.0
  0
LINE
  8
0
 62
     0
 10
133.894
 20
71.9074
 30
0.0
 11
133.894
 21
68.8068
 31
0.0
  0
LINE
  8
0
 62
     0
 10
133.894
 20
68.8068
 30
0.0
 11
134.695
 21
68.8068
 31
0.0
  0
LINE
  8
0
 62
     0
 10
134.695
 20
68.8068
 30
0.0
 11
134.695
 21
67.8078
 31
0.0
  0
LINE
  8
0
 62
     0
 10
134.695
 20
67.8078
 30
0.0
 11
148.696
 21
67.8078
 31
0.0
  0
LINE
  8
0
 62
     0
 10
148.696
 20
67.8078
 30
0.0
 11
148.696
 21
68.8068
 31
0.0
  0
LINE
  8
0
 62
     0
 10
148.696
 20
68.8068
 30
0.0
 11
149.495
 21
68.8068
 31
0.0
  0
LINE
  8
0
 62
     0
 10
149.495
 20
68.8068
 30
0.0
 11
149.495
 21
71.9074
 31
0.0
  0
LINE
  8
0
 62
     0
 10
149.495
 20
71.9074
 30
0.0
 11
148.696
 21
71.9074
 31
0.0
  0
LINE
  8
0
 62
     0
 10
148.696
 20
71.9074
 30
0.0
 11
148.696
 21
77.7074
 31
0.0
  0
LINE
  8
0
 62
     0
 10
148.696
 20
77.7074
 30
0.0
 11
149.495
 21
77.7074
 31
0.0
  0
LINE
  8
0
 62
     0
 10
149.495
 20
77.7074
 30
0.0
 11
149.495
 21
80.8069
 31
0.0
  0
LINE
  8
0
 62
     0
 10
149.495
 20
80.8069
 30
0.0
 11
148.696
 21
80.8069
 31
0.0
  0
LINE
  8
0
 62
     0
 10
148.696
 20
80.8069
 30
0.0
 11
148.696
 21
81.8074
 31
0.0
  0
LINE
  8
0
 62
     0
 10
148.696
 20
81.8074
 30
0.0
 11
134.695
 21
81.8074
 31
0.0
  0
LINE
  8
0
 62
     0
 10
115.645
 20
81.8074
 30
0.0
 11
115.645
 21
80.8069
 31
0.0
  0
LINE
  8
0
 62
     0
 10
115.645
 20
80.8069
 30
0.0
 11
114.846
 21
80.8069
 31
0.0
  0
LINE
  8
0
 62
     0
 10
114.846
 20
80.8069
 30
0.0
 11
114.846
 21
77.7074
 31
0.0
  0
LINE
  8
0
 62
     0
 10
114.846
 20
77.7074
 30
0.0
 11
115.645
 21
77.7074
 31
0.0
  0
LINE
  8
0
 62
     0
 10
115.645
 20
77.7074
 30
0.0
 11
115.645
 21
71.9074
 31
0.0
  0
LINE
  8
0
 62
     0
 10
115.645
 20
71.9074
 30
0.0
 11
114.846
 21
71.9074
 31
0.0
  0
LINE
  8
0
 62
     0
 10
114.846
 20
71.9074
 30
0.0
 11
114.846
 21
68.8068
 31
0.0
  0
LINE
  8
0
 62
     0
 10
114.846
 20
68.8068
 30
0.0
 11
115.645
 21
68.8068
 31
0.0
  0
LINE
  8
0
 62
     0
 10
115.645
 20
68.8068
 30
0.0
 11
115.645
 21
67.8078
 31
0.0
  0
LINE
  8
0
 62
     0
 10
115.645
 20
67.8078
 30
0.0
 11
129.646
 21
67.8078
 31
0.0
  0
LINE
  8
0
 62
     0
 10
129.646
 20
67.8078
 30
0.0
 11
129.646
 21
68.8068
 31
0.0
  0
LINE
  8
0
 62
     0
 10
129.646
 20
68.8068
 30
0.0
 11
130.445
 21
68.8068
 31
0.0
  0
LINE
  8
0
 62
     0
 10
130.445
 20
68.8068
 30
0.0
 11
130.445
 21
71.9074
 31
0.0
  0
LINE
  8
0
 62
     0
 10
130.445
 20
71.9074
 30
0.0
 11
129.646
 21
71.9074
 31
0.0
  0
LINE
  8
0
 62
     0
 10
129.646
 20
71.9074
 30
0.0
 11
129.646
 21
77.7074
 31
0.0
  0
LINE
  8
0
 62
     0
 10
129.646
 20
77.7074
 30
0.0
 11
130.445
 21
77.7074
 31
0.0
  0
LINE
  8
0
 62
     0
 10
130.445
 20
77.7074
 30
0.0
 11
130.445
 21
80.8069
 31
0.0
  0
LINE
  8
0
 62
     0
 10
130.445
 20
80.8069
 30
0.0
 11
129.646
 21
80.8069
 31
0.0
  0
LINE
  8
0
 62
     0
 10
129.646
 20
80.8069
 30
0.0
 11
129.646
 21
81.8074
 31
0.0
  0
LINE
  8
0
 62
     0
 10
129.646
 20
81.8074
 30
0.0
 11
115.645
 21
81.8074
 31
0.0
  0
LINE
  8
0
 62
     0
 10
96.5951
 20
81.8074
 30
0.0
 11
96.5951
 21
80.8069
 31
0.0
  0
LINE
  8
0
 62
     0
 10
96.5951
 20
80.8069
 30
0.0
 11
95.7957
 21
80.8069
 31
0.0
  0
LINE
  8
0
 62
     0
 10
95.7957
 20
80.8069
 30
0.0
 11
95.7957
 21
77.7074
 31
0.0
  0
LINE
  8
0
 62
     0
 10
95.7957
 20
77.7074
 30
0.0
 11
96.5951
 21
77.7074
 31
0.0
  0
LINE
  8
0
 62
     0
 10
96.5951
 20
77.7074
 30
0.0
 11
96.5951
 21
71.9074
 31
0.0
  0
LINE
  8
0
 62
     0
 10
96.5951
 20
71.9074
 30
0.0
 11
95.7957
 21
71.9074
 31
0.0
  0
LINE
  8
0
 62
     0
 10
95.7957
 20
71.9074
 30
0.0
 11
95.7957
 21
68.8068
 31
0.0
  0
LINE
  8
0
 62
     0
 10
95.7957
 20
68.8068
 30
0.0
 11
96.5951
 21
68.8068
 31
0.0
  0
LINE
  8
0
 62
     0
 10
96.5951
 20
68.8068
 30
0.0
 11
96.5951
 21
67.8078
 31
0.0
  0
LINE
  8
0
 62
     0
 10
96.5951
 20
67.8078
 30
0.0
 11
110.596
 21
67.8078
 31
0.0
  0
LINE
  8
0
 62
     0
 10
110.596
 20
67.8078
 30
0.0
 11
110.596
 21
68.8068
 31
0.0
  0
LINE
  8
0
 62
     0
 10
110.596
 20
68.8068
 30
0.0
 11
111.395
 21
68.8068
 31
0.0
  0
LINE
  8
0
 62
     0
 10
111.395
 20
68.8068
 30
0.0
 11
111.395
 21
71.9074
 31
0.0
  0
LINE
  8
0
 62
     0
 10
111.395
 20
71.9074
 30
0.0
 11
110.596
 21
71.9074
 31
0.0
  0
LINE
  8
0
 62
     0
 10
110.596
 20
71.9074
 30
0.0
 11
110.596
 21
77.7074
 31
0.0
  0
LINE
  8
0
 62
     0
 10
110.596
 20
77.7074
 30
0.0
 11
111.395
 21
77.7074
 31
0.0
  0
LINE
  8
0
 62
     0
 10
111.395
 20
77.7074
 30
0.0
 11
111.395
 21
80.8069
 31
0.0
  0
LINE
  8
0
 62
     0
 10
111.395
 20
80.8069
 30
0.0
 11
110.596
 21
80.8069
 31
0.0
  0
LINE
  8
0
 62
     0
 10
110.596
 20
80.8069
 30
0.0
 11
110.596
 21
81.8074
 31
0.0
  0
LINE
  8
0
 62
     0
 10
110.596
 20
81.8074
 30
0.0
 11
96.5951
 21
81.8074
 31
0.0
  0
LINE
  8
0
 62
     0
 10
77.5451
 20
81.8074
 30
0.0
 11
77.5451
 21
80.8069
 31
0.0
  0
LINE
  8
0
 62
     0
 10
77.5451
 20
80.8069
 30
0.0
 11
76.7457
 21
80.8069
 31
0.0
  0
LINE
  8
0
 62
     0
 10
76.7457
 20
80.8069
 30
0.0
 11
76.7457
 21
77.7074
 31
0.0
  0
LINE
  8
0
 62
     0
 10
76.7457
 20
77.7074
 30
0.0
 11
77.5451
 21
77.7074
 31
0.0
  0
LINE
  8
0
 62
     0
 10
77.5451
 20
77.7074
 30
0.0
 11
77.5451
 21
71.9074
 31
0.0
  0
LINE
  8
0
 62
     0
 10
77.5451
 20
71.9074
 30
0.0
 11
76.7457
 21
71.9074
 31
0.0
  0
LINE
  8
0
 62
     0
 10
76.7457
 20
71.9074
 30
0.0
 11
76.7457
 21
68.8068
 31
0.0
  0
LINE
  8
0
 62
     0
 10
76.7457
 20
68.8068
 30
0.0
 11
77.5451
 21
68.8068
 31
0.0
  0
LINE
  8
0
 62
     0
 10
77.5451
 20
68.8068
 30
0.0
 11
77.5451
 21
67.8078
 31
0.0
  0
LINE
  8
0
 62
     0
 10
77.5451
 20
67.8078
 30
0.0
 11
91.5458
 21
67.8078
 31
0.0
  0
LINE
  8
0
 62
     0
 10
91.5458
 20
67.8078
 30
0.0
 11
91.5458
 21
68.8068
 31
0.0
  0
LINE
  8
0
 62
     0
 10
91.5458
 20
68.8068
 30
0.0
 11
92.3452
 21
68.8068
 31
0.0
  0
LINE
  8
0
 62
     0
 10
92.3452
 20
68.8068
 30
0.0
 11
92.3452
 21
71.9074
 31
0.0
  0
LINE
  8
0
 62
     0
 10
92.3452
 20
71.9074
 30
0.0
 11
91.5458
 21
71.9074
 31
0.0
  0
LINE
  8
0
 62
     0
 10
91.5458
 20
71.9074
 30
0.0
 11
91.5458
 21
77.7074
 31
0.0
  0
LINE
  8
0
 62
     0
 10
91.5458
 20
77.7074
 30
0.0
 11
92.3452
 21
77.7074
 31
0.0
  0
LINE
  8
0
 62
     0
 10
92.3452
 20
77.7074
 30
0.0
 11
92.3452
 21
80.8069
 31
0.0
  0
LINE
  8
0
 62
     0
 10
92.3452
 20
80.8069
 30
0.0
 11
91.5458
 21
80.8069
 31
0.0
  0
LINE
  8
0
 62
     0
 10
91.5458
 20
80.8069
 30
0.0
 11
91.5458
 21
81.8074
 31
0.0
  0
LINE
  8
0
 62
     0
 10
91.5458
 20
81.8074
 30
0.0
 11
77.5451
 21
81.8074
 31
0.0
  0
LINE
  8
0
 62
     0
 10
58.4951
 20
81.8074
 30
0.0
 11
58.4951
 21
80.8069
 31
0.0
  0
LINE
  8
0
 62
     0
 10
58.4951
 20
80.8069
 30
0.0
 11
57.6957
 21
80.8069
 31
0.0
  0
LINE
  8
0
 62
     0
 10
57.6957
 20
80.8069
 30
0.0
 11
57.6957
 21
77.7074
 31
0.0
  0
LINE
  8
0
 62
     0
 10
57.6957
 20
77.7074
 30
0.0
 11
58.4951
 21
77.7074
 31
0.0
  0
LINE
  8
0
 62
     0
 10
58.4951
 20
77.7074
 30
0.0
 11
58.4951
 21
71.9074
 31
0.0
  0
LINE
  8
0
 62
     0
 10
58.4951
 20
71.9074
 30
0.0
 11
57.6957
 21
71.9074
 31
0.0
  0
LINE
  8
0
 62
     0
 10
57.6957
 20
71.9074
 30
0.0
 11
57.6957
 21
68.8068
 31
0.0
  0
LINE
  8
0
 62
     0
 10
57.6957
 20
68.8068
 30
0.0
 11
58.4951
 21
68.8068
 31
0.0
  0
LINE
  8
0
 62
     0
 10
58.4951
 20
68.8068
 30
0.0
 11
58.4951
 21
67.8078
 31
0.0
  0
LINE
  8
0
 62
     0
 10
58.4951
 20
67.8078
 30
0.0
 11
72.4958
 21
67.8078
 31
0.0
  0
LINE
  8
0
 62
     0
 10
72.4958
 20
67.8078
 30
0.0
 11
72.4958
 21
68.8068
 31
0.0
  0
LINE
  8
0
 62
     0
 10
72.4958
 20
68.8068
 30
0.0
 11
73.2952
 21
68.8068
 31
0.0
  0
LINE
  8
0
 62
     0
 10
73.2952
 20
68.8068
 30
0.0
 11
73.2952
 21
71.9074
 31
0.0
  0
LINE
  8
0
 62
     0
 10
73.2952
 20
71.9074
 30
0.0
 11
72.4958
 21
71.9074
 31
0.0
  0
LINE
  8
0
 62
     0
 10
72.4958
 20
71.9074
 30
0.0
 11
72.4958
 21
77.7074
 31
0.0
  0
LINE
  8
0
 62
     0
 10
72.4958
 20
77.7074
 30
0.0
 11
73.2952
 21
77.7074
 31
0.0
  0
LINE
  8
0
 62
     0
 10
73.2952
 20
77.7074
 30
0.0
 11
73.2952
 21
80.8069
 31
0.0
  0
LINE
  8
0
 62
     0
 10
73.2952
 20
80.8069
 30
0.0
 11
72.4958
 21
80.8069
 31
0.0
  0
LINE
  8
0
 62
     0
 10
72.4958
 20
80.8069
 30
0.0
 11
72.4958
 21
81.8074
 31
0.0
  0
LINE
  8
0
 62
     0
 10
72.4958
 20
81.8074
 30
0.0
 11
58.4951
 21
81.8074
 31
0.0
  0
LINE
  8
0
 62
     0
 10
39.4451
 20
81.8074
 30
0.0
 11
39.4451
 21
80.8069
 31
0.0
  0
LINE
  8
0
 62
     0
 10
39.4451
 20
80.8069
 30
0.0
 11
38.6457
 21
80.8069
 31
0.0
  0
LINE
  8
0
 62
     0
 10
38.6457
 20
80.8069
 30
0.0
 11
38.6457
 21
77.7074
 31
0.0
  0
LINE
  8
0
 62
     0
 10
38.6457
 20
77.7074
 30
0.0
 11
39.4451
 21
77.7074
 31
0.0
  0
LINE
  8
0
 62
     0
 10
39.4451
 20
77.7074
 30
0.0
 11
39.4451
 21
71.9074
 31
0.0
  0
LINE
  8
0
 62
     0
 10
39.4451
 20
71.9074
 30
0.0
 11
38.6457
 21
71.9074
 31
0.0
  0
LINE
  8
0
 62
     0
 10
38.6457
 20
71.9074
 30
0.0
 11
38.6457
 21
68.8068
 31
0.0
  0
LINE
  8
0
 62
     0
 10
38.6457
 20
68.8068
 30
0.0
 11
39.4451
 21
68.8068
 31
0.0
  0
LINE
  8
0
 62
     0
 10
39.4451
 20
68.8068
 30
0.0
 11
39.4451
 21
67.8078
 31
0.0
  0
LINE
  8
0
 62
     0
 10
39.4451
 20
67.8078
 30
0.0
 11
53.4458
 21
67.8078
 31
0.0
  0
LINE
  8
0
 62
     0
 10
53.4458
 20
67.8078
 30
0.0
 11
53.4458
 21
68.8068
 31
0.0
  0
LINE
  8
0
 62
     0
 10
53.4458
 20
68.8068
 30
0.0
 11
54.2452
 21
68.8068
 31
0.0
  0
LINE
  8
0
 62
     0
 10
54.2452
 20
68.8068
 30
0.0
 11
54.2452
 21
71.9074
 31
0.0
  0
LINE
  8
0
 62
     0
 10
54.2452
 20
71.9074
 30
0.0
 11
53.4458
 21
71.9074
 31
0.0
  0
LINE
  8
0
 62
     0
 10
53.4458
 20
71.9074
 30
0.0
 11
53.4458
 21
77.7074
 31
0.0
  0
LINE
  8
0
 62
     0
 10
53.4458
 20
77.7074
 30
0.0
 11
54.2452
 21
77.7074
 31
0.0
  0
LINE
  8
0
 62
     0
 10
54.2452
 20
77.7074
 30
0.0
 11
54.2452
 21
80.8069
 31
0.0
  0
LINE
  8
0
 62
     0
 10
54.2452
 20
80.8069
 30
0.0
 11
53.4458
 21
80.8069
 31
0.0
  0
LINE
  8
0
 62
     0
 10
53.4458
 20
80.8069
 30
0.0
 11
53.4458
 21
81.8074
 31
0.0
  0
LINE
  8
0
 62
     0
 10
53.4458
 20
81.8074
 30
0.0
 11
39.4451
 21
81.8074
 31
0.0
  0
LINE
  8
0
 62
     0
 10
15.6325
 20
81.8074
 30
0.0
 11
15.6325
 21
80.8069
 31
0.0
  0
LINE
  8
0
 62
     0
 10
15.6325
 20
80.8069
 30
0.0
 11
14.8318
 21
80.8069
 31
0.0
  0
LINE
  8
0
 62
     0
 10
14.8318
 20
80.8069
 30
0.0
 11
14.8318
 21
77.7074
 31
0.0
  0
LINE
  8
0
 62
     0
 10
14.8318
 20
77.7074
 30
0.0
 11
15.6325
 21
77.7074
 31
0.0
  0
LINE
  8
0
 62
     0
 10
15.6325
 20
77.7074
 30
0.0
 11
15.6325
 21
71.9074
 31
0.0
  0
LINE
  8
0
 62
     0
 10
15.6325
 20
71.9074
 30
0.0
 11
14.8318
 21
71.9074
 31
0.0
  0
LINE
  8
0
 62
     0
 10
14.8318
 20
71.9074
 30
0.0
 11
14.8318
 21
68.8068
 31
0.0
  0
LINE
  8
0
 62
     0
 10
14.8318
 20
68.8068
 30
0.0
 11
15.6325
 21
68.8068
 31
0.0
  0
LINE
  8
0
 62
     0
 10
15.6325
 20
68.8068
 30
0.0
 11
15.6325
 21
67.8078
 31
0.0
  0
LINE
  8
0
 62
     0
 10
15.6325
 20
67.8078
 30
0.0
 11
29.632
 21
67.8078
 31
0.0
  0
LINE
  8
0
 62
     0
 10
29.632
 20
67.8078
 30
0.0
 11
29.632
 21
68.8068
 31
0.0
  0
LINE
  8
0
 62
     0
 10
29.632
 20
68.8068
 30
0.0
 11
30.4326
 21
68.8068
 31
0.0
  0
LINE
  8
0
 62
     0
 10
30.4326
 20
68.8068
 30
0.0
 11
30.4326
 21
71.9074
 31
0.0
  0
LINE
  8
0
 62
     0
 10
30.4326
 20
71.9074
 30
0.0
 11
29.632
 21
71.9074
 31
0.0
  0
LINE
  8
0
 62
     0
 10
29.632
 20
71.9074
 30
0.0
 11
29.632
 21
77.7074
 31
0.0
  0
LINE
  8
0
 62
     0
 10
29.632
 20
77.7074
 30
0.0
 11
30.4326
 21
77.7074
 31
0.0
  0
LINE
  8
0
 62
     0
 10
30.4326
 20
77.7074
 30
0.0
 11
30.4326
 21
80.8069
 31
0.0
  0
LINE
  8
0
 62
     0
 10
30.4326
 20
80.8069
 30
0.0
 11
29.632
 21
80.8069
 31
0.0
  0
LINE
  8
0
 62
     0
 10
29.632
 20
80.8069
 30
0.0
 11
29.632
 21
81.8074
 31
0.0
  0
LINE
  8
0
 62
     0
 10
29.632
 20
81.8074
 30
0.0
 11
15.6325
 21
81.8074
 31
0.0
  0
LINE
  8
0
 62
     0
 10
268.045
 20
100.858
 30
0.0
 11
268.045
 21
99.8569
 31
0.0
  0
LINE
  8
0
 62
     0
 10
268.045
 20
99.8569
 30
0.0
 11
267.246
 21
99.8569
 31
0.0
  0
LINE
  8
0
 62
     0
 10
267.246
 20
99.8569
 30
0.0
 11
267.246
 21
96.7574
 31
0.0
  0
LINE
  8
0
 62
     0
 10
267.246
 20
96.7574
 30
0.0
 11
268.045
 21
96.7574
 31
0.0
  0
LINE
  8
0
 62
     0
 10
268.045
 20
96.7574
 30
0.0
 11
268.045
 21
96.1581
 31
0.0
  0
LINE
  8
0
 62
     0
 10
268.045
 20
96.1581
 30
0.0
 11
266.521
 21
96.1581
 31
0.0
  0
LINE
  8
0
 62
     0
 10
266.521
 20
96.1581
 30
0.0
 11
266.521
 21
99.3881
 31
0.0
  0
LINE
  8
0
 62
     0
 10
266.521
 20
99.3881
 30
0.0
 11
264.796
 21
99.3881
 31
0.0
  0
LINE
  8
0
 62
     0
 10
264.796
 20
99.3881
 30
0.0
 11
264.796
 21
100.307
 31
0.0
  0
LINE
  8
0
 62
     0
 10
264.796
 20
100.307
 30
0.0
 11
261.495
 21
100.307
 31
0.0
  0
LINE
  8
0
 62
     0
 10
261.495
 20
100.307
 30
0.0
 11
261.495
 21
99.3881
 31
0.0
  0
LINE
  8
0
 62
     0
 10
261.495
 20
99.3881
 30
0.0
 11
259.77
 21
99.3881
 31
0.0
  0
LINE
  8
0
 62
     0
 10
259.77
 20
99.3881
 30
0.0
 11
259.77
 21
96.1581
 31
0.0
  0
LINE
  8
0
 62
     0
 10
259.77
 20
96.1581
 30
0.0
 11
258.946
 21
96.1581
 31
0.0
  0
LINE
  8
0
 62
     0
 10
258.946
 20
96.1581
 30
0.0
 11
258.946
 21
93.3581
 31
0.0
  0
LINE
  8
0
 62
     0
 10
258.946
 20
93.3581
 30
0.0
 11
259.77
 21
93.3581
 31
0.0
  0
LINE
  8
0
 62
     0
 10
259.77
 20
93.3581
 30
0.0
 11
259.77
 21
87.0878
 31
0.0
  0
LINE
  8
0
 62
     0
 10
259.77
 20
87.0878
 30
0.0
 11
261.495
 21
87.0878
 31
0.0
  0
LINE
  8
0
 62
     0
 10
261.495
 20
87.0878
 30
0.0
 11
261.495
 21
86.1067
 31
0.0
  0
LINE
  8
0
 62
     0
 10
261.495
 20
86.1067
 30
0.0
 11
264.796
 21
86.1067
 31
0.0
  0
LINE
  8
0
 62
     0
 10
264.796
 20
86.1067
 30
0.0
 11
264.796
 21
87.0878
 31
0.0
  0
LINE
  8
0
 62
     0
 10
264.796
 20
87.0878
 30
0.0
 11
266.521
 21
87.0878
 31
0.0
  0
LINE
  8
0
 62
     0
 10
266.521
 20
87.0878
 30
0.0
 11
266.521
 21
91.5568
 31
0.0
  0
LINE
  8
0
 62
     0
 10
266.521
 20
91.5568
 30
0.0
 11
268.045
 21
91.5568
 31
0.0
  0
LINE
  8
0
 62
     0
 10
268.045
 20
91.5568
 30
0.0
 11
268.045
 21
90.9588
 31
0.0
  0
LINE
  8
0
 62
     0
 10
268.045
 20
90.9588
 30
0.0
 11
267.246
 21
90.9588
 31
0.0
  0
LINE
  8
0
 62
     0
 10
267.246
 20
90.9588
 30
0.0
 11
267.246
 21
87.8568
 31
0.0
  0
LINE
  8
0
 62
     0
 10
267.246
 20
87.8568
 30
0.0
 11
268.045
 21
87.8568
 31
0.0
  0
LINE
  8
0
 62
     0
 10
268.045
 20
87.8568
 30
0.0
 11
268.045
 21
86.8578
 31
0.0
  0
LINE
  8
0
 62
     0
 10
268.045
 20
86.8578
 30
0.0
 11
282.046
 21
86.8578
 31
0.0
  0
LINE
  8
0
 62
     0
 10
282.046
 20
86.8578
 30
0.0
 11
282.046
 21
87.8568
 31
0.0
  0
LINE
  8
0
 62
     0
 10
282.046
 20
87.8568
 30
0.0
 11
282.845
 21
87.8568
 31
0.0
  0
LINE
  8
0
 62
     0
 10
282.845
 20
87.8568
 30
0.0
 11
282.845
 21
90.9588
 31
0.0
  0
LINE
  8
0
 62
     0
 10
282.845
 20
90.9588
 30
0.0
 11
282.046
 21
90.9588
 31
0.0
  0
LINE
  8
0
 62
     0
 10
282.046
 20
90.9588
 30
0.0
 11
282.046
 21
91.5568
 31
0.0
  0
LINE
  8
0
 62
     0
 10
282.046
 20
91.5568
 30
0.0
 11
283.57
 21
91.5568
 31
0.0
  0
LINE
  8
0
 62
     0
 10
283.57
 20
91.5568
 30
0.0
 11
283.57
 21
87.0878
 31
0.0
  0
LINE
  8
0
 62
     0
 10
283.57
 20
87.0878
 30
0.0
 11
285.295
 21
87.0878
 31
0.0
  0
LINE
  8
0
 62
     0
 10
285.295
 20
87.0878
 30
0.0
 11
285.295
 21
86.1067
 31
0.0
  0
LINE
  8
0
 62
     0
 10
285.295
 20
86.1067
 30
0.0
 11
288.595
 21
86.1067
 31
0.0
  0
LINE
  8
0
 62
     0
 10
288.595
 20
86.1067
 30
0.0
 11
288.595
 21
87.0878
 31
0.0
  0
LINE
  8
0
 62
     0
 10
288.595
 20
87.0878
 30
0.0
 11
290.321
 21
87.0878
 31
0.0
  0
LINE
  8
0
 62
     0
 10
290.321
 20
87.0878
 30
0.0
 11
290.321
 21
93.3581
 31
0.0
  0
LINE
  8
0
 62
     0
 10
290.321
 20
93.3581
 30
0.0
 11
291.145
 21
93.3581
 31
0.0
  0
LINE
  8
0
 62
     0
 10
291.145
 20
93.3581
 30
0.0
 11
291.145
 21
96.1581
 31
0.0
  0
LINE
  8
0
 62
     0
 10
291.145
 20
96.1581
 30
0.0
 11
290.321
 21
96.1581
 31
0.0
  0
LINE
  8
0
 62
     0
 10
290.321
 20
96.1581
 30
0.0
 11
290.321
 21
99.3881
 31
0.0
  0
LINE
  8
0
 62
     0
 10
290.321
 20
99.3881
 30
0.0
 11
288.595
 21
99.3881
 31
0.0
  0
LINE
  8
0
 62
     0
 10
288.595
 20
99.3881
 30
0.0
 11
288.595
 21
100.307
 31
0.0
  0
LINE
  8
0
 62
     0
 10
288.595
 20
100.307
 30
0.0
 11
285.295
 21
100.307
 31
0.0
  0
LINE
  8
0
 62
     0
 10
285.295
 20
100.307
 30
0.0
 11
285.295
 21
99.3881
 31
0.0
  0
LINE
  8
0
 62
     0
 10
285.295
 20
99.3881
 30
0.0
 11
283.57
 21
99.3881
 31
0.0
  0
LINE
  8
0
 62
     0
 10
283.57
 20
99.3881
 30
0.0
 11
283.57
 21
96.1581
 31
0.0
  0
LINE
  8
0
 62
     0
 10
283.57
 20
96.1581
 30
0.0
 11
282.046
 21
96.1581
 31
0.0
  0
LINE
  8
0
 62
     0
 10
282.046
 20
96.1581
 30
0.0
 11
282.046
 21
96.7574
 31
0.0
  0
LINE
  8
0
 62
     0
 10
282.046
 20
96.7574
 30
0.0
 11
282.845
 21
96.7574
 31
0.0
  0
LINE
  8
0
 62
     0
 10
282.845
 20
96.7574
 30
0.0
 11
282.845
 21
99.8569
 31
0.0
  0
LINE
  8
0
 62
     0
 10
282.845
 20
99.8569
 30
0.0
 11
282.046
 21
99.8569
 31
0.0
  0
LINE
  8
0
 62
     0
 10
282.046
 20
99.8569
 30
0.0
 11
282.046
 21
100.858
 31
0.0
  0
LINE
  8
0
 62
     0
 10
282.046
 20
100.858
 30
0.0
 11
268.045
 21
100.858
 31
0.0
  0
LINE
  8
0
 62
     0
 10
296.62
 20
100.858
 30
0.0
 11
296.62
 21
99.8569
 31
0.0
  0
LINE
  8
0
 62
     0
 10
296.62
 20
99.8569
 30
0.0
 11
295.821
 21
99.8569
 31
0.0
  0
LINE
  8
0
 62
     0
 10
295.821
 20
99.8569
 30
0.0
 11
295.821
 21
96.7574
 31
0.0
  0
LINE
  8
0
 62
     0
 10
295.821
 20
96.7574
 30
0.0
 11
296.62
 21
96.7574
 31
0.0
  0
LINE
  8
0
 62
     0
 10
296.62
 20
96.7574
 30
0.0
 11
296.62
 21
90.9588
 31
0.0
  0
LINE
  8
0
 62
     0
 10
296.62
 20
90.9588
 30
0.0
 11
295.821
 21
90.9588
 31
0.0
  0
LINE
  8
0
 62
     0
 10
295.821
 20
90.9588
 30
0.0
 11
295.821
 21
87.8568
 31
0.0
  0
LINE
  8
0
 62
     0
 10
295.821
 20
87.8568
 30
0.0
 11
296.62
 21
87.8568
 31
0.0
  0
LINE
  8
0
 62
     0
 10
296.62
 20
87.8568
 30
0.0
 11
296.62
 21
86.8578
 31
0.0
  0
LINE
  8
0
 62
     0
 10
296.62
 20
86.8578
 30
0.0
 11
310.621
 21
86.8578
 31
0.0
  0
LINE
  8
0
 62
     0
 10
310.621
 20
86.8578
 30
0.0
 11
310.621
 21
87.8568
 31
0.0
  0
LINE
  8
0
 62
     0
 10
310.621
 20
87.8568
 30
0.0
 11
311.42
 21
87.8568
 31
0.0
  0
LINE
  8
0
 62
     0
 10
311.42
 20
87.8568
 30
0.0
 11
311.42
 21
90.9588
 31
0.0
  0
LINE
  8
0
 62
     0
 10
311.42
 20
90.9588
 30
0.0
 11
310.621
 21
90.9588
 31
0.0
  0
LINE
  8
0
 62
     0
 10
310.621
 20
90.9588
 30
0.0
 11
310.621
 21
96.7574
 31
0.0
  0
LINE
  8
0
 62
     0
 10
310.621
 20
96.7574
 30
0.0
 11
311.42
 21
96.7574
 31
0.0
  0
LINE
  8
0
 62
     0
 10
311.42
 20
96.7574
 30
0.0
 11
311.42
 21
99.8569
 31
0.0
  0
LINE
  8
0
 62
     0
 10
311.42
 20
99.8569
 30
0.0
 11
310.621
 21
99.8569
 31
0.0
  0
LINE
  8
0
 62
     0
 10
310.621
 20
99.8569
 30
0.0
 11
310.621
 21
100.858
 31
0.0
  0
LINE
  8
0
 62
     0
 10
310.621
 20
100.858
 30
0.0
 11
296.62
 21
100.858
 31
0.0
  0
LINE
  8
0
 62
     0
 10
239.47
 20
100.858
 30
0.0
 11
239.47
 21
99.8569
 31
0.0
  0
LINE
  8
0
 62
     0
 10
239.47
 20
99.8569
 30
0.0
 11
238.671
 21
99.8569
 31
0.0
  0
LINE
  8
0
 62
     0
 10
238.671
 20
99.8569
 30
0.0
 11
238.671
 21
96.7574
 31
0.0
  0
LINE
  8
0
 62
     0
 10
238.671
 20
96.7574
 30
0.0
 11
239.47
 21
96.7574
 31
0.0
  0
LINE
  8
0
 62
     0
 10
239.47
 20
96.7574
 30
0.0
 11
239.47
 21
90.9588
 31
0.0
  0
LINE
  8
0
 62
     0
 10
239.47
 20
90.9588
 30
0.0
 11
238.671
 21
90.9588
 31
0.0
  0
LINE
  8
0
 62
     0
 10
238.671
 20
90.9588
 30
0.0
 11
238.671
 21
87.8568
 31
0.0
  0
LINE
  8
0
 62
     0
 10
238.671
 20
87.8568
 30
0.0
 11
239.47
 21
87.8568
 31
0.0
  0
LINE
  8
0
 62
     0
 10
239.47
 20
87.8568
 30
0.0
 11
239.47
 21
86.8578
 31
0.0
  0
LINE
  8
0
 62
     0
 10
239.47
 20
86.8578
 30
0.0
 11
253.471
 21
86.8578
 31
0.0
  0
LINE
  8
0
 62
     0
 10
253.471
 20
86.8578
 30
0.0
 11
253.471
 21
87.8568
 31
0.0
  0
LINE
  8
0
 62
     0
 10
253.471
 20
87.8568
 30
0.0
 11
254.27
 21
87.8568
 31
0.0
  0
LINE
  8
0
 62
     0
 10
254.27
 20
87.8568
 30
0.0
 11
254.27
 21
90.9588
 31
0.0
  0
LINE
  8
0
 62
     0
 10
254.27
 20
90.9588
 30
0.0
 11
253.471
 21
90.9588
 31
0.0
  0
LINE
  8
0
 62
     0
 10
253.471
 20
90.9588
 30
0.0
 11
253.471
 21
96.7574
 31
0.0
  0
LINE
  8
0
 62
     0
 10
253.471
 20
96.7574
 30
0.0
 11
254.27
 21
96.7574
 31
0.0
  0
LINE
  8
0
 62
     0
 10
254.27
 20
96.7574
 30
0.0
 11
254.27
 21
99.8569
 31
0.0
  0
LINE
  8
0
 62
     0
 10
254.27
 20
99.8569
 30
0.0
 11
253.471
 21
99.8569
 31
0.0
  0
LINE
  8
0
 62
     0
 10
253.471
 20
99.8569
 30
0.0
 11
253.471
 21
100.858
 31
0.0
  0
LINE
  8
0
 62
     0
 10
253.471
 20
100.858
 30
0.0
 11
239.47
 21
100.858
 31
0.0
  0
LINE
  8
0
 62
     0
 10
220.42
 20
100.858
 30
0.0
 11
220.42
 21
99.8569
 31
0.0
  0
LINE
  8
0
 62
     0
 10
220.42
 20
99.8569
 30
0.0
 11
219.621
 21
99.8569
 31
0.0
  0
LINE
  8
0
 62
     0
 10
219.621
 20
99.8569
 30
0.0
 11
219.621
 21
96.7574
 31
0.0
  0
LINE
  8
0
 62
     0
 10
219.621
 20
96.7574
 30
0.0
 11
220.42
 21
96.7574
 31
0.0
  0
LINE
  8
0
 62
     0
 10
220.42
 20
96.7574
 30
0.0
 11
220.42
 21
90.9588
 31
0.0
  0
LINE
  8
0
 62
     0
 10
220.42
 20
90.9588
 30
0.0
 11
219.621
 21
90.9588
 31
0.0
  0
LINE
  8
0
 62
     0
 10
219.621
 20
90.9588
 30
0.0
 11
219.621
 21
87.8568
 31
0.0
  0
LINE
  8
0
 62
     0
 10
219.621
 20
87.8568
 30
0.0
 11
220.42
 21
87.8568
 31
0.0
  0
LINE
  8
0
 62
     0
 10
220.42
 20
87.8568
 30
0.0
 11
220.42
 21
86.8578
 31
0.0
  0
LINE
  8
0
 62
     0
 10
220.42
 20
86.8578
 30
0.0
 11
234.421
 21
86.8578
 31
0.0
  0
LINE
  8
0
 62
     0
 10
234.421
 20
86.8578
 30
0.0
 11
234.421
 21
87.8568
 31
0.0
  0
LINE
  8
0
 62
     0
 10
234.421
 20
87.8568
 30
0.0
 11
235.22
 21
87.8568
 31
0.0
  0
LINE
  8
0
 62
     0
 10
235.22
 20
87.8568
 30
0.0
 11
235.22
 21
90.9588
 31
0.0
  0
LINE
  8
0
 62
     0
 10
235.22
 20
90.9588
 30
0.0
 11
234.421
 21
90.9588
 31
0.0
  0
LINE
  8
0
 62
     0
 10
234.421
 20
90.9588
 30
0.0
 11
234.421
 21
96.7574
 31
0.0
  0
LINE
  8
0
 62
     0
 10
234.421
 20
96.7574
 30
0.0
 11
235.22
 21
96.7574
 31
0.0
  0
LINE
  8
0
 62
     0
 10
235.22
 20
96.7574
 30
0.0
 11
235.22
 21
99.8569
 31
0.0
  0
LINE
  8
0
 62
     0
 10
235.22
 20
99.8569
 30
0.0
 11
234.421
 21
99.8569
 31
0.0
  0
LINE
  8
0
 62
     0
 10
234.421
 20
99.8569
 30
0.0
 11
234.421
 21
100.858
 31
0.0
  0
LINE
  8
0
 62
     0
 10
234.421
 20
100.858
 30
0.0
 11
220.42
 21
100.858
 31
0.0
  0
LINE
  8
0
 62
     0
 10
201.37
 20
100.858
 30
0.0
 11
201.37
 21
99.8569
 31
0.0
  0
LINE
  8
0
 62
     0
 10
201.37
 20
99.8569
 30
0.0
 11
200.571
 21
99.8569
 31
0.0
  0
LINE
  8
0
 62
     0
 10
200.571
 20
99.8569
 30
0.0
 11
200.571
 21
96.7574
 31
0.0
  0
LINE
  8
0
 62
     0
 10
200.571
 20
96.7574
 30
0.0
 11
201.37
 21
96.7574
 31
0.0
  0
LINE
  8
0
 62
     0
 10
201.37
 20
96.7574
 30
0.0
 11
201.37
 21
90.9588
 31
0.0
  0
LINE
  8
0
 62
     0
 10
201.37
 20
90.9588
 30
0.0
 11
200.571
 21
90.9588
 31
0.0
  0
LINE
  8
0
 62
     0
 10
200.571
 20
90.9588
 30
0.0
 11
200.571
 21
87.8568
 31
0.0
  0
LINE
  8
0
 62
     0
 10
200.571
 20
87.8568
 30
0.0
 11
201.37
 21
87.8568
 31
0.0
  0
LINE
  8
0
 62
     0
 10
201.37
 20
87.8568
 30
0.0
 11
201.37
 21
86.8578
 31
0.0
  0
LINE
  8
0
 62
     0
 10
201.37
 20
86.8578
 30
0.0
 11
215.371
 21
86.8578
 31
0.0
  0
LINE
  8
0
 62
     0
 10
215.371
 20
86.8578
 30
0.0
 11
215.371
 21
87.8568
 31
0.0
  0
LINE
  8
0
 62
     0
 10
215.371
 20
87.8568
 30
0.0
 11
216.17
 21
87.8568
 31
0.0
  0
LINE
  8
0
 62
     0
 10
216.17
 20
87.8568
 30
0.0
 11
216.17
 21
90.9588
 31
0.0
  0
LINE
  8
0
 62
     0
 10
216.17
 20
90.9588
 30
0.0
 11
215.371
 21
90.9588
 31
0.0
  0
LINE
  8
0
 62
     0
 10
215.371
 20
90.9588
 30
0.0
 11
215.371
 21
96.7574
 31
0.0
  0
LINE
  8
0
 62
     0
 10
215.371
 20
96.7574
 30
0.0
 11
216.17
 21
96.7574
 31
0.0
  0
LINE
  8
0
 62
     0
 10
216.17
 20
96.7574
 30
0.0
 11
216.17
 21
99.8569
 31
0.0
  0
LINE
  8
0
 62
     0
 10
216.17
 20
99.8569
 30
0.0
 11
215.371
 21
99.8569
 31
0.0
  0
LINE
  8
0
 62
     0
 10
215.371
 20
99.8569
 30
0.0
 11
215.371
 21
100.858
 31
0.0
  0
LINE
  8
0
 62
     0
 10
215.371
 20
100.858
 30
0.0
 11
201.37
 21
100.858
 31
0.0
  0
LINE
  8
0
 62
     0
 10
182.32
 20
100.858
 30
0.0
 11
182.32
 21
99.8569
 31
0.0
  0
LINE
  8
0
 62
     0
 10
182.32
 20
99.8569
 30
0.0
 11
181.521
 21
99.8569
 31
0.0
  0
LINE
  8
0
 62
     0
 10
181.521
 20
99.8569
 30
0.0
 11
181.521
 21
96.7574
 31
0.0
  0
LINE
  8
0
 62
     0
 10
181.521
 20
96.7574
 30
0.0
 11
182.32
 21
96.7574
 31
0.0
  0
LINE
  8
0
 62
     0
 10
182.32
 20
96.7574
 30
0.0
 11
182.32
 21
90.9588
 31
0.0
  0
LINE
  8
0
 62
     0
 10
182.32
 20
90.9588
 30
0.0
 11
181.521
 21
90.9588
 31
0.0
  0
LINE
  8
0
 62
     0
 10
181.521
 20
90.9588
 30
0.0
 11
181.521
 21
87.8568
 31
0.0
  0
LINE
  8
0
 62
     0
 10
181.521
 20
87.8568
 30
0.0
 11
182.32
 21
87.8568
 31
0.0
  0
LINE
  8
0
 62
     0
 10
182.32
 20
87.8568
 30
0.0
 11
182.32
 21
86.8578
 31
0.0
  0
LINE
  8
0
 62
     0
 10
182.32
 20
86.8578
 30
0.0
 11
196.321
 21
86.8578
 31
0.0
  0
LINE
  8
0
 62
     0
 10
196.321
 20
86.8578
 30
0.0
 11
196.321
 21
87.8568
 31
0.0
  0
LINE
  8
0
 62
     0
 10
196.321
 20
87.8568
 30
0.0
 11
197.12
 21
87.8568
 31
0.0
  0
LINE
  8
0
 62
     0
 10
197.12
 20
87.8568
 30
0.0
 11
197.12
 21
90.9588
 31
0.0
  0
LINE
  8
0
 62
     0
 10
197.12
 20
90.9588
 30
0.0
 11
196.321
 21
90.9588
 31
0.0
  0
LINE
  8
0
 62
     0
 10
196.321
 20
90.9588
 30
0.0
 11
196.321
 21
96.7574
 31
0.0
  0
LINE
  8
0
 62
     0
 10
196.321
 20
96.7574
 30
0.0
 11
197.12
 21
96.7574
 31
0.0
  0
LINE
  8
0
 62
     0
 10
197.12
 20
96.7574
 30
0.0
 11
197.12
 21
99.8569
 31
0.0
  0
LINE
  8
0
 62
     0
 10
197.12
 20
99.8569
 30
0.0
 11
196.321
 21
99.8569
 31
0.0
  0
LINE
  8
0
 62
     0
 10
196.321
 20
99.8569
 30
0.0
 11
196.321
 21
100.858
 31
0.0
  0
LINE
  8
0
 62
     0
 10
196.321
 20
100.858
 30
0.0
 11
182.32
 21
100.858
 31
0.0
  0
LINE
  8
0
 62
     0
 10
163.27
 20
100.858
 30
0.0
 11
163.27
 21
99.8569
 31
0.0
  0
LINE
  8
0
 62
     0
 10
163.27
 20
99.8569
 30
0.0
 11
162.471
 21
99.8569
 31
0.0
  0
LINE
  8
0
 62
     0
 10
162.471
 20
99.8569
 30
0.0
 11
162.471
 21
96.7574
 31
0.0
  0
LINE
  8
0
 62
     0
 10
162.471
 20
96.7574
 30
0.0
 11
163.27
 21
96.7574
 31
0.0
  0
LINE
  8
0
 62
     0
 10
163.27
 20
96.7574
 30
0.0
 11
163.27
 21
90.9588
 31
0.0
  0
LINE
  8
0
 62
     0
 10
163.27
 20
90.9588
 30
0.0
 11
162.471
 21
90.9588
 31
0.0
  0
LINE
  8
0
 62
     0
 10
162.471
 20
90.9588
 30
0.0
 11
162.471
 21
87.8568
 31
0.0
  0
LINE
  8
0
 62
     0
 10
162.471
 20
87.8568
 30
0.0
 11
163.27
 21
87.8568
 31
0.0
  0
LINE
  8
0
 62
     0
 10
163.27
 20
87.8568
 30
0.0
 11
163.27
 21
86.8578
 31
0.0
  0
LINE
  8
0
 62
     0
 10
163.27
 20
86.8578
 30
0.0
 11
177.271
 21
86.8578
 31
0.0
  0
LINE
  8
0
 62
     0
 10
177.271
 20
86.8578
 30
0.0
 11
177.271
 21
87.8568
 31
0.0
  0
LINE
  8
0
 62
     0
 10
177.271
 20
87.8568
 30
0.0
 11
178.07
 21
87.8568
 31
0.0
  0
LINE
  8
0
 62
     0
 10
178.07
 20
87.8568
 30
0.0
 11
178.07
 21
90.9588
 31
0.0
  0
LINE
  8
0
 62
     0
 10
178.07
 20
90.9588
 30
0.0
 11
177.271
 21
90.9588
 31
0.0
  0
LINE
  8
0
 62
     0
 10
177.271
 20
90.9588
 30
0.0
 11
177.271
 21
96.7574
 31
0.0
  0
LINE
  8
0
 62
     0
 10
177.271
 20
96.7574
 30
0.0
 11
178.07
 21
96.7574
 31
0.0
  0
LINE
  8
0
 62
     0
 10
178.07
 20
96.7574
 30
0.0
 11
178.07
 21
99.8569
 31
0.0
  0
LINE
  8
0
 62
     0
 10
178.07
 20
99.8569
 30
0.0
 11
177.271
 21
99.8569
 31
0.0
  0
LINE
  8
0
 62
     0
 10
177.271
 20
99.8569
 30
0.0
 11
177.271
 21
100.858
 31
0.0
  0
LINE
  8
0
 62
     0
 10
177.271
 20
100.858
 30
0.0
 11
163.27
 21
100.858
 31
0.0
  0
LINE
  8
0
 62
     0
 10
144.22
 20
100.858
 30
0.0
 11
144.22
 21
99.8569
 31
0.0
  0
LINE
  8
0
 62
     0
 10
144.22
 20
99.8569
 30
0.0
 11
143.421
 21
99.8569
 31
0.0
  0
LINE
  8
0
 62
     0
 10
143.421
 20
99.8569
 30
0.0
 11
143.421
 21
96.7574
 31
0.0
  0
LINE
  8
0
 62
     0
 10
143.421
 20
96.7574
 30
0.0
 11
144.22
 21
96.7574
 31
0.0
  0
LINE
  8
0
 62
     0
 10
144.22
 20
96.7574
 30
0.0
 11
144.22
 21
90.9588
 31
0.0
  0
LINE
  8
0
 62
     0
 10
144.22
 20
90.9588
 30
0.0
 11
143.421
 21
90.9588
 31
0.0
  0
LINE
  8
0
 62
     0
 10
143.421
 20
90.9588
 30
0.0
 11
143.421
 21
87.8568
 31
0.0
  0
LINE
  8
0
 62
     0
 10
143.421
 20
87.8568
 30
0.0
 11
144.22
 21
87.8568
 31
0.0
  0
LINE
  8
0
 62
     0
 10
144.22
 20
87.8568
 30
0.0
 11
144.22
 21
86.8578
 31
0.0
  0
LINE
  8
0
 62
     0
 10
144.22
 20
86.8578
 30
0.0
 11
158.221
 21
86.8578
 31
0.0
  0
LINE
  8
0
 62
     0
 10
158.221
 20
86.8578
 30
0.0
 11
158.221
 21
87.8568
 31
0.0
  0
LINE
  8
0
 62
     0
 10
158.221
 20
87.8568
 30
0.0
 11
159.02
 21
87.8568
 31
0.0
  0
LINE
  8
0
 62
     0
 10
159.02
 20
87.8568
 30
0.0
 11
159.02
 21
90.9588
 31
0.0
  0
LINE
  8
0
 62
     0
 10
159.02
 20
90.9588
 30
0.0
 11
158.221
 21
90.9588
 31
0.0
  0
LINE
  8
0
 62
     0
 10
158.221
 20
90.9588
 30
0.0
 11
158.221
 21
96.7574
 31
0.0
  0
LINE
  8
0
 62
     0
 10
158.221
 20
96.7574
 30
0.0
 11
159.02
 21
96.7574
 31
0.0
  0
LINE
  8
0
 62
     0
 10
159.02
 20
96.7574
 30
0.0
 11
159.02
 21
99.8569
 31
0.0
  0
LINE
  8
0
 62
     0
 10
159.02
 20
99.8569
 30
0.0
 11
158.221
 21
99.8569
 31
0.0
  0
LINE
  8
0
 62
     0
 10
158.221
 20
99.8569
 30
0.0
 11
158.221
 21
100.858
 31
0.0
  0
LINE
  8
0
 62
     0
 10
158.221
 20
100.858
 30
0.0
 11
144.22
 21
100.858
 31
0.0
  0
LINE
  8
0
 62
     0
 10
125.17
 20
100.858
 30
0.0
 11
125.17
 21
99.8569
 31
0.0
  0
LINE
  8
0
 62
     0
 10
125.17
 20
99.8569
 30
0.0
 11
124.369
 21
99.8569
 31
0.0
  0
LINE
  8
0
 62
     0
 10
124.369
 20
99.8569
 30
0.0
 11
124.369
 21
96.7574
 31
0.0
  0
LINE
  8
0
 62
     0
 10
124.369
 20
96.7574
 30
0.0
 11
125.17
 21
96.7574
 31
0.0
  0
LINE
  8
0
 62
     0
 10
125.17
 20
96.7574
 30
0.0
 11
125.17
 21
90.9588
 31
0.0
  0
LINE
  8
0
 62
     0
 10
125.17
 20
90.9588
 30
0.0
 11
124.369
 21
90.9588
 31
0.0
  0
LINE
  8
0
 62
     0
 10
124.369
 20
90.9588
 30
0.0
 11
124.369
 21
87.8568
 31
0.0
  0
LINE
  8
0
 62
     0
 10
124.369
 20
87.8568
 30
0.0
 11
125.17
 21
87.8568
 31
0.0
  0
LINE
  8
0
 62
     0
 10
125.17
 20
87.8568
 30
0.0
 11
125.17
 21
86.8578
 31
0.0
  0
LINE
  8
0
 62
     0
 10
125.17
 20
86.8578
 30
0.0
 11
139.171
 21
86.8578
 31
0.0
  0
LINE
  8
0
 62
     0
 10
139.171
 20
86.8578
 30
0.0
 11
139.171
 21
87.8568
 31
0.0
  0
LINE
  8
0
 62
     0
 10
139.171
 20
87.8568
 30
0.0
 11
139.97
 21
87.8568
 31
0.0
  0
LINE
  8
0
 62
     0
 10
139.97
 20
87.8568
 30
0.0
 11
139.97
 21
90.9588
 31
0.0
  0
LINE
  8
0
 62
     0
 10
139.97
 20
90.9588
 30
0.0
 11
139.171
 21
90.9588
 31
0.0
  0
LINE
  8
0
 62
     0
 10
139.171
 20
90.9588
 30
0.0
 11
139.171
 21
96.7574
 31
0.0
  0
LINE
  8
0
 62
     0
 10
139.171
 20
96.7574
 30
0.0
 11
139.97
 21
96.7574
 31
0.0
  0
LINE
  8
0
 62
     0
 10
139.97
 20
96.7574
 30
0.0
 11
139.97
 21
99.8569
 31
0.0
  0
LINE
  8
0
 62
     0
 10
139.97
 20
99.8569
 30
0.0
 11
139.171
 21
99.8569
 31
0.0
  0
LINE
  8
0
 62
     0
 10
139.171
 20
99.8569
 30
0.0
 11
139.171
 21
100.858
 31
0.0
  0
LINE
  8
0
 62
     0
 10
139.171
 20
100.858
 30
0.0
 11
125.17
 21
100.858
 31
0.0
  0
LINE
  8
0
 62
     0
 10
106.12
 20
100.858
 30
0.0
 11
106.12
 21
99.8569
 31
0.0
  0
LINE
  8
0
 62
     0
 10
106.12
 20
99.8569
 30
0.0
 11
105.321
 21
99.8569
 31
0.0
  0
LINE
  8
0
 62
     0
 10
105.321
 20
99.8569
 30
0.0
 11
105.321
 21
96.7574
 31
0.0
  0
LINE
  8
0
 62
     0
 10
105.321
 20
96.7574
 30
0.0
 11
106.12
 21
96.7574
 31
0.0
  0
LINE
  8
0
 62
     0
 10
106.12
 20
96.7574
 30
0.0
 11
106.12
 21
90.9588
 31
0.0
  0
LINE
  8
0
 62
     0
 10
106.12
 20
90.9588
 30
0.0
 11
105.321
 21
90.9588
 31
0.0
  0
LINE
  8
0
 62
     0
 10
105.321
 20
90.9588
 30
0.0
 11
105.321
 21
87.8568
 31
0.0
  0
LINE
  8
0
 62
     0
 10
105.321
 20
87.8568
 30
0.0
 11
106.12
 21
87.8568
 31
0.0
  0
LINE
  8
0
 62
     0
 10
106.12
 20
87.8568
 30
0.0
 11
106.12
 21
86.8578
 31
0.0
  0
LINE
  8
0
 62
     0
 10
106.12
 20
86.8578
 30
0.0
 11
120.119
 21
86.8578
 31
0.0
  0
LINE
  8
0
 62
     0
 10
120.119
 20
86.8578
 30
0.0
 11
120.119
 21
87.8568
 31
0.0
  0
LINE
  8
0
 62
     0
 10
120.119
 20
87.8568
 30
0.0
 11
120.92
 21
87.8568
 31
0.0
  0
LINE
  8
0
 62
     0
 10
120.92
 20
87.8568
 30
0.0
 11
120.92
 21
90.9588
 31
0.0
  0
LINE
  8
0
 62
     0
 10
120.92
 20
90.9588
 30
0.0
 11
120.119
 21
90.9588
 31
0.0
  0
LINE
  8
0
 62
     0
 10
120.119
 20
90.9588
 30
0.0
 11
120.119
 21
96.7574
 31
0.0
  0
LINE
  8
0
 62
     0
 10
120.119
 20
96.7574
 30
0.0
 11
120.92
 21
96.7574
 31
0.0
  0
LINE
  8
0
 62
     0
 10
120.92
 20
96.7574
 30
0.0
 11
120.92
 21
99.8569
 31
0.0
  0
LINE
  8
0
 62
     0
 10
120.92
 20
99.8569
 30
0.0
 11
120.119
 21
99.8569
 31
0.0
  0
LINE
  8
0
 62
     0
 10
120.119
 20
99.8569
 30
0.0
 11
120.119
 21
100.858
 31
0.0
  0
LINE
  8
0
 62
     0
 10
120.119
 20
100.858
 30
0.0
 11
106.12
 21
100.858
 31
0.0
  0
LINE
  8
0
 62
     0
 10
87.0701
 20
100.858
 30
0.0
 11
87.0701
 21
99.8569
 31
0.0
  0
LINE
  8
0
 62
     0
 10
87.0701
 20
99.8569
 30
0.0
 11
86.2707
 21
99.8569
 31
0.0
  0
LINE
  8
0
 62
     0
 10
86.2707
 20
99.8569
 30
0.0
 11
86.2707
 21
96.7574
 31
0.0
  0
LINE
  8
0
 62
     0
 10
86.2707
 20
96.7574
 30
0.0
 11
87.0701
 21
96.7574
 31
0.0
  0
LINE
  8
0
 62
     0
 10
87.0701
 20
96.7574
 30
0.0
 11
87.0701
 21
90.9588
 31
0.0
  0
LINE
  8
0
 62
     0
 10
87.0701
 20
90.9588
 30
0.0
 11
86.2707
 21
90.9588
 31
0.0
  0
LINE
  8
0
 62
     0
 10
86.2707
 20
90.9588
 30
0.0
 11
86.2707
 21
87.8568
 31
0.0
  0
LINE
  8
0
 62
     0
 10
86.2707
 20
87.8568
 30
0.0
 11
87.0701
 21
87.8568
 31
0.0
  0
LINE
  8
0
 62
     0
 10
87.0701
 20
87.8568
 30
0.0
 11
87.0701
 21
86.8578
 31
0.0
  0
LINE
  8
0
 62
     0
 10
87.0701
 20
86.8578
 30
0.0
 11
101.071
 21
86.8578
 31
0.0
  0
LINE
  8
0
 62
     0
 10
101.071
 20
86.8578
 30
0.0
 11
101.071
 21
87.8568
 31
0.0
  0
LINE
  8
0
 62
     0
 10
101.071
 20
87.8568
 30
0.0
 11
101.87
 21
87.8568
 31
0.0
  0
LINE
  8
0
 62
     0
 10
101.87
 20
87.8568
 30
0.0
 11
101.87
 21
90.9588
 31
0.0
  0
LINE
  8
0
 62
     0
 10
101.87
 20
90.9588
 30
0.0
 11
101.071
 21
90.9588
 31
0.0
  0
LINE
  8
0
 62
     0
 10
101.071
 20
90.9588
 30
0.0
 11
101.071
 21
96.7574
 31
0.0
  0
LINE
  8
0
 62
     0
 10
101.071
 20
96.7574
 30
0.0
 11
101.87
 21
96.7574
 31
0.0
  0
LINE
  8
0
 62
     0
 10
101.87
 20
96.7574
 30
0.0
 11
101.87
 21
99.8569
 31
0.0
  0
LINE
  8
0
 62
     0
 10
101.87
 20
99.8569
 30
0.0
 11
101.071
 21
99.8569
 31
0.0
  0
LINE
  8
0
 62
     0
 10
101.071
 20
99.8569
 30
0.0
 11
101.071
 21
100.858
 31
0.0
  0
LINE
  8
0
 62
     0
 10
101.071
 20
100.858
 30
0.0
 11
87.0701
 21
100.858
 31
0.0
  0
LINE
  8
0
 62
     0
 10
68.0201
 20
100.858
 30
0.0
 11
68.0201
 21
99.8569
 31
0.0
  0
LINE
  8
0
 62
     0
 10
68.0201
 20
99.8569
 30
0.0
 11
67.2207
 21
99.8569
 31
0.0
  0
LINE
  8
0
 62
     0
 10
67.2207
 20
99.8569
 30
0.0
 11
67.2207
 21
96.7574
 31
0.0
  0
LINE
  8
0
 62
     0
 10
67.2207
 20
96.7574
 30
0.0
 11
68.0201
 21
96.7574
 31
0.0
  0
LINE
  8
0
 62
     0
 10
68.0201
 20
96.7574
 30
0.0
 11
68.0201
 21
90.9588
 31
0.0
  0
LINE
  8
0
 62
     0
 10
68.0201
 20
90.9588
 30
0.0
 11
67.2207
 21
90.9588
 31
0.0
  0
LINE
  8
0
 62
     0
 10
67.2207
 20
90.9588
 30
0.0
 11
67.2207
 21
87.8568
 31
0.0
  0
LINE
  8
0
 62
     0
 10
67.2207
 20
87.8568
 30
0.0
 11
68.0201
 21
87.8568
 31
0.0
  0
LINE
  8
0
 62
     0
 10
68.0201
 20
87.8568
 30
0.0
 11
68.0201
 21
86.8578
 31
0.0
  0
LINE
  8
0
 62
     0
 10
68.0201
 20
86.8578
 30
0.0
 11
82.0208
 21
86.8578
 31
0.0
  0
LINE
  8
0
 62
     0
 10
82.0208
 20
86.8578
 30
0.0
 11
82.0208
 21
87.8568
 31
0.0
  0
LINE
  8
0
 62
     0
 10
82.0208
 20
87.8568
 30
0.0
 11
82.8202
 21
87.8568
 31
0.0
  0
LINE
  8
0
 62
     0
 10
82.8202
 20
87.8568
 30
0.0
 11
82.8202
 21
90.9588
 31
0.0
  0
LINE
  8
0
 62
     0
 10
82.8202
 20
90.9588
 30
0.0
 11
82.0208
 21
90.9588
 31
0.0
  0
LINE
  8
0
 62
     0
 10
82.0208
 20
90.9588
 30
0.0
 11
82.0208
 21
96.7574
 31
0.0
  0
LINE
  8
0
 62
     0
 10
82.0208
 20
96.7574
 30
0.0
 11
82.8202
 21
96.7574
 31
0.0
  0
LINE
  8
0
 62
     0
 10
82.8202
 20
96.7574
 30
0.0
 11
82.8202
 21
99.8569
 31
0.0
  0
LINE
  8
0
 62
     0
 10
82.8202
 20
99.8569
 30
0.0
 11
82.0208
 21
99.8569
 31
0.0
  0
LINE
  8
0
 62
     0
 10
82.0208
 20
99.8569
 30
0.0
 11
82.0208
 21
100.858
 31
0.0
  0
LINE
  8
0
 62
     0
 10
82.0208
 20
100.858
 30
0.0
 11
68.0201
 21
100.858
 31
0.0
  0
LINE
  8
0
 62
     0
 10
48.9701
 20
100.858
 30
0.0
 11
48.9701
 21
99.8569
 31
0.0
  0
LINE
  8
0
 62
     0
 10
48.9701
 20
99.8569
 30
0.0
 11
48.1707
 21
99.8569
 31
0.0
  0
LINE
  8
0
 62
     0
 10
48.1707
 20
99.8569
 30
0.0
 11
48.1707
 21
96.7574
 31
0.0
  0
LINE
  8
0
 62
     0
 10
48.1707
 20
96.7574
 30
0.0
 11
48.9701
 21
96.7574
 31
0.0
  0
LINE
  8
0
 62
     0
 10
48.9701
 20
96.7574
 30
0.0
 11
48.9701
 21
90.9588
 31
0.0
  0
LINE
  8
0
 62
     0
 10
48.9701
 20
90.9588
 30
0.0
 11
48.1707
 21
90.9588
 31
0.0
  0
LINE
  8
0
 62
     0
 10
48.1707
 20
90.9588
 30
0.0
 11
48.1707
 21
87.8568
 31
0.0
  0
LINE
  8
0
 62
     0
 10
48.1707
 20
87.8568
 30
0.0
 11
48.9701
 21
87.8568
 31
0.0
  0
LINE
  8
0
 62
     0
 10
48.9701
 20
87.8568
 30
0.0
 11
48.9701
 21
86.8578
 31
0.0
  0
LINE
  8
0
 62
     0
 10
48.9701
 20
86.8578
 30
0.0
 11
62.9708
 21
86.8578
 31
0.0
  0
LINE
  8
0
 62
     0
 10
62.9708
 20
86.8578
 30
0.0
 11
62.9708
 21
87.8568
 31
0.0
  0
LINE
  8
0
 62
     0
 10
62.9708
 20
87.8568
 30
0.0
 11
63.7702
 21
87.8568
 31
0.0
  0
LINE
  8
0
 62
     0
 10
63.7702
 20
87.8568
 30
0.0
 11
63.7702
 21
90.9588
 31
0.0
  0
LINE
  8
0
 62
     0
 10
63.7702
 20
90.9588
 30
0.0
 11
62.9708
 21
90.9588
 31
0.0
  0
LINE
  8
0
 62
     0
 10
62.9708
 20
90.9588
 30
0.0
 11
62.9708
 21
96.7574
 31
0.0
  0
LINE
  8
0
 62
     0
 10
62.9708
 20
96.7574
 30
0.0
 11
63.7702
 21
96.7574
 31
0.0
  0
LINE
  8
0
 62
     0
 10
63.7702
 20
96.7574
 30
0.0
 11
63.7702
 21
99.8569
 31
0.0
  0
LINE
  8
0
 62
     0
 10
63.7702
 20
99.8569
 30
0.0
 11
62.9708
 21
99.8569
 31
0.0
  0
LINE
  8
0
 62
     0
 10
62.9708
 20
99.8569
 30
0.0
 11
62.9708
 21
100.858
 31
0.0
  0
LINE
  8
0
 62
     0
 10
62.9708
 20
100.858
 30
0.0
 11
48.9701
 21
100.858
 31
0.0
  0
LINE
  8
0
 62
     0
 10
29.92
 20
100.858
 30
0.0
 11
29.92
 21
99.8569
 31
0.0
  0
LINE
  8
0
 62
     0
 10
29.92
 20
99.8569
 30
0.0
 11
29.1207
 21
99.8569
 31
0.0
  0
LINE
  8
0
 62
     0
 10
29.1207
 20
99.8569
 30
0.0
 11
29.1207
 21
96.7574
 31
0.0
  0
LINE
  8
0
 62
     0
 10
29.1207
 20
96.7574
 30
0.0
 11
29.92
 21
96.7574
 31
0.0
  0
LINE
  8
0
 62
     0
 10
29.92
 20
96.7574
 30
0.0
 11
29.92
 21
90.9588
 31
0.0
  0
LINE
  8
0
 62
     0
 10
29.92
 20
90.9588
 30
0.0
 11
29.1207
 21
90.9588
 31
0.0
  0
LINE
  8
0
 62
     0
 10
29.1207
 20
90.9588
 30
0.0
 11
29.1207
 21
87.8568
 31
0.0
  0
LINE
  8
0
 62
     0
 10
29.1207
 20
87.8568
 30
0.0
 11
29.92
 21
87.8568
 31
0.0
  0
LINE
  8
0
 62
     0
 10
29.92
 20
87.8568
 30
0.0
 11
29.92
 21
86.8578
 31
0.0
  0
LINE
  8
0
 62
     0
 10
29.92
 20
86.8578
 30
0.0
 11
43.9208
 21
86.8578
 31
0.0
  0
LINE
  8
0
 62
     0
 10
43.9208
 20
86.8578
 30
0.0
 11
43.9208
 21
87.8568
 31
0.0
  0
LINE
  8
0
 62
     0
 10
43.9208
 20
87.8568
 30
0.0
 11
44.7202
 21
87.8568
 31
0.0
  0
LINE
  8
0
 62
     0
 10
44.7202
 20
87.8568
 30
0.0
 11
44.7202
 21
90.9588
 31
0.0
  0
LINE
  8
0
 62
     0
 10
44.7202
 20
90.9588
 30
0.0
 11
43.9208
 21
90.9588
 31
0.0
  0
LINE
  8
0
 62
     0
 10
43.9208
 20
90.9588
 30
0.0
 11
43.9208
 21
96.7574
 31
0.0
  0
LINE
  8
0
 62
     0
 10
43.9208
 20
96.7574
 30
0.0
 11
44.7202
 21
96.7574
 31
0.0
  0
LINE
  8
0
 62
     0
 10
44.7202
 20
96.7574
 30
0.0
 11
44.7202
 21
99.8569
 31
0.0
  0
LINE
  8
0
 62
     0
 10
44.7202
 20
99.8569
 30
0.0
 11
43.9208
 21
99.8569
 31
0.0
  0
LINE
  8
0
 62
     0
 10
43.9208
 20
99.8569
 30
0.0
 11
43.9208
 21
100.858
 31
0.0
  0
LINE
  8
0
 62
     0
 10
43.9208
 20
100.858
 30
0.0
 11
29.92
 21
100.858
 31
0.0
  0
LINE
  8
0
 62
     0
 10
10.87
 20
100.858
 30
0.0
 11
10.87
 21
99.8569
 31
0.0
  0
LINE
  8
0
 62
     0
 10
10.87
 20
99.8569
 30
0.0
 11
10.0693
 21
99.8569
 31
0.0
  0
LINE
  8
0
 62
     0
 10
10.0693
 20
99.8569
 30
0.0
 11
10.0693
 21
96.7574
 31
0.0
  0
LINE
  8
0
 62
     0
 10
10.0693
 20
96.7574
 30
0.0
 11
10.87
 21
96.7574
 31
0.0
  0
LINE
  8
0
 62
     0
 10
10.87
 20
96.7574
 30
0.0
 11
10.87
 21
90.9588
 31
0.0
  0
LINE
  8
0
 62
     0
 10
10.87
 20
90.9588
 30
0.0
 11
10.0693
 21
90.9588
 31
0.0
  0
LINE
  8
0
 62
     0
 10
10.0693
 20
90.9588
 30
0.0
 11
10.0693
 21
87.8568
 31
0.0
  0
LINE
  8
0
 62
     0
 10
10.0693
 20
87.8568
 30
0.0
 11
10.87
 21
87.8568
 31
0.0
  0
LINE
  8
0
 62
     0
 10
10.87
 20
87.8568
 30
0.0
 11
10.87
 21
86.8578
 31
0.0
  0
LINE
  8
0
 62
     0
 10
10.87
 20
86.8578
 30
0.0
 11
24.8708
 21
86.8578
 31
0.0
  0
LINE
  8
0
 62
     0
 10
24.8708
 20
86.8578
 30
0.0
 11
24.8708
 21
87.8568
 31
0.0
  0
LINE
  8
0
 62
     0
 10
24.8708
 20
87.8568
 30
0.0
 11
25.6701
 21
87.8568
 31
0.0
  0
LINE
  8
0
 62
     0
 10
25.6701
 20
87.8568
 30
0.0
 11
25.6701
 21
90.9588
 31
0.0
  0
LINE
  8
0
 62
     0
 10
25.6701
 20
90.9588
 30
0.0
 11
24.8708
 21
90.9588
 31
0.0
  0
LINE
  8
0
 62
     0
 10
24.8708
 20
90.9588
 30
0.0
 11
24.8708
 21
96.7574
 31
0.0
  0
LINE
  8
0
 62
     0
 10
24.8708
 20
96.7574
 30
0.0
 11
25.6701
 21
96.7574
 31
0.0
  0
LINE
  8
0
 62
     0
 10
25.6701
 20
96.7574
 30
0.0
 11
25.6701
 21
99.8569
 31
0.0
  0
LINE
  8
0
 62
     0
 10
25.6701
 20
99.8569
 30
0.0
 11
24.8708
 21
99.8569
 31
0.0
  0
LINE
  8
0
 62
     0
 10
24.8708
 20
99.8569
 30
0.0
 11
24.8708
 21
100.858
 31
0.0
  0
LINE
  8
0
 62
     0
 10
24.8708
 20
100.858
 30
0.0
 11
10.87
 21
100.858
 31
0.0
  0
LINE
  8
0
 62
     0
 10
3.27008
 20
108.882
 30
0.0
 11
2.97794
 21
108.733
 31
0.0
  0
LINE
  8
0
 62
     0
 10
2.97794
 20
108.733
 30
0.0
 11
2.74505
 21
108.5
 31
0.0
  0
LINE
  8
0
 62
     0
 10
2.74505
 20
108.5
 30
0.0
 11
2.59623
 21
108.208
 31
0.0
  0
LINE
  8
0
 62
     0
 10
2.59623
 20
108.208
 30
0.0
 11
2.54386
 21
107.883
 31
0.0
  0
LINE
  8
0
 62
     0
 10
2.54386
 20
107.883
 30
0.0
 11
2.59623
 21
107.559
 31
0.0
  0
LINE
  8
0
 62
     0
 10
2.59623
 20
107.559
 30
0.0
 11
2.74505
 21
107.265
 31
0.0
  0
LINE
  8
0
 62
     0
 10
2.74505
 20
107.265
 30
0.0
 11
2.97794
 21
107.033
 31
0.0
  0
LINE
  8
0
 62
     0
 10
2.97794
 20
107.033
 30
0.0
 11
3.27008
 21
106.885
 31
0.0
  0
LINE
  8
0
 62
     0
 10
3.27008
 20
106.885
 30
0.0
 11
3.59392
 21
106.832
 31
0.0
  0
LINE
  8
0
 62
     0
 10
3.59392
 20
106.832
 30
0.0
 11
3.91915
 21
106.885
 31
0.0
  0
LINE
  8
0
 62
     0
 10
3.91915
 20
106.885
 30
0.0
 11
4.21266
 21
107.033
 31
0.0
  0
LINE
  8
0
 62
     0
 10
4.21266
 20
107.033
 30
0.0
 11
4.44419
 21
107.265
 31
0.0
  0
LINE
  8
0
 62
     0
 10
4.44419
 20
107.265
 30
0.0
 11
4.59299
 21
107.559
 31
0.0
  0
LINE
  8
0
 62
     0
 10
4.59299
 20
107.559
 30
0.0
 11
4.644
 21
107.883
 31
0.0
  0
LINE
  8
0
 62
     0
 10
4.644
 20
107.883
 30
0.0
 11
4.59299
 21
108.208
 31
0.0
  0
LINE
  8
0
 62
     0
 10
4.59299
 20
108.208
 30
0.0
 11
4.44419
 21
108.5
 31
0.0
  0
LINE
  8
0
 62
     0
 10
4.44419
 20
108.5
 30
0.0
 11
4.21266
 21
108.733
 31
0.0
  0
LINE
  8
0
 62
     0
 10
4.21266
 20
108.733
 30
0.0
 11
3.91915
 21
108.882
 31
0.0
  0
LINE
  8
0
 62
     0
 10
3.91915
 20
108.882
 30
0.0
 11
3.59392
 21
108.932
 31
0.0
  0
LINE
  8
0
 62
     0
 10
3.59392
 20
108.932
 30
0.0
 11
3.27008
 21
108.882
 31
0.0
  0
LINE
  8
0
 62
     0
 10
317.572
 20
108.882
 30
0.0
 11
317.278
 21
108.733
 31
0.0
  0
LINE
  8
0
 62
     0
 10
317.278
 20
108.733
 30
0.0
 11
317.047
 21
108.5
 31
0.0
  0
LINE
  8
0
 62
     0
 10
317.047
 20
108.5
 30
0.0
 11
316.898
 21
108.208
 31
0.0
  0
LINE
  8
0
 62
     0
 10
316.898
 20
108.208
 30
0.0
 11
316.847
 21
107.883
 31
0.0
  0
LINE
  8
0
 62
     0
 10
316.847
 20
107.883
 30
0.0
 11
316.898
 21
107.559
 31
0.0
  0
LINE
  8
0
 62
     0
 10
316.898
 20
107.559
 30
0.0
 11
317.047
 21
107.265
 31
0.0
  0
LINE
  8
0
 62
     0
 10
317.047
 20
107.265
 30
0.0
 11
317.278
 21
107.033
 31
0.0
  0
LINE
  8
0
 62
     0
 10
317.278
 20
107.033
 30
0.0
 11
317.572
 21
106.885
 31
0.0
  0
LINE
  8
0
 62
     0
 10
317.572
 20
106.885
 30
0.0
 11
317.897
 21
106.832
 31
0.0
  0
LINE
  8
0
 62
     0
 10
317.897
 20
106.832
 30
0.0
 11
318.221
 21
106.885
 31
0.0
  0
LINE
  8
0
 62
     0
 10
318.221
 20
106.885
 30
0.0
 11
318.513
 21
107.033
 31
0.0
  0
LINE
  8
0
 62
     0
 10
318.513
 20
107.033
 30
0.0
 11
318.746
 21
107.265
 31
0.0
  0
LINE
  8
0
 62
     0
 10
318.746
 20
107.265
 30
0.0
 11
318.895
 21
107.559
 31
0.0
  0
LINE
  8
0
 62
     0
 10
318.895
 20
107.559
 30
0.0
 11
318.947
 21
107.883
 31
0.0
  0
LINE
  8
0
 62
     0
 10
318.947
 20
107.883
 30
0.0
 11
318.895
 21
108.208
 31
0.0
  0
LINE
  8
0
 62
     0
 10
318.895
 20
108.208
 30
0.0
 11
318.746
 21
108.5
 31
0.0
  0
LINE
  8
0
 62
     0
 10
318.746
 20
108.5
 30
0.0
 11
318.513
 21
108.733
 31
0.0
  0
LINE
  8
0
 62
     0
 10
318.513
 20
108.733
 30
0.0
 11
318.221
 21
108.882
 31
0.0
  0
LINE
  8
0
 62
     0
 10
318.221
 20
108.882
 30
0.0
 11
317.897
 21
108.932
 31
0.0
  0
LINE
  8
0
 62
     0
 10
317.897
 20
108.932
 30
0.0
 11
317.572
 21
108.882
 31
0.0
  0
LINE
  8
0
 62
     0
 10
212.805
 20
108.882
 30
0.0
 11
212.512
 21
108.733
 31
0.0
  0
LINE
  8
0
 62
     0
 10
212.512
 20
108.733
 30
0.0
 11
212.28
 21
108.5
 31
0.0
  0
LINE
  8
0
 62
     0
 10
212.28
 20
108.5
 30
0.0
 11
212.131
 21
108.208
 31
0.0
  0
LINE
  8
0
 62
     0
 10
212.131
 20
108.208
 30
0.0
 11
212.08
 21
107.883
 31
0.0
  0
LINE
  8
0
 62
     0
 10
212.08
 20
107.883
 30
0.0
 11
212.131
 21
107.559
 31
0.0
  0
LINE
  8
0
 62
     0
 10
212.131
 20
107.559
 30
0.0
 11
212.28
 21
107.265
 31
0.0
  0
LINE
  8
0
 62
     0
 10
212.28
 20
107.265
 30
0.0
 11
212.512
 21
107.033
 31
0.0
  0
LINE
  8
0
 62
     0
 10
212.512
 20
107.033
 30
0.0
 11
212.805
 21
106.885
 31
0.0
  0
LINE
  8
0
 62
     0
 10
212.805
 20
106.885
 30
0.0
 11
213.13
 21
106.832
 31
0.0
  0
LINE
  8
0
 62
     0
 10
213.13
 20
106.832
 30
0.0
 11
213.454
 21
106.885
 31
0.0
  0
LINE
  8
0
 62
     0
 10
213.454
 20
106.885
 30
0.0
 11
213.746
 21
107.033
 31
0.0
  0
LINE
  8
0
 62
     0
 10
213.746
 20
107.033
 30
0.0
 11
213.979
 21
107.265
 31
0.0
  0
LINE
  8
0
 62
     0
 10
213.979
 20
107.265
 30
0.0
 11
214.128
 21
107.559
 31
0.0
  0
LINE
  8
0
 62
     0
 10
214.128
 20
107.559
 30
0.0
 11
214.179
 21
107.883
 31
0.0
  0
LINE
  8
0
 62
     0
 10
214.179
 20
107.883
 30
0.0
 11
214.128
 21
108.208
 31
0.0
  0
LINE
  8
0
 62
     0
 10
214.128
 20
108.208
 30
0.0
 11
213.979
 21
108.5
 31
0.0
  0
LINE
  8
0
 62
     0
 10
213.979
 20
108.5
 30
0.0
 11
213.746
 21
108.733
 31
0.0
  0
LINE
  8
0
 62
     0
 10
213.746
 20
108.733
 30
0.0
 11
213.454
 21
108.882
 31
0.0
  0
LINE
  8
0
 62
     0
 10
213.454
 20
108.882
 30
0.0
 11
213.13
 21
108.932
 31
0.0
  0
LINE
  8
0
 62
     0
 10
213.13
 20
108.932
 30
0.0
 11
212.805
 21
108.882
 31
0.0
  0
LINE
  8
0
 62
     0
 10
108.037
 20
108.882
 30
0.0
 11
107.745
 21
108.733
 31
0.0
  0
LINE
  8
0
 62
     0
 10
107.745
 20
108.733
 30
0.0
 11
107.513
 21
108.5
 31
0.0
  0
LINE
  8
0
 62
     0
 10
107.513
 20
108.5
 30
0.0
 11
107.363
 21
108.208
 31
0.0
  0
LINE
  8
0
 62
     0
 10
107.363
 20
108.208
 30
0.0
 11
107.312
 21
107.883
 31
0.0
  0
LINE
  8
0
 62
     0
 10
107.312
 20
107.883
 30
0.0
 11
107.363
 21
107.559
 31
0.0
  0
LINE
  8
0
 62
     0
 10
107.363
 20
107.559
 30
0.0
 11
107.513
 21
107.265
 31
0.0
  0
LINE
  8
0
 62
     0
 10
107.513
 20
107.265
 30
0.0
 11
107.745
 21
107.033
 31
0.0
  0
LINE
  8
0
 62
     0
 10
107.745
 20
107.033
 30
0.0
 11
108.037
 21
106.885
 31
0.0
  0
LINE
  8
0
 62
     0
 10
108.037
 20
106.885
 30
0.0
 11
108.362
 21
106.832
 31
0.0
  0
LINE
  8
0
 62
     0
 10
108.362
 20
106.832
 30
0.0
 11
108.686
 21
106.885
 31
0.0
  0
LINE
  8
0
 62
     0
 10
108.686
 20
106.885
 30
0.0
 11
108.979
 21
107.033
 31
0.0
  0
LINE
  8
0
 62
     0
 10
108.979
 20
107.033
 30
0.0
 11
109.211
 21
107.265
 31
0.0
  0
LINE
  8
0
 62
     0
 10
109.211
 20
107.265
 30
0.0
 11
109.361
 21
107.559
 31
0.0
  0
LINE
  8
0
 62
     0
 10
109.361
 20
107.559
 30
0.0
 11
109.412
 21
107.883
 31
0.0
  0
LINE
  8
0
 62
     0
 10
109.412
 20
107.883
 30
0.0
 11
109.361
 21
108.208
 31
0.0
  0
LINE
  8
0
 62
     0
 10
109.361
 20
108.208
 30
0.0
 11
109.211
 21
108.5
 31
0.0
  0
LINE
  8
0
 62
     0
 10
109.211
 20
108.5
 30
0.0
 11
108.979
 21
108.733
 31
0.0
  0
LINE
  8
0
 62
     0
 10
108.979
 20
108.733
 30
0.0
 11
108.686
 21
108.882
 31
0.0
  0
LINE
  8
0
 62
     0
 10
108.686
 20
108.882
 30
0.0
 11
108.362
 21
108.932
 31
0.0
  0
LINE
  8
0
 62
     0
 10
108.362
 20
108.932
 30
0.0
 11
108.037
 21
108.882
 31
0.0
  0
ENDSEC
  0
EOF
