<?xml version="1.0"?>
<!-- Generated by SVGo -->
<svg width="331.302mm" height="120.252mm"
     viewBox="0.000 0.000 331.302 120.252"
     xmlns="http://www.w3.org/2000/svg" 
     xmlns:xlink="http://www.w3.org/1999/xlink">
<polygon points="60.651,12.001 12.001,12.001 12.001,108.251 319.302,108.251 319.302,12.001 70.651,12.001 70.651,5.000 321.302,5.001 321.694,5.016 322.084,5.062 322.469,5.139 322.847,5.245 323.215,5.381 323.571,5.545 323.914,5.737 324.240,5.955 324.549,6.198 324.837,6.465 325.104,6.753 325.347,7.062 325.565,7.388 325.757,7.731 325.921,8.087 326.057,8.455 326.163,8.833 326.240,9.218 326.286,9.608 326.301,10.001 326.302,110.251 326.286,110.644 326.240,111.034 326.163,111.419 326.057,111.797 325.921,112.165 325.757,112.521 325.565,112.864 325.347,113.190 325.104,113.499 324.837,113.787 324.549,114.054 324.240,114.297 323.914,114.515 323.571,114.707 323.215,114.871 322.847,115.007 322.469,115.113 322.084,115.190 321.694,115.236 321.302,115.252 10.001,115.251 9.608,115.236 9.218,115.190 8.833,115.113 8.455,115.007 8.087,114.871 7.731,114.707 7.388,114.515 7.062,114.297 6.753,114.054 6.465,113.787 6.198,113.499 5.955,113.190 5.737,112.864 5.545,112.521 5.381,112.165 5.245,111.797 5.139,111.419 5.062,111.034 5.016,110.644 5.000,110.251 5.001,10.001 5.016,9.608 5.062,9.218 5.139,8.833 5.245,8.455 5.381,8.087 5.545,7.731 5.737,7.388 5.955,7.062 6.198,6.753 6.465,6.465 6.753,6.198 7.062,5.955 7.388,5.737 7.731,5.545 8.087,5.381 8.455,5.245 8.833,5.139 9.218,5.062 9.608,5.016 10.001,5.000 60.651,5.000" style="fill:none;stroke-width:0.050000mm;stroke:black"/>
<polygon points="8.176,110.753 7.883,110.902 7.651,111.134 7.502,111.427 7.450,111.752 7.502,112.076 7.651,112.369 7.883,112.601 8.176,112.750 8.500,112.802 8.825,112.750 9.118,112.601 9.350,112.369 9.499,112.076 9.550,111.752 9.499,111.427 9.350,111.134 9.118,110.902 8.825,110.753 8.500,110.702" style="fill:none;stroke-width:0.050000mm;stroke:black"/>
<polygon points="112.943,110.753 112.650,110.902 112.418,111.134 112.269,111.427 112.218,111.752 112.269,112.076 112.418,112.369 112.650,112.601 112.943,112.750 113.268,112.802 113.592,112.750 113.885,112.601 114.117,112.369 114.266,112.076 114.318,111.752 114.266,111.427 114.117,111.134 113.885,110.902 113.592,110.753 113.268,110.702" style="fill:none;stroke-width:0.050000mm;stroke:black"/>
<polygon points="217.710,110.753 217.417,110.902 217.185,111.134 217.036,111.427 216.985,111.752 217.036,112.076 217.185,112.369 217.417,112.601 217.710,112.750 218.035,112.802 218.359,112.750 218.652,112.601 218.884,112.369 219.033,112.076 219.085,111.752 219.033,111.427 218.884,111.134 218.652,110.902 218.359,110.753 218.035,110.702" style="fill:none;stroke-width:0.050000mm;stroke:black"/>
<polygon points="322.477,110.753 322.184,110.902 321.952,111.134 321.803,111.427 321.752,111.752 321.803,112.076 321.952,112.369 322.184,112.601 322.477,112.750 322.802,112.802 323.126,112.750 323.419,112.601 323.651,112.369 323.800,112.076 323.852,111.752 323.800,111.427 323.651,111.134 323.419,110.902 323.126,110.753 322.802,110.702" style="fill:none;stroke-width:0.050000mm;stroke:black"/>
<polygon points="8.176,7.502 7.883,7.651 7.651,7.883 7.502,8.176 7.450,8.501 7.502,8.825 7.651,9.118 7.883,9.350 8.176,9.499 8.500,9.551 8.825,9.499 9.118,9.350 9.350,9.118 9.499,8.825 9.550,8.501 9.499,8.176 9.350,7.883 9.118,7.651 8.825,7.502 8.500,7.451" style="fill:none;stroke-width:0.050000mm;stroke:black"/>
<polygon points="322.477,7.502 322.184,7.651 321.952,7.883 321.803,8.176 321.752,8.501 321.803,8.825 321.952,9.118 322.184,9.350 322.477,9.499 322.802,9.551 323.126,9.499 323.419,9.350 323.651,9.118 323.800,8.825 323.852,8.501 323.800,8.176 323.651,7.883 323.419,7.651 323.126,7.502 322.802,7.451" style="fill:none;stroke-width:0.050000mm;stroke:black"/>
<polygon points="217.710,7.502 217.417,7.651 217.185,7.883 217.036,8.176 216.985,8.501 217.036,8.825 217.185,9.118 217.417,9.350 217.710,9.499 218.035,9.551 218.359,9.499 218.652,9.350 218.884,9.118 219.033,8.825 219.085,8.501 219.033,8.176 218.884,7.883 218.652,7.651 218.359,7.502 218.035,7.451" style="fill:none;stroke-width:0.050000mm;stroke:black"/>
<polygon points="112.943,7.502 112.650,7.651 112.418,7.883 112.269,8.176 112.218,8.501 112.269,8.825 112.418,9.118 112.650,9.350 112.943,9.499 113.268,9.551 113.592,9.499 113.885,9.350 114.117,9.118 114.266,8.825 114.318,8.501 114.266,8.176 114.117,7.883 113.885,7.651 113.592,7.502 113.268,7.451" style="fill:none;stroke-width:0.050000mm;stroke:black"/>
</svg>
