  0
SECTION
  2
HEADER
  9
$ACADVER
  1
AC1009
  9
$EXTMIN
 10
0.0
 20
0.0
 30
0.0
  9
$EXTMAX
 10
1000.0
 20
1000.0
 30
0.0
  9
$FILLMODE
 70
 0
  9
$SPLFRAME
 70
 1
  0
ENDSEC
  0
SECTION
  2
TABLES
  0
TABLE
  2
LAYER
 70
1
  0
LAYER
  2
0
 70
     0
 62
     7
  6
CONTINUOUS
  0
ENDTAB
  0
ENDSEC
  0
SECTION
  2
ENTITIES
  0
LINE
  8
0
 62
     0
 10
55.7459
 20
104.382
 30
0.0
 11
7.09553
 21
104.382
 31
0.0
  0
LINE
  8
0
 62
     0
 10
7.09553
 20
104.382
 30
0.0
 11
7.09553
 21
7.13274
 31
0.0
  0
LINE
  8
0
 62
     0
 10
7.09553
 20
7.13274
 30
0.0
 11
314.397
 21
7.13274
 31
0.0
  0
LINE
  8
0
 62
     0
 10
314.397
 20
7.13274
 30
0.0
 11
314.397
 21
104.382
 31
0.0
  0
LINE
  8
0
 62
     0
 10
314.397
 20
104.382
 30
0.0
 11
65.7447
 21
104.382
 31
0.0
  0
LINE
  8
0
 62
     0
 10
65.7447
 20
104.382
 30
0.0
 11
65.7447
 21
111.383
 31
0.0
  0
LINE
  8
0
 62
     0
 10
65.7447
 20
111.383
 30
0.0
 11
315.397
 21
111.383
 31
0.0
  0
LINE
  8
0
 62
     0
 10
315.397
 20
111.383
 30
0.0
 11
315.867
 21
111.365
 31
0.0
  0
LINE
  8
0
 62
     0
 10
315.867
 20
111.365
 30
0.0
 11
316.334
 21
111.31
 31
0.0
  0
LINE
  8
0
 62
     0
 10
316.334
 20
111.31
 30
0.0
 11
316.796
 21
111.217
 31
0.0
  0
LINE
  8
0
 62
     0
 10
316.796
 20
111.217
 30
0.0
 11
317.251
 21
111.089
 31
0.0
  0
LINE
  8
0
 62
     0
 10
317.251
 20
111.089
 30
0.0
 11
317.693
 21
110.927
 31
0.0
  0
LINE
  8
0
 62
     0
 10
317.693
 20
110.927
 30
0.0
 11
318.12
 21
110.73
 31
0.0
  0
LINE
  8
0
 62
     0
 10
318.12
 20
110.73
 30
0.0
 11
318.531
 21
110.498
 31
0.0
  0
LINE
  8
0
 62
     0
 10
318.531
 20
110.498
 30
0.0
 11
318.922
 21
110.237
 31
0.0
  0
LINE
  8
0
 62
     0
 10
318.922
 20
110.237
 30
0.0
 11
319.293
 21
109.945
 31
0.0
  0
LINE
  8
0
 62
     0
 10
319.293
 20
109.945
 30
0.0
 11
319.639
 21
109.626
 31
0.0
  0
LINE
  8
0
 62
     0
 10
319.639
 20
109.626
 30
0.0
 11
319.959
 21
109.28
 31
0.0
  0
LINE
  8
0
 62
     0
 10
319.959
 20
109.28
 30
0.0
 11
320.251
 21
108.909
 31
0.0
  0
LINE
  8
0
 62
     0
 10
320.251
 20
108.909
 30
0.0
 11
320.511
 21
108.518
 31
0.0
  0
LINE
  8
0
 62
     0
 10
320.511
 20
108.518
 30
0.0
 11
320.742
 21
108.106
 31
0.0
  0
LINE
  8
0
 62
     0
 10
320.742
 20
108.106
 30
0.0
 11
320.94
 21
107.68
 31
0.0
  0
LINE
  8
0
 62
     0
 10
320.94
 20
107.68
 30
0.0
 11
321.102
 21
107.237
 31
0.0
  0
LINE
  8
0
 62
     0
 10
321.102
 20
107.237
 30
0.0
 11
321.23
 21
106.783
 31
0.0
  0
LINE
  8
0
 62
     0
 10
321.23
 20
106.783
 30
0.0
 11
321.323
 21
106.321
 31
0.0
  0
LINE
  8
0
 62
     0
 10
321.323
 20
106.321
 30
0.0
 11
321.378
 21
105.853
 31
0.0
  0
LINE
  8
0
 62
     0
 10
321.378
 20
105.853
 30
0.0
 11
321.397
 21
105.383
 31
0.0
  0
LINE
  8
0
 62
     0
 10
321.397
 20
105.383
 30
0.0
 11
321.397
 21
6.13227
 31
0.0
  0
LINE
  8
0
 62
     0
 10
321.397
 20
6.13227
 30
0.0
 11
321.378
 21
5.66099
 31
0.0
  0
LINE
  8
0
 62
     0
 10
321.378
 20
5.66099
 30
0.0
 11
321.323
 21
5.19384
 31
0.0
  0
LINE
  8
0
 62
     0
 10
321.323
 20
5.19384
 30
0.0
 11
321.23
 21
4.73082
 31
0.0
  0
LINE
  8
0
 62
     0
 10
321.23
 20
4.73082
 30
0.0
 11
321.102
 21
4.27743
 31
0.0
  0
LINE
  8
0
 62
     0
 10
321.102
 20
4.27743
 30
0.0
 11
320.94
 21
3.83508
 31
0.0
  0
LINE
  8
0
 62
     0
 10
320.94
 20
3.83508
 30
0.0
 11
320.742
 21
3.40789
 31
0.0
  0
LINE
  8
0
 62
     0
 10
320.742
 20
3.40789
 30
0.0
 11
320.511
 21
2.99723
 31
0.0
  0
LINE
  8
0
 62
     0
 10
320.511
 20
2.99723
 30
0.0
 11
320.251
 21
2.60587
 31
0.0
  0
LINE
  8
0
 62
     0
 10
320.251
 20
2.60587
 30
0.0
 11
319.959
 21
2.23518
 31
0.0
  0
LINE
  8
0
 62
     0
 10
319.959
 20
2.23518
 30
0.0
 11
319.639
 21
1.88929
 31
0.0
  0
LINE
  8
0
 62
     0
 10
319.639
 20
1.88929
 30
0.0
 11
319.293
 21
1.56959
 31
0.0
  0
LINE
  8
0
 62
     0
 10
319.293
 20
1.56959
 30
0.0
 11
318.922
 21
1.27744
 31
0.0
  0
LINE
  8
0
 62
     0
 10
318.922
 20
1.27744
 30
0.0
 11
318.531
 21
1.01562
 31
0.0
  0
LINE
  8
0
 62
     0
 10
318.531
 20
1.01562
 30
0.0
 11
318.12
 21
0.785481
 31
0.0
  0
LINE
  8
0
 62
     0
 10
318.12
 20
0.785481
 30
0.0
 11
317.693
 21
0.588423
 31
0.0
  0
LINE
  8
0
 62
     0
 10
317.693
 20
0.588423
 30
0.0
 11
317.251
 21
0.425813
 31
0.0
  0
LINE
  8
0
 62
     0
 10
317.251
 20
0.425813
 30
0.0
 11
316.796
 21
0.297656
 31
0.0
  0
LINE
  8
0
 62
     0
 10
316.796
 20
0.297656
 30
0.0
 11
316.334
 21
0.205328
 31
0.0
  0
LINE
  8
0
 62
     0
 10
316.334
 20
0.205328
 30
0.0
 11
315.867
 21
0.150206
 31
0.0
  0
LINE
  8
0
 62
     0
 10
315.867
 20
0.150206
 30
0.0
 11
315.397
 21
0.130914
 31
0.0
  0
LINE
  8
0
 62
     0
 10
315.397
 20
0.130914
 30
0.0
 11
6.09505
 21
0.132292
 31
0.0
  0
LINE
  8
0
 62
     0
 10
6.09505
 20
0.132292
 30
0.0
 11
5.62515
 21
0.150206
 31
0.0
  0
LINE
  8
0
 62
     0
 10
5.62515
 20
0.150206
 30
0.0
 11
5.15662
 21
0.205328
 31
0.0
  0
LINE
  8
0
 62
     0
 10
5.15662
 20
0.205328
 30
0.0
 11
4.69498
 21
0.297656
 31
0.0
  0
LINE
  8
0
 62
     0
 10
4.69498
 20
0.297656
 30
0.0
 11
4.24021
 21
0.425813
 31
0.0
  0
LINE
  8
0
 62
     0
 10
4.24021
 20
0.425813
 30
0.0
 11
3.79786
 21
0.588423
 31
0.0
  0
LINE
  8
0
 62
     0
 10
3.79786
 20
0.588423
 30
0.0
 11
3.37206
 21
0.785481
 31
0.0
  0
LINE
  8
0
 62
     0
 10
3.37206
 20
0.785481
 30
0.0
 11
2.96003
 21
1.01562
 31
0.0
  0
LINE
  8
0
 62
     0
 10
2.96003
 20
1.01562
 30
0.0
 11
2.56866
 21
1.27744
 31
0.0
  0
LINE
  8
0
 62
     0
 10
2.56866
 20
1.27744
 30
0.0
 11
2.19797
 21
1.56959
 31
0.0
  0
LINE
  8
0
 62
     0
 10
2.19797
 20
1.56959
 30
0.0
 11
1.85208
 21
1.88929
 31
0.0
  0
LINE
  8
0
 62
     0
 10
1.85208
 20
1.88929
 30
0.0
 11
1.53238
 21
2.23518
 31
0.0
  0
LINE
  8
0
 62
     0
 10
1.53238
 20
2.23518
 30
0.0
 11
1.24024
 21
2.60587
 31
0.0
  0
LINE
  8
0
 62
     0
 10
1.24024
 20
2.60587
 30
0.0
 11
0.979784
 21
2.99723
 31
0.0
  0
LINE
  8
0
 62
     0
 10
0.979784
 20
2.99723
 30
0.0
 11
0.748273
 21
3.40789
 31
0.0
  0
LINE
  8
0
 62
     0
 10
0.748273
 20
3.40789
 30
0.0
 11
0.551215
 21
3.83508
 31
0.0
  0
LINE
  8
0
 62
     0
 10
0.551215
 20
3.83508
 30
0.0
 11
0.388606
 21
4.27743
 31
0.0
  0
LINE
  8
0
 62
     0
 10
0.388606
 20
4.27743
 30
0.0
 11
0.260449
 21
4.73082
 31
0.0
  0
LINE
  8
0
 62
     0
 10
0.260449
 20
4.73082
 30
0.0
 11
0.168121
 21
5.19384
 31
0.0
  0
LINE
  8
0
 62
     0
 10
0.168121
 20
5.19384
 30
0.0
 11
0.112999
 21
5.66099
 31
0.0
  0
LINE
  8
0
 62
     0
 10
0.112999
 20
5.66099
 30
0.0
 11
0.0950846
 21
6.13227
 31
0.0
  0
LINE
  8
0
 62
     0
 10
0.0950846
 20
6.13227
 30
0.0
 11
0.0950846
 21
105.383
 31
0.0
  0
LINE
  8
0
 62
     0
 10
0.0950846
 20
105.383
 30
0.0
 11
0.112999
 21
105.853
 31
0.0
  0
LINE
  8
0
 62
     0
 10
0.112999
 20
105.853
 30
0.0
 11
0.168121
 21
106.321
 31
0.0
  0
LINE
  8
0
 62
     0
 10
0.168121
 20
106.321
 30
0.0
 11
0.260449
 21
106.783
 31
0.0
  0
LINE
  8
0
 62
     0
 10
0.260449
 20
106.783
 30
0.0
 11
0.388606
 21
107.237
 31
0.0
  0
LINE
  8
0
 62
     0
 10
0.388606
 20
107.237
 30
0.0
 11
0.551215
 21
107.68
 31
0.0
  0
LINE
  8
0
 62
     0
 10
0.551215
 20
107.68
 30
0.0
 11
0.748273
 21
108.106
 31
0.0
  0
LINE
  8
0
 62
     0
 10
0.748273
 20
108.106
 30
0.0
 11
0.979784
 21
108.518
 31
0.0
  0
LINE
  8
0
 62
     0
 10
0.979784
 20
108.518
 30
0.0
 11
1.24024
 21
108.909
 31
0.0
  0
LINE
  8
0
 62
     0
 10
1.24024
 20
108.909
 30
0.0
 11
1.53238
 21
109.28
 31
0.0
  0
LINE
  8
0
 62
     0
 10
1.53238
 20
109.28
 30
0.0
 11
1.85208
 21
109.626
 31
0.0
  0
LINE
  8
0
 62
     0
 10
1.85208
 20
109.626
 30
0.0
 11
2.19797
 21
109.945
 31
0.0
  0
LINE
  8
0
 62
     0
 10
2.19797
 20
109.945
 30
0.0
 11
2.56866
 21
110.237
 31
0.0
  0
LINE
  8
0
 62
     0
 10
2.56866
 20
110.237
 30
0.0
 11
2.96003
 21
110.498
 31
0.0
  0
LINE
  8
0
 62
     0
 10
2.96003
 20
110.498
 30
0.0
 11
3.37206
 21
110.73
 31
0.0
  0
LINE
  8
0
 62
     0
 10
3.37206
 20
110.73
 30
0.0
 11
3.79786
 21
110.927
 31
0.0
  0
LINE
  8
0
 62
     0
 10
3.79786
 20
110.927
 30
0.0
 11
4.24021
 21
111.089
 31
0.0
  0
LINE
  8
0
 62
     0
 10
4.24021
 20
111.089
 30
0.0
 11
4.69498
 21
111.217
 31
0.0
  0
LINE
  8
0
 62
     0
 10
4.69498
 20
111.217
 30
0.0
 11
5.15662
 21
111.31
 31
0.0
  0
LINE
  8
0
 62
     0
 10
5.15662
 20
111.31
 30
0.0
 11
5.62515
 21
111.365
 31
0.0
  0
LINE
  8
0
 62
     0
 10
5.62515
 20
111.365
 30
0.0
 11
6.09505
 21
111.383
 31
0.0
  0
LINE
  8
0
 62
     0
 10
6.09505
 20
111.383
 30
0.0
 11
55.7459
 21
111.383
 31
0.0
  0
LINE
  8
0
 62
     0
 10
55.7459
 20
111.383
 30
0.0
 11
55.7459
 21
104.382
 31
0.0
  0
LINE
  8
0
 62
     0
 10
3.27008
 20
4.63021
 30
0.0
 11
2.97794
 21
4.48137
 31
0.0
  0
LINE
  8
0
 62
     0
 10
2.97794
 20
4.48137
 30
0.0
 11
2.74505
 21
4.24988
 31
0.0
  0
LINE
  8
0
 62
     0
 10
2.74505
 20
4.24988
 30
0.0
 11
2.59623
 21
3.95633
 31
0.0
  0
LINE
  8
0
 62
     0
 10
2.59623
 20
3.95633
 30
0.0
 11
2.54386
 21
3.63114
 31
0.0
  0
LINE
  8
0
 62
     0
 10
2.54386
 20
3.63114
 30
0.0
 11
2.59623
 21
3.30729
 31
0.0
  0
LINE
  8
0
 62
     0
 10
2.59623
 20
3.30729
 30
0.0
 11
2.74505
 21
3.01377
 31
0.0
  0
LINE
  8
0
 62
     0
 10
2.74505
 20
3.01377
 30
0.0
 11
2.97794
 21
2.78226
 31
0.0
  0
LINE
  8
0
 62
     0
 10
2.97794
 20
2.78226
 30
0.0
 11
3.27008
 21
2.63343
 31
0.0
  0
LINE
  8
0
 62
     0
 10
3.27008
 20
2.63343
 30
0.0
 11
3.59392
 21
2.58107
 31
0.0
  0
LINE
  8
0
 62
     0
 10
3.59392
 20
2.58107
 30
0.0
 11
3.91915
 21
2.63343
 31
0.0
  0
LINE
  8
0
 62
     0
 10
3.91915
 20
2.63343
 30
0.0
 11
4.21266
 21
2.78226
 31
0.0
  0
LINE
  8
0
 62
     0
 10
4.21266
 20
2.78226
 30
0.0
 11
4.44419
 21
3.01377
 31
0.0
  0
LINE
  8
0
 62
     0
 10
4.44419
 20
3.01377
 30
0.0
 11
4.59299
 21
3.30729
 31
0.0
  0
LINE
  8
0
 62
     0
 10
4.59299
 20
3.30729
 30
0.0
 11
4.644
 21
3.63114
 31
0.0
  0
LINE
  8
0
 62
     0
 10
4.644
 20
3.63114
 30
0.0
 11
4.59299
 21
3.95633
 31
0.0
  0
LINE
  8
0
 62
     0
 10
4.59299
 20
3.95633
 30
0.0
 11
4.44419
 21
4.24988
 31
0.0
  0
LINE
  8
0
 62
     0
 10
4.44419
 20
4.24988
 30
0.0
 11
4.21266
 21
4.48137
 31
0.0
  0
LINE
  8
0
 62
     0
 10
4.21266
 20
4.48137
 30
0.0
 11
3.91915
 21
4.63021
 31
0.0
  0
LINE
  8
0
 62
     0
 10
3.91915
 20
4.63021
 30
0.0
 11
3.59392
 21
4.68118
 31
0.0
  0
LINE
  8
0
 62
     0
 10
3.59392
 20
4.68118
 30
0.0
 11
3.27008
 21
4.63021
 31
0.0
  0
LINE
  8
0
 62
     0
 10
108.037
 20
4.63021
 30
0.0
 11
107.745
 21
4.48137
 31
0.0
  0
LINE
  8
0
 62
     0
 10
107.745
 20
4.48137
 30
0.0
 11
107.513
 21
4.24988
 31
0.0
  0
LINE
  8
0
 62
     0
 10
107.513
 20
4.24988
 30
0.0
 11
107.363
 21
3.95633
 31
0.0
  0
LINE
  8
0
 62
     0
 10
107.363
 20
3.95633
 30
0.0
 11
107.312
 21
3.63114
 31
0.0
  0
LINE
  8
0
 62
     0
 10
107.312
 20
3.63114
 30
0.0
 11
107.363
 21
3.30729
 31
0.0
  0
LINE
  8
0
 62
     0
 10
107.363
 20
3.30729
 30
0.0
 11
107.513
 21
3.01377
 31
0.0
  0
LINE
  8
0
 62
     0
 10
107.513
 20
3.01377
 30
0.0
 11
107.745
 21
2.78226
 31
0.0
  0
LINE
  8
0
 62
     0
 10
107.745
 20
2.78226
 30
0.0
 11
108.037
 21
2.63343
 31
0.0
  0
LINE
  8
0
 62
     0
 10
108.037
 20
2.63343
 30
0.0
 11
108.362
 21
2.58107
 31
0.0
  0
LINE
  8
0
 62
     0
 10
108.362
 20
2.58107
 30
0.0
 11
108.686
 21
2.63343
 31
0.0
  0
LINE
  8
0
 62
     0
 10
108.686
 20
2.63343
 30
0.0
 11
108.979
 21
2.78226
 31
0.0
  0
LINE
  8
0
 62
     0
 10
108.979
 20
2.78226
 30
0.0
 11
109.211
 21
3.01377
 31
0.0
  0
LINE
  8
0
 62
     0
 10
109.211
 20
3.01377
 30
0.0
 11
109.361
 21
3.30729
 31
0.0
  0
LINE
  8
0
 62
     0
 10
109.361
 20
3.30729
 30
0.0
 11
109.412
 21
3.63114
 31
0.0
  0
LINE
  8
0
 62
     0
 10
109.412
 20
3.63114
 30
0.0
 11
109.361
 21
3.95633
 31
0.0
  0
LINE
  8
0
 62
     0
 10
109.361
 20
3.95633
 30
0.0
 11
109.211
 21
4.24988
 31
0.0
  0
LINE
  8
0
 62
     0
 10
109.211
 20
4.24988
 30
0.0
 11
108.979
 21
4.48137
 31
0.0
  0
LINE
  8
0
 62
     0
 10
108.979
 20
4.48137
 30
0.0
 11
108.686
 21
4.63021
 31
0.0
  0
LINE
  8
0
 62
     0
 10
108.686
 20
4.63021
 30
0.0
 11
108.362
 21
4.68118
 31
0.0
  0
LINE
  8
0
 62
     0
 10
108.362
 20
4.68118
 30
0.0
 11
108.037
 21
4.63021
 31
0.0
  0
LINE
  8
0
 62
     0
 10
212.805
 20
4.63021
 30
0.0
 11
212.512
 21
4.48137
 31
0.0
  0
LINE
  8
0
 62
     0
 10
212.512
 20
4.48137
 30
0.0
 11
212.28
 21
4.24988
 31
0.0
  0
LINE
  8
0
 62
     0
 10
212.28
 20
4.24988
 30
0.0
 11
212.131
 21
3.95633
 31
0.0
  0
LINE
  8
0
 62
     0
 10
212.131
 20
3.95633
 30
0.0
 11
212.08
 21
3.63114
 31
0.0
  0
LINE
  8
0
 62
     0
 10
212.08
 20
3.63114
 30
0.0
 11
212.131
 21
3.30729
 31
0.0
  0
LINE
  8
0
 62
     0
 10
212.131
 20
3.30729
 30
0.0
 11
212.28
 21
3.01377
 31
0.0
  0
LINE
  8
0
 62
     0
 10
212.28
 20
3.01377
 30
0.0
 11
212.512
 21
2.78226
 31
0.0
  0
LINE
  8
0
 62
     0
 10
212.512
 20
2.78226
 30
0.0
 11
212.805
 21
2.63343
 31
0.0
  0
LINE
  8
0
 62
     0
 10
212.805
 20
2.63343
 30
0.0
 11
213.13
 21
2.58107
 31
0.0
  0
LINE
  8
0
 62
     0
 10
213.13
 20
2.58107
 30
0.0
 11
213.454
 21
2.63343
 31
0.0
  0
LINE
  8
0
 62
     0
 10
213.454
 20
2.63343
 30
0.0
 11
213.746
 21
2.78226
 31
0.0
  0
LINE
  8
0
 62
     0
 10
213.746
 20
2.78226
 30
0.0
 11
213.979
 21
3.01377
 31
0.0
  0
LINE
  8
0
 62
     0
 10
213.979
 20
3.01377
 30
0.0
 11
214.128
 21
3.30729
 31
0.0
  0
LINE
  8
0
 62
     0
 10
214.128
 20
3.30729
 30
0.0
 11
214.179
 21
3.63114
 31
0.0
  0
LINE
  8
0
 62
     0
 10
214.179
 20
3.63114
 30
0.0
 11
214.128
 21
3.95633
 31
0.0
  0
LINE
  8
0
 62
     0
 10
214.128
 20
3.95633
 30
0.0
 11
213.979
 21
4.24988
 31
0.0
  0
LINE
  8
0
 62
     0
 10
213.979
 20
4.24988
 30
0.0
 11
213.746
 21
4.48137
 31
0.0
  0
LINE
  8
0
 62
     0
 10
213.746
 20
4.48137
 30
0.0
 11
213.454
 21
4.63021
 31
0.0
  0
LINE
  8
0
 62
     0
 10
213.454
 20
4.63021
 30
0.0
 11
213.13
 21
4.68118
 31
0.0
  0
LINE
  8
0
 62
     0
 10
213.13
 20
4.68118
 30
0.0
 11
212.805
 21
4.63021
 31
0.0
  0
LINE
  8
0
 62
     0
 10
317.572
 20
4.63021
 30
0.0
 11
317.278
 21
4.48137
 31
0.0
  0
LINE
  8
0
 62
     0
 10
317.278
 20
4.48137
 30
0.0
 11
317.047
 21
4.24988
 31
0.0
  0
LINE
  8
0
 62
     0
 10
317.047
 20
4.24988
 30
0.0
 11
316.898
 21
3.95633
 31
0.0
  0
LINE
  8
0
 62
     0
 10
316.898
 20
3.95633
 30
0.0
 11
316.847
 21
3.63114
 31
0.0
  0
LINE
  8
0
 62
     0
 10
316.847
 20
3.63114
 30
0.0
 11
316.898
 21
3.30729
 31
0.0
  0
LINE
  8
0
 62
     0
 10
316.898
 20
3.30729
 30
0.0
 11
317.047
 21
3.01377
 31
0.0
  0
LINE
  8
0
 62
     0
 10
317.047
 20
3.01377
 30
0.0
 11
317.278
 21
2.78226
 31
0.0
  0
LINE
  8
0
 62
     0
 10
317.278
 20
2.78226
 30
0.0
 11
317.572
 21
2.63343
 31
0.0
  0
LINE
  8
0
 62
     0
 10
317.572
 20
2.63343
 30
0.0
 11
317.897
 21
2.58107
 31
0.0
  0
LINE
  8
0
 62
     0
 10
317.897
 20
2.58107
 30
0.0
 11
318.221
 21
2.63343
 31
0.0
  0
LINE
  8
0
 62
     0
 10
318.221
 20
2.63343
 30
0.0
 11
318.513
 21
2.78226
 31
0.0
  0
LINE
  8
0
 62
     0
 10
318.513
 20
2.78226
 30
0.0
 11
318.746
 21
3.01377
 31
0.0
  0
LINE
  8
0
 62
     0
 10
318.746
 20
3.01377
 30
0.0
 11
318.895
 21
3.30729
 31
0.0
  0
LINE
  8
0
 62
     0
 10
318.895
 20
3.30729
 30
0.0
 11
318.947
 21
3.63114
 31
0.0
  0
LINE
  8
0
 62
     0
 10
318.947
 20
3.63114
 30
0.0
 11
318.895
 21
3.95633
 31
0.0
  0
LINE
  8
0
 62
     0
 10
318.895
 20
3.95633
 30
0.0
 11
318.746
 21
4.24988
 31
0.0
  0
LINE
  8
0
 62
     0
 10
318.746
 20
4.24988
 30
0.0
 11
318.513
 21
4.48137
 31
0.0
  0
LINE
  8
0
 62
     0
 10
318.513
 20
4.48137
 30
0.0
 11
318.221
 21
4.63021
 31
0.0
  0
LINE
  8
0
 62
     0
 10
318.221
 20
4.63021
 30
0.0
 11
317.897
 21
4.68118
 31
0.0
  0
LINE
  8
0
 62
     0
 10
317.897
 20
4.68118
 30
0.0
 11
317.572
 21
4.63021
 31
0.0
  0
LINE
  8
0
 62
     0
 10
3.27008
 20
108.882
 30
0.0
 11
2.97794
 21
108.733
 31
0.0
  0
LINE
  8
0
 62
     0
 10
2.97794
 20
108.733
 30
0.0
 11
2.74505
 21
108.5
 31
0.0
  0
LINE
  8
0
 62
     0
 10
2.74505
 20
108.5
 30
0.0
 11
2.59623
 21
108.208
 31
0.0
  0
LINE
  8
0
 62
     0
 10
2.59623
 20
108.208
 30
0.0
 11
2.54386
 21
107.883
 31
0.0
  0
LINE
  8
0
 62
     0
 10
2.54386
 20
107.883
 30
0.0
 11
2.59623
 21
107.559
 31
0.0
  0
LINE
  8
0
 62
     0
 10
2.59623
 20
107.559
 30
0.0
 11
2.74505
 21
107.265
 31
0.0
  0
LINE
  8
0
 62
     0
 10
2.74505
 20
107.265
 30
0.0
 11
2.97794
 21
107.033
 31
0.0
  0
LINE
  8
0
 62
     0
 10
2.97794
 20
107.033
 30
0.0
 11
3.27008
 21
106.885
 31
0.0
  0
LINE
  8
0
 62
     0
 10
3.27008
 20
106.885
 30
0.0
 11
3.59392
 21
106.832
 31
0.0
  0
LINE
  8
0
 62
     0
 10
3.59392
 20
106.832
 30
0.0
 11
3.91915
 21
106.885
 31
0.0
  0
LINE
  8
0
 62
     0
 10
3.91915
 20
106.885
 30
0.0
 11
4.21266
 21
107.033
 31
0.0
  0
LINE
  8
0
 62
     0
 10
4.21266
 20
107.033
 30
0.0
 11
4.44419
 21
107.265
 31
0.0
  0
LINE
  8
0
 62
     0
 10
4.44419
 20
107.265
 30
0.0
 11
4.59299
 21
107.559
 31
0.0
  0
LINE
  8
0
 62
     0
 10
4.59299
 20
107.559
 30
0.0
 11
4.644
 21
107.883
 31
0.0
  0
LINE
  8
0
 62
     0
 10
4.644
 20
107.883
 30
0.0
 11
4.59299
 21
108.208
 31
0.0
  0
LINE
  8
0
 62
     0
 10
4.59299
 20
108.208
 30
0.0
 11
4.44419
 21
108.5
 31
0.0
  0
LINE
  8
0
 62
     0
 10
4.44419
 20
108.5
 30
0.0
 11
4.21266
 21
108.733
 31
0.0
  0
LINE
  8
0
 62
     0
 10
4.21266
 20
108.733
 30
0.0
 11
3.91915
 21
108.882
 31
0.0
  0
LINE
  8
0
 62
     0
 10
3.91915
 20
108.882
 30
0.0
 11
3.59392
 21
108.932
 31
0.0
  0
LINE
  8
0
 62
     0
 10
3.59392
 20
108.932
 30
0.0
 11
3.27008
 21
108.882
 31
0.0
  0
LINE
  8
0
 62
     0
 10
317.572
 20
108.882
 30
0.0
 11
317.278
 21
108.733
 31
0.0
  0
LINE
  8
0
 62
     0
 10
317.278
 20
108.733
 30
0.0
 11
317.047
 21
108.5
 31
0.0
  0
LINE
  8
0
 62
     0
 10
317.047
 20
108.5
 30
0.0
 11
316.898
 21
108.208
 31
0.0
  0
LINE
  8
0
 62
     0
 10
316.898
 20
108.208
 30
0.0
 11
316.847
 21
107.883
 31
0.0
  0
LINE
  8
0
 62
     0
 10
316.847
 20
107.883
 30
0.0
 11
316.898
 21
107.559
 31
0.0
  0
LINE
  8
0
 62
     0
 10
316.898
 20
107.559
 30
0.0
 11
317.047
 21
107.265
 31
0.0
  0
LINE
  8
0
 62
     0
 10
317.047
 20
107.265
 30
0.0
 11
317.278
 21
107.033
 31
0.0
  0
LINE
  8
0
 62
     0
 10
317.278
 20
107.033
 30
0.0
 11
317.572
 21
106.885
 31
0.0
  0
LINE
  8
0
 62
     0
 10
317.572
 20
106.885
 30
0.0
 11
317.897
 21
106.832
 31
0.0
  0
LINE
  8
0
 62
     0
 10
317.897
 20
106.832
 30
0.0
 11
318.221
 21
106.885
 31
0.0
  0
LINE
  8
0
 62
     0
 10
318.221
 20
106.885
 30
0.0
 11
318.513
 21
107.033
 31
0.0
  0
LINE
  8
0
 62
     0
 10
318.513
 20
107.033
 30
0.0
 11
318.746
 21
107.265
 31
0.0
  0
LINE
  8
0
 62
     0
 10
318.746
 20
107.265
 30
0.0
 11
318.895
 21
107.559
 31
0.0
  0
LINE
  8
0
 62
     0
 10
318.895
 20
107.559
 30
0.0
 11
318.947
 21
107.883
 31
0.0
  0
LINE
  8
0
 62
     0
 10
318.947
 20
107.883
 30
0.0
 11
318.895
 21
108.208
 31
0.0
  0
LINE
  8
0
 62
     0
 10
318.895
 20
108.208
 30
0.0
 11
318.746
 21
108.5
 31
0.0
  0
LINE
  8
0
 62
     0
 10
318.746
 20
108.5
 30
0.0
 11
318.513
 21
108.733
 31
0.0
  0
LINE
  8
0
 62
     0
 10
318.513
 20
108.733
 30
0.0
 11
318.221
 21
108.882
 31
0.0
  0
LINE
  8
0
 62
     0
 10
318.221
 20
108.882
 30
0.0
 11
317.897
 21
108.932
 31
0.0
  0
LINE
  8
0
 62
     0
 10
317.897
 20
108.932
 30
0.0
 11
317.572
 21
108.882
 31
0.0
  0
LINE
  8
0
 62
     0
 10
212.805
 20
108.882
 30
0.0
 11
212.512
 21
108.733
 31
0.0
  0
LINE
  8
0
 62
     0
 10
212.512
 20
108.733
 30
0.0
 11
212.28
 21
108.5
 31
0.0
  0
LINE
  8
0
 62
     0
 10
212.28
 20
108.5
 30
0.0
 11
212.131
 21
108.208
 31
0.0
  0
LINE
  8
0
 62
     0
 10
212.131
 20
108.208
 30
0.0
 11
212.08
 21
107.883
 31
0.0
  0
LINE
  8
0
 62
     0
 10
212.08
 20
107.883
 30
0.0
 11
212.131
 21
107.559
 31
0.0
  0
LINE
  8
0
 62
     0
 10
212.131
 20
107.559
 30
0.0
 11
212.28
 21
107.265
 31
0.0
  0
LINE
  8
0
 62
     0
 10
212.28
 20
107.265
 30
0.0
 11
212.512
 21
107.033
 31
0.0
  0
LINE
  8
0
 62
     0
 10
212.512
 20
107.033
 30
0.0
 11
212.805
 21
106.885
 31
0.0
  0
LINE
  8
0
 62
     0
 10
212.805
 20
106.885
 30
0.0
 11
213.13
 21
106.832
 31
0.0
  0
LINE
  8
0
 62
     0
 10
213.13
 20
106.832
 30
0.0
 11
213.454
 21
106.885
 31
0.0
  0
LINE
  8
0
 62
     0
 10
213.454
 20
106.885
 30
0.0
 11
213.746
 21
107.033
 31
0.0
  0
LINE
  8
0
 62
     0
 10
213.746
 20
107.033
 30
0.0
 11
213.979
 21
107.265
 31
0.0
  0
LINE
  8
0
 62
     0
 10
213.979
 20
107.265
 30
0.0
 11
214.128
 21
107.559
 31
0.0
  0
LINE
  8
0
 62
     0
 10
214.128
 20
107.559
 30
0.0
 11
214.179
 21
107.883
 31
0.0
  0
LINE
  8
0
 62
     0
 10
214.179
 20
107.883
 30
0.0
 11
214.128
 21
108.208
 31
0.0
  0
LINE
  8
0
 62
     0
 10
214.128
 20
108.208
 30
0.0
 11
213.979
 21
108.5
 31
0.0
  0
LINE
  8
0
 62
     0
 10
213.979
 20
108.5
 30
0.0
 11
213.746
 21
108.733
 31
0.0
  0
LINE
  8
0
 62
     0
 10
213.746
 20
108.733
 30
0.0
 11
213.454
 21
108.882
 31
0.0
  0
LINE
  8
0
 62
     0
 10
213.454
 20
108.882
 30
0.0
 11
213.13
 21
108.932
 31
0.0
  0
LINE
  8
0
 62
     0
 10
213.13
 20
108.932
 30
0.0
 11
212.805
 21
108.882
 31
0.0
  0
LINE
  8
0
 62
     0
 10
108.037
 20
108.882
 30
0.0
 11
107.745
 21
108.733
 31
0.0
  0
LINE
  8
0
 62
     0
 10
107.745
 20
108.733
 30
0.0
 11
107.513
 21
108.5
 31
0.0
  0
LINE
  8
0
 62
     0
 10
107.513
 20
108.5
 30
0.0
 11
107.363
 21
108.208
 31
0.0
  0
LINE
  8
0
 62
     0
 10
107.363
 20
108.208
 30
0.0
 11
107.312
 21
107.883
 31
0.0
  0
LINE
  8
0
 62
     0
 10
107.312
 20
107.883
 30
0.0
 11
107.363
 21
107.559
 31
0.0
  0
LINE
  8
0
 62
     0
 10
107.363
 20
107.559
 30
0.0
 11
107.513
 21
107.265
 31
0.0
  0
LINE
  8
0
 62
     0
 10
107.513
 20
107.265
 30
0.0
 11
107.745
 21
107.033
 31
0.0
  0
LINE
  8
0
 62
     0
 10
107.745
 20
107.033
 30
0.0
 11
108.037
 21
106.885
 31
0.0
  0
LINE
  8
0
 62
     0
 10
108.037
 20
106.885
 30
0.0
 11
108.362
 21
106.832
 31
0.0
  0
LINE
  8
0
 62
     0
 10
108.362
 20
106.832
 30
0.0
 11
108.686
 21
106.885
 31
0.0
  0
LINE
  8
0
 62
     0
 10
108.686
 20
106.885
 30
0.0
 11
108.979
 21
107.033
 31
0.0
  0
LINE
  8
0
 62
     0
 10
108.979
 20
107.033
 30
0.0
 11
109.211
 21
107.265
 31
0.0
  0
LINE
  8
0
 62
     0
 10
109.211
 20
107.265
 30
0.0
 11
109.361
 21
107.559
 31
0.0
  0
LINE
  8
0
 62
     0
 10
109.361
 20
107.559
 30
0.0
 11
109.412
 21
107.883
 31
0.0
  0
LINE
  8
0
 62
     0
 10
109.412
 20
107.883
 30
0.0
 11
109.361
 21
108.208
 31
0.0
  0
LINE
  8
0
 62
     0
 10
109.361
 20
108.208
 30
0.0
 11
109.211
 21
108.5
 31
0.0
  0
LINE
  8
0
 62
     0
 10
109.211
 20
108.5
 30
0.0
 11
108.979
 21
108.733
 31
0.0
  0
LINE
  8
0
 62
     0
 10
108.979
 20
108.733
 30
0.0
 11
108.686
 21
108.882
 31
0.0
  0
LINE
  8
0
 62
     0
 10
108.686
 20
108.882
 30
0.0
 11
108.362
 21
108.932
 31
0.0
  0
LINE
  8
0
 62
     0
 10
108.362
 20
108.932
 30
0.0
 11
108.037
 21
108.882
 31
0.0
  0
ENDSEC
  0
EOF
