<?xml version="1.0"?>
<!-- Generated by SVGo -->
<svg width="331.302mm" height="120.252mm"
     viewBox="0.000 0.000 331.302 120.252"
     xmlns="http://www.w3.org/2000/svg" 
     xmlns:xlink="http://www.w3.org/1999/xlink">
<polygon points="321.302,5.001 321.694,5.016 322.084,5.062 322.469,5.139 322.847,5.245 323.215,5.381 323.571,5.545 323.914,5.737 324.240,5.955 324.549,6.198 324.837,6.465 325.104,6.753 325.347,7.062 325.565,7.388 325.757,7.731 325.921,8.087 326.057,8.455 326.163,8.833 326.240,9.218 326.286,9.608 326.301,10.001 326.302,110.251 326.286,110.644 326.240,111.034 326.163,111.419 326.057,111.797 325.921,112.165 325.757,112.521 325.565,112.864 325.347,113.190 325.104,113.499 324.837,113.787 324.549,114.054 324.240,114.297 323.914,114.515 323.571,114.707 323.215,114.871 322.847,115.007 322.469,115.113 322.084,115.190 321.694,115.236 321.302,115.252 10.001,115.251 9.608,115.236 9.218,115.190 8.833,115.113 8.455,115.007 8.087,114.871 7.731,114.707 7.388,114.515 7.062,114.297 6.753,114.054 6.465,113.787 6.198,113.499 5.955,113.190 5.737,112.864 5.545,112.521 5.381,112.165 5.245,111.797 5.139,111.419 5.062,111.034 5.016,110.644 5.000,110.251 5.001,10.001 5.016,9.608 5.062,9.218 5.139,8.833 5.245,8.455 5.381,8.087 5.545,7.731 5.737,7.388 5.955,7.062 6.198,6.753 6.465,6.465 6.753,6.198 7.062,5.955 7.388,5.737 7.731,5.545 8.087,5.381 8.455,5.245 8.833,5.139 9.218,5.062 9.608,5.016 10.001,5.000" style="fill:none;stroke-width:0.050000mm;stroke:black"/>
<polygon points="8.176,110.753 7.883,110.902 7.651,111.134 7.502,111.427 7.450,111.752 7.502,112.076 7.651,112.369 7.883,112.601 8.176,112.750 8.500,112.802 8.825,112.750 9.118,112.601 9.350,112.369 9.499,112.076 9.550,111.752 9.499,111.427 9.350,111.134 9.118,110.902 8.825,110.753 8.500,110.702" style="fill:none;stroke-width:0.050000mm;stroke:black"/>
<polygon points="112.943,110.753 112.650,110.902 112.418,111.134 112.269,111.427 112.218,111.752 112.269,112.076 112.418,112.369 112.650,112.601 112.943,112.750 113.268,112.802 113.592,112.750 113.885,112.601 114.117,112.369 114.266,112.076 114.318,111.752 114.266,111.427 114.117,111.134 113.885,110.902 113.592,110.753 113.268,110.702" style="fill:none;stroke-width:0.050000mm;stroke:black"/>
<polygon points="217.710,110.753 217.417,110.902 217.185,111.134 217.036,111.427 216.985,111.752 217.036,112.076 217.185,112.369 217.417,112.601 217.710,112.750 218.035,112.802 218.359,112.750 218.652,112.601 218.884,112.369 219.033,112.076 219.085,111.752 219.033,111.427 218.884,111.134 218.652,110.902 218.359,110.753 218.035,110.702" style="fill:none;stroke-width:0.050000mm;stroke:black"/>
<polygon points="322.477,110.753 322.184,110.902 321.952,111.134 321.803,111.427 321.752,111.752 321.803,112.076 321.952,112.369 322.184,112.601 322.477,112.750 322.802,112.802 323.126,112.750 323.419,112.601 323.651,112.369 323.800,112.076 323.852,111.752 323.800,111.427 323.651,111.134 323.419,110.902 323.126,110.753 322.802,110.702" style="fill:none;stroke-width:0.050000mm;stroke:black"/>
<polygon points="137.219,91.726 137.219,92.726 136.419,92.726 136.419,95.825 137.219,95.825 137.219,96.426 97.594,96.426 97.594,93.196 95.869,93.196 95.869,92.275 92.569,92.275 92.569,93.196 90.844,93.196 90.844,96.426 90.019,96.426 90.019,99.226 90.844,99.226 90.844,105.495 92.569,105.495 92.569,106.476 95.869,106.476 95.869,105.495 97.594,105.495 97.594,101.025 137.219,101.025 137.219,101.626 136.419,101.626 136.419,104.726 137.219,104.726 137.219,105.726 151.219,105.726 151.219,104.726 152.019,104.726 152.019,101.626 151.219,101.626 151.219,101.025 190.844,101.025 190.844,105.495 192.569,105.495 192.569,106.476 195.869,106.476 195.869,105.495 197.594,105.495 197.594,99.226 198.419,99.226 198.419,96.426 197.594,96.426 197.594,93.196 195.869,93.196 195.869,92.275 192.569,92.275 192.569,93.196 190.844,93.196 190.844,96.426 151.219,96.426 151.219,95.825 152.019,95.825 152.019,92.726 151.219,92.726 151.219,91.726" style="fill:none;stroke-width:0.050000mm;stroke:black"/>
<polygon points="301.526,91.726 301.526,92.726 300.726,92.726 300.726,95.825 301.526,95.825 301.526,101.626 300.726,101.626 300.726,104.726 301.526,104.726 301.526,105.726 315.526,105.726 315.526,104.726 316.326,104.726 316.326,101.626 315.526,101.626 315.526,95.825 316.326,95.825 316.326,92.726 315.526,92.726 315.526,91.726" style="fill:none;stroke-width:0.050000mm;stroke:black"/>
<polygon points="282.476,91.726 282.476,92.726 281.676,92.726 281.676,95.825 282.476,95.825 282.476,101.626 281.676,101.626 281.676,104.726 282.476,104.726 282.476,105.726 296.476,105.726 296.476,104.726 297.276,104.726 297.276,101.626 296.476,101.626 296.476,95.825 297.276,95.825 297.276,92.726 296.476,92.726 296.476,91.726" style="fill:none;stroke-width:0.050000mm;stroke:black"/>
<polygon points="263.426,91.726 263.426,92.726 262.626,92.726 262.626,95.825 263.426,95.825 263.426,101.626 262.626,101.626 262.626,104.726 263.426,104.726 263.426,105.726 277.426,105.726 277.426,104.726 278.226,104.726 278.226,101.626 277.426,101.626 277.426,95.825 278.226,95.825 278.226,92.726 277.426,92.726 277.426,91.726" style="fill:none;stroke-width:0.050000mm;stroke:black"/>
<polygon points="232.469,91.726 232.469,92.726 231.669,92.726 231.669,95.825 232.469,95.825 232.469,101.626 231.669,101.626 231.669,104.726 232.469,104.726 232.469,105.726 246.469,105.726 246.469,104.726 247.269,104.726 247.269,101.626 246.469,101.626 246.469,95.825 247.269,95.825 247.269,92.726 246.469,92.726 246.469,91.726" style="fill:none;stroke-width:0.050000mm;stroke:black"/>
<polygon points="208.657,91.726 208.657,92.726 207.857,92.726 207.857,95.825 208.657,95.825 208.657,101.626 207.857,101.626 207.857,104.726 208.657,104.726 208.657,105.726 222.657,105.726 222.657,104.726 223.457,104.726 223.457,101.626 222.657,101.626 222.657,95.825 223.457,95.825 223.457,92.726 222.657,92.726 222.657,91.726" style="fill:none;stroke-width:0.050000mm;stroke:black"/>
<polygon points="65.782,91.726 65.782,92.726 64.981,92.726 64.981,95.825 65.782,95.825 65.782,101.626 64.981,101.626 64.981,104.726 65.782,104.726 65.782,105.726 79.782,105.726 79.782,104.726 80.582,104.726 80.582,101.626 79.782,101.626 79.782,95.825 80.582,95.825 80.582,92.726 79.782,92.726 79.782,91.726" style="fill:none;stroke-width:0.050000mm;stroke:black"/>
<polygon points="41.969,91.726 41.969,92.726 41.169,92.726 41.169,95.825 41.969,95.825 41.969,101.626 41.169,101.626 41.169,104.726 41.969,104.726 41.969,105.726 55.969,105.726 55.969,104.726 56.769,104.726 56.769,101.626 55.969,101.626 55.969,95.825 56.769,95.825 56.769,92.726 55.969,92.726 55.969,91.726" style="fill:none;stroke-width:0.050000mm;stroke:black"/>
<polygon points="18.157,91.726 18.157,92.726 17.357,92.726 17.357,95.825 18.157,95.825 18.157,101.626 17.357,101.626 17.357,104.726 18.157,104.726 18.157,105.726 32.157,105.726 32.157,104.726 32.957,104.726 32.957,101.626 32.157,101.626 32.157,95.825 32.957,95.825 32.957,92.726 32.157,92.726 32.157,91.726" style="fill:none;stroke-width:0.050000mm;stroke:black"/>
<polygon points="27.682,72.676 27.682,73.676 26.882,73.676 26.882,76.775 27.682,76.775 27.682,77.376 26.157,77.376 26.157,74.146 24.432,74.146 24.432,73.226 21.132,73.226 21.132,74.146 19.407,74.146 19.407,77.376 18.582,77.376 18.582,80.176 19.407,80.176 19.407,86.446 21.132,86.446 21.132,87.426 24.432,87.426 24.432,86.446 26.157,86.446 26.157,81.976 27.682,81.976 27.682,82.576 26.882,82.576 26.882,85.676 27.682,85.676 27.682,86.676 41.682,86.676 41.682,85.676 42.482,85.676 42.482,82.576 41.682,82.576 41.682,81.976 43.207,81.976 43.207,86.446 44.932,86.446 44.932,87.426 48.232,87.426 48.232,86.446 49.957,86.446 49.957,80.176 50.782,80.176 50.782,77.376 49.957,77.376 49.957,74.146 48.232,74.146 48.232,73.226 44.932,73.226 44.932,74.146 43.207,74.146 43.207,77.376 41.682,77.376 41.682,76.775 42.482,76.775 42.482,73.676 41.682,73.676 41.682,72.676" style="fill:none;stroke-width:0.050000mm;stroke:black"/>
<polygon points="301.526,72.676 301.526,73.676 300.726,73.676 300.726,76.775 301.526,76.775 301.526,82.576 300.726,82.576 300.726,85.676 301.526,85.676 301.526,86.676 315.526,86.676 315.526,85.676 316.326,85.676 316.326,82.576 315.526,82.576 315.526,76.775 316.326,76.775 316.326,73.676 315.526,73.676 315.526,72.676" style="fill:none;stroke-width:0.050000mm;stroke:black"/>
<polygon points="282.476,72.676 282.476,73.676 281.676,73.676 281.676,76.775 282.476,76.775 282.476,82.576 281.676,82.576 281.676,85.676 282.476,85.676 282.476,86.676 296.476,86.676 296.476,85.676 297.276,85.676 297.276,82.576 296.476,82.576 296.476,76.775 297.276,76.775 297.276,73.676 296.476,73.676 296.476,72.676" style="fill:none;stroke-width:0.050000mm;stroke:black"/>
<polygon points="256.282,72.676 256.282,73.676 255.482,73.676 255.482,76.775 256.282,76.775 256.282,82.576 255.482,82.576 255.482,85.676 256.282,85.676 256.282,86.676 270.282,86.676 270.282,85.676 271.082,85.676 271.082,82.576 270.282,82.576 270.282,76.775 271.082,76.775 271.082,73.676 270.282,73.676 270.282,72.676" style="fill:none;stroke-width:0.050000mm;stroke:black"/>
<polygon points="230.088,72.676 230.088,73.676 229.288,73.676 229.288,76.775 230.088,76.775 230.088,82.576 229.288,82.576 229.288,85.676 230.088,85.676 230.088,86.676 244.088,86.676 244.088,85.676 244.888,85.676 244.888,82.576 244.088,82.576 244.088,76.775 244.888,76.775 244.888,73.676 244.088,73.676 244.088,72.676" style="fill:none;stroke-width:0.050000mm;stroke:black"/>
<polygon points="211.038,72.676 211.038,73.676 210.238,73.676 210.238,76.775 211.038,76.775 211.038,82.576 210.238,82.576 210.238,85.676 211.038,85.676 211.038,86.676 225.038,86.676 225.038,85.676 225.838,85.676 225.838,82.576 225.038,82.576 225.038,76.775 225.838,76.775 225.838,73.676 225.038,73.676 225.038,72.676" style="fill:none;stroke-width:0.050000mm;stroke:black"/>
<polygon points="191.988,72.676 191.988,73.676 191.188,73.676 191.188,76.775 191.988,76.775 191.988,82.576 191.188,82.576 191.188,85.676 191.988,85.676 191.988,86.676 205.988,86.676 205.988,85.676 206.788,85.676 206.788,82.576 205.988,82.576 205.988,76.775 206.788,76.775 206.788,73.676 205.988,73.676 205.988,72.676" style="fill:none;stroke-width:0.050000mm;stroke:black"/>
<polygon points="172.938,72.676 172.938,73.676 172.138,73.676 172.138,76.775 172.938,76.775 172.938,82.576 172.138,82.576 172.138,85.676 172.938,85.676 172.938,86.676 186.938,86.676 186.938,85.676 187.738,85.676 187.738,82.576 186.938,82.576 186.938,76.775 187.738,76.775 187.738,73.676 186.938,73.676 186.938,72.676" style="fill:none;stroke-width:0.050000mm;stroke:black"/>
<polygon points="153.888,72.676 153.888,73.676 153.088,73.676 153.088,76.775 153.888,76.775 153.888,82.576 153.088,82.576 153.088,85.676 153.888,85.676 153.888,86.676 167.888,86.676 167.888,85.676 168.688,85.676 168.688,82.576 167.888,82.576 167.888,76.775 168.688,76.775 168.688,73.676 167.888,73.676 167.888,72.676" style="fill:none;stroke-width:0.050000mm;stroke:black"/>
<polygon points="134.838,72.676 134.838,73.676 134.038,73.676 134.038,76.775 134.838,76.775 134.838,82.576 134.038,82.576 134.038,85.676 134.838,85.676 134.838,86.676 148.838,86.676 148.838,85.676 149.638,85.676 149.638,82.576 148.838,82.576 148.838,76.775 149.638,76.775 149.638,73.676 148.838,73.676 148.838,72.676" style="fill:none;stroke-width:0.050000mm;stroke:black"/>
<polygon points="115.788,72.676 115.788,73.676 114.988,73.676 114.988,76.775 115.788,76.775 115.788,82.576 114.988,82.576 114.988,85.676 115.788,85.676 115.788,86.676 129.788,86.676 129.788,85.676 130.587,85.676 130.587,82.576 129.788,82.576 129.788,76.775 130.587,76.775 130.587,73.676 129.788,73.676 129.788,72.676" style="fill:none;stroke-width:0.050000mm;stroke:black"/>
<polygon points="96.738,72.676 96.738,73.676 95.938,73.676 95.938,76.775 96.738,76.775 96.738,82.576 95.938,82.576 95.938,85.676 96.738,85.676 96.738,86.676 110.738,86.676 110.738,85.676 111.538,85.676 111.538,82.576 110.738,82.576 110.738,76.775 111.538,76.775 111.538,73.676 110.738,73.676 110.738,72.676" style="fill:none;stroke-width:0.050000mm;stroke:black"/>
<polygon points="77.688,72.676 77.688,73.676 76.888,73.676 76.888,76.775 77.688,76.775 77.688,82.576 76.888,82.576 76.888,85.676 77.688,85.676 77.688,86.676 91.688,86.676 91.688,85.676 92.488,85.676 92.488,82.576 91.688,82.576 91.688,76.775 92.488,76.775 92.488,73.676 91.688,73.676 91.688,72.676" style="fill:none;stroke-width:0.050000mm;stroke:black"/>
<polygon points="58.638,72.676 58.638,73.676 57.838,73.676 57.838,76.775 58.638,76.775 58.638,82.576 57.838,82.576 57.838,85.676 58.638,85.676 58.638,86.676 72.638,86.676 72.638,85.676 73.438,85.676 73.438,82.576 72.638,82.576 72.638,76.775 73.438,76.775 73.438,73.676 72.638,73.676 72.638,72.676" style="fill:none;stroke-width:0.050000mm;stroke:black"/>
<polygon points="270.569,53.626 270.569,54.626 269.769,54.626 269.769,57.726 270.569,57.726 270.569,58.326 269.044,58.326 269.044,55.096 267.319,55.096 267.319,54.176 264.019,54.176 264.019,55.096 262.294,55.096 262.294,58.326 261.469,58.326 261.469,61.126 262.294,61.126 262.294,67.396 264.019,67.396 264.019,68.376 267.319,68.376 267.319,67.396 269.044,67.396 269.044,62.926 270.569,62.926 270.569,63.526 269.769,63.526 269.769,66.626 270.569,66.626 270.569,67.626 284.569,67.626 284.569,66.626 285.369,66.626 285.369,63.526 284.569,63.526 284.569,62.926 286.094,62.926 286.094,67.396 287.819,67.396 287.819,68.376 291.119,68.376 291.119,67.396 292.844,67.396 292.844,61.126 293.669,61.126 293.669,58.326 292.844,58.326 292.844,55.096 291.119,55.096 291.119,54.176 287.819,54.176 287.819,55.096 286.094,55.096 286.094,58.326 284.569,58.326 284.569,57.726 285.369,57.726 285.369,54.626 284.569,54.626 284.569,53.626" style="fill:none;stroke-width:0.050000mm;stroke:black"/>
<polygon points="301.526,53.626 301.526,54.626 300.726,54.626 300.726,57.726 301.526,57.726 301.526,63.526 300.726,63.526 300.726,66.626 301.526,66.626 301.526,67.626 315.526,67.626 315.526,66.626 316.326,66.626 316.326,63.526 315.526,63.526 315.526,57.726 316.326,57.726 316.326,54.626 315.526,54.626 315.526,53.626" style="fill:none;stroke-width:0.050000mm;stroke:black"/>
<polygon points="239.613,53.626 239.613,54.626 238.813,54.626 238.813,57.726 239.613,57.726 239.613,63.526 238.813,63.526 238.813,66.626 239.613,66.626 239.613,67.626 253.613,67.626 253.613,66.626 254.413,66.626 254.413,63.526 253.613,63.526 253.613,57.726 254.413,57.726 254.413,54.626 253.613,54.626 253.613,53.626" style="fill:none;stroke-width:0.050000mm;stroke:black"/>
<polygon points="220.563,53.626 220.563,54.626 219.763,54.626 219.763,57.726 220.563,57.726 220.563,63.526 219.763,63.526 219.763,66.626 220.563,66.626 220.563,67.626 234.563,67.626 234.563,66.626 235.363,66.626 235.363,63.526 234.563,63.526 234.563,57.726 235.363,57.726 235.363,54.626 234.563,54.626 234.563,53.626" style="fill:none;stroke-width:0.050000mm;stroke:black"/>
<polygon points="201.513,53.626 201.513,54.626 200.713,54.626 200.713,57.726 201.513,57.726 201.513,63.526 200.713,63.526 200.713,66.626 201.513,66.626 201.513,67.626 215.513,67.626 215.513,66.626 216.313,66.626 216.313,63.526 215.513,63.526 215.513,57.726 216.313,57.726 216.313,54.626 215.513,54.626 215.513,53.626" style="fill:none;stroke-width:0.050000mm;stroke:black"/>
<polygon points="182.463,53.626 182.463,54.626 181.663,54.626 181.663,57.726 182.463,57.726 182.463,63.526 181.663,63.526 181.663,66.626 182.463,66.626 182.463,67.626 196.463,67.626 196.463,66.626 197.263,66.626 197.263,63.526 196.463,63.526 196.463,57.726 197.263,57.726 197.263,54.626 196.463,54.626 196.463,53.626" style="fill:none;stroke-width:0.050000mm;stroke:black"/>
<polygon points="163.413,53.626 163.413,54.626 162.613,54.626 162.613,57.726 163.413,57.726 163.413,63.526 162.613,63.526 162.613,66.626 163.413,66.626 163.413,67.626 177.413,67.626 177.413,66.626 178.213,66.626 178.213,63.526 177.413,63.526 177.413,57.726 178.213,57.726 178.213,54.626 177.413,54.626 177.413,53.626" style="fill:none;stroke-width:0.050000mm;stroke:black"/>
<polygon points="144.363,53.626 144.363,54.626 143.563,54.626 143.563,57.726 144.363,57.726 144.363,63.526 143.563,63.526 143.563,66.626 144.363,66.626 144.363,67.626 158.363,67.626 158.363,66.626 159.163,66.626 159.163,63.526 158.363,63.526 158.363,57.726 159.163,57.726 159.163,54.626 158.363,54.626 158.363,53.626" style="fill:none;stroke-width:0.050000mm;stroke:black"/>
<polygon points="125.313,53.626 125.313,54.626 124.513,54.626 124.513,57.726 125.313,57.726 125.313,63.526 124.513,63.526 124.513,66.626 125.313,66.626 125.313,67.626 139.313,67.626 139.313,66.626 140.113,66.626 140.113,63.526 139.313,63.526 139.313,57.726 140.113,57.726 140.113,54.626 139.313,54.626 139.313,53.626" style="fill:none;stroke-width:0.050000mm;stroke:black"/>
<polygon points="106.263,53.626 106.263,54.626 105.463,54.626 105.463,57.726 106.263,57.726 106.263,63.526 105.463,63.526 105.463,66.626 106.263,66.626 106.263,67.626 120.263,67.626 120.263,66.626 121.063,66.626 121.063,63.526 120.263,63.526 120.263,57.726 121.063,57.726 121.063,54.626 120.263,54.626 120.263,53.626" style="fill:none;stroke-width:0.050000mm;stroke:black"/>
<polygon points="87.213,53.626 87.213,54.626 86.413,54.626 86.413,57.726 87.213,57.726 87.213,63.526 86.413,63.526 86.413,66.626 87.213,66.626 87.213,67.626 101.213,67.626 101.213,66.626 102.013,66.626 102.013,63.526 101.213,63.526 101.213,57.726 102.013,57.726 102.013,54.626 101.213,54.626 101.213,53.626" style="fill:none;stroke-width:0.050000mm;stroke:black"/>
<polygon points="68.163,53.626 68.163,54.626 67.363,54.626 67.363,57.726 68.163,57.726 68.163,63.526 67.363,63.526 67.363,66.626 68.163,66.626 68.163,67.626 82.163,67.626 82.163,66.626 82.963,66.626 82.963,63.526 82.163,63.526 82.163,57.726 82.963,57.726 82.963,54.626 82.163,54.626 82.163,53.626" style="fill:none;stroke-width:0.050000mm;stroke:black"/>
<polygon points="49.113,53.626 49.113,54.626 48.313,54.626 48.313,57.726 49.113,57.726 49.113,63.526 48.313,63.526 48.313,66.626 49.113,66.626 49.113,67.626 63.113,67.626 63.113,66.626 63.913,66.626 63.913,63.526 63.113,63.526 63.113,57.726 63.913,57.726 63.913,54.626 63.113,54.626 63.113,53.626" style="fill:none;stroke-width:0.050000mm;stroke:black"/>
<polygon points="22.919,53.626 22.919,54.626 22.119,54.626 22.119,57.726 22.919,57.726 22.919,63.526 22.119,63.526 22.119,66.626 22.919,66.626 22.919,67.626 36.919,67.626 36.919,66.626 37.719,66.626 37.719,63.526 36.919,63.526 36.919,57.726 37.719,57.726 37.719,54.626 36.919,54.626 36.919,53.626" style="fill:none;stroke-width:0.050000mm;stroke:black"/>
<polygon points="301.526,34.576 301.526,35.576 300.726,35.576 300.726,38.676 301.526,38.676 301.526,44.476 300.726,44.476 300.726,47.576 301.526,47.576 301.526,48.576 315.526,48.576 315.526,47.576 316.326,47.576 316.326,44.476 315.526,44.476 315.526,38.676 316.326,38.676 316.326,35.576 315.526,35.576 315.526,34.576" style="fill:none;stroke-width:0.050000mm;stroke:black"/>
<polygon points="277.713,34.576 277.713,35.576 276.913,35.576 276.913,38.676 277.713,38.676 277.713,44.476 276.913,44.476 276.913,47.576 277.713,47.576 277.713,48.576 291.713,48.576 291.713,47.576 292.513,47.576 292.513,44.476 291.713,44.476 291.713,38.676 292.513,38.676 292.513,35.576 291.713,35.576 291.713,34.576" style="fill:none;stroke-width:0.050000mm;stroke:black"/>
<polygon points="253.901,34.576 253.901,35.576 253.101,35.576 253.101,38.676 253.901,38.676 253.901,44.476 253.101,44.476 253.101,47.576 253.901,47.576 253.901,48.576 267.901,48.576 267.901,47.576 268.701,47.576 268.701,44.476 267.901,44.476 267.901,38.676 268.701,38.676 268.701,35.576 267.901,35.576 267.901,34.576" style="fill:none;stroke-width:0.050000mm;stroke:black"/>
<polygon points="234.851,34.576 234.851,35.576 234.051,35.576 234.051,38.676 234.851,38.676 234.851,44.476 234.051,44.476 234.051,47.576 234.851,47.576 234.851,48.576 248.851,48.576 248.851,47.576 249.651,47.576 249.651,44.476 248.851,44.476 248.851,38.676 249.651,38.676 249.651,35.576 248.851,35.576 248.851,34.576" style="fill:none;stroke-width:0.050000mm;stroke:black"/>
<polygon points="215.801,34.576 215.801,35.576 215.001,35.576 215.001,38.676 215.801,38.676 215.801,44.476 215.001,44.476 215.001,47.576 215.801,47.576 215.801,48.576 229.801,48.576 229.801,47.576 230.601,47.576 230.601,44.476 229.801,44.476 229.801,38.676 230.601,38.676 230.601,35.576 229.801,35.576 229.801,34.576" style="fill:none;stroke-width:0.050000mm;stroke:black"/>
<polygon points="196.751,34.576 196.751,35.576 195.951,35.576 195.951,38.676 196.751,38.676 196.751,44.476 195.951,44.476 195.951,47.576 196.751,47.576 196.751,48.576 210.751,48.576 210.751,47.576 211.551,47.576 211.551,44.476 210.751,44.476 210.751,38.676 211.551,38.676 211.551,35.576 210.751,35.576 210.751,34.576" style="fill:none;stroke-width:0.050000mm;stroke:black"/>
<polygon points="177.701,34.576 177.701,35.576 176.901,35.576 176.901,38.676 177.701,38.676 177.701,44.476 176.901,44.476 176.901,47.576 177.701,47.576 177.701,48.576 191.701,48.576 191.701,47.576 192.501,47.576 192.501,44.476 191.701,44.476 191.701,38.676 192.501,38.676 192.501,35.576 191.701,35.576 191.701,34.576" style="fill:none;stroke-width:0.050000mm;stroke:black"/>
<polygon points="158.651,34.576 158.651,35.576 157.851,35.576 157.851,38.676 158.651,38.676 158.651,44.476 157.851,44.476 157.851,47.576 158.651,47.576 158.651,48.576 172.651,48.576 172.651,47.576 173.451,47.576 173.451,44.476 172.651,44.476 172.651,38.676 173.451,38.676 173.451,35.576 172.651,35.576 172.651,34.576" style="fill:none;stroke-width:0.050000mm;stroke:black"/>
<polygon points="139.601,34.576 139.601,35.576 138.800,35.576 138.800,38.676 139.601,38.676 139.601,44.476 138.800,44.476 138.800,47.576 139.601,47.576 139.601,48.576 153.601,48.576 153.601,47.576 154.401,47.576 154.401,44.476 153.601,44.476 153.601,38.676 154.401,38.676 154.401,35.576 153.601,35.576 153.601,34.576" style="fill:none;stroke-width:0.050000mm;stroke:black"/>
<polygon points="120.551,34.576 120.551,35.576 119.751,35.576 119.751,38.676 120.551,38.676 120.551,44.476 119.751,44.476 119.751,47.576 120.551,47.576 120.551,48.576 134.551,48.576 134.551,47.576 135.351,47.576 135.351,44.476 134.551,44.476 134.551,38.676 135.351,38.676 135.351,35.576 134.551,35.576 134.551,34.576" style="fill:none;stroke-width:0.050000mm;stroke:black"/>
<polygon points="101.501,34.576 101.501,35.576 100.701,35.576 100.701,38.676 101.501,38.676 101.501,44.476 100.701,44.476 100.701,47.576 101.501,47.576 101.501,48.576 115.501,48.576 115.501,47.576 116.301,47.576 116.301,44.476 115.501,44.476 115.501,38.676 116.301,38.676 116.301,35.576 115.501,35.576 115.501,34.576" style="fill:none;stroke-width:0.050000mm;stroke:black"/>
<polygon points="82.451,34.576 82.451,35.576 81.651,35.576 81.651,38.676 82.451,38.676 82.451,44.476 81.651,44.476 81.651,47.576 82.451,47.576 82.451,48.576 96.451,48.576 96.451,47.576 97.251,47.576 97.251,44.476 96.451,44.476 96.451,38.676 97.251,38.676 97.251,35.576 96.451,35.576 96.451,34.576" style="fill:none;stroke-width:0.050000mm;stroke:black"/>
<polygon points="63.401,34.576 63.401,35.576 62.601,35.576 62.601,38.676 63.401,38.676 63.401,44.476 62.601,44.476 62.601,47.576 63.401,47.576 63.401,48.576 77.401,48.576 77.401,47.576 78.201,47.576 78.201,44.476 77.401,44.476 77.401,38.676 78.201,38.676 78.201,35.576 77.401,35.576 77.401,34.576" style="fill:none;stroke-width:0.050000mm;stroke:black"/>
<polygon points="44.351,34.576 44.351,35.576 43.551,35.576 43.551,38.676 44.351,38.676 44.351,44.476 43.551,44.476 43.551,47.576 44.351,47.576 44.351,48.576 58.351,48.576 58.351,47.576 59.151,47.576 59.151,44.476 58.351,44.476 58.351,38.676 59.151,38.676 59.151,35.576 58.351,35.576 58.351,34.576" style="fill:none;stroke-width:0.050000mm;stroke:black"/>
<polygon points="20.538,34.576 20.538,35.576 19.738,35.576 19.738,38.676 20.538,38.676 20.538,44.476 19.738,44.476 19.738,47.576 20.538,47.576 20.538,48.576 34.538,48.576 34.538,47.576 35.338,47.576 35.338,44.476 34.538,44.476 34.538,38.676 35.338,38.676 35.338,35.576 34.538,35.576 34.538,34.576" style="fill:none;stroke-width:0.050000mm;stroke:black"/>
<polygon points="272.951,15.525 272.951,16.526 272.151,16.526 272.151,19.626 272.951,19.626 272.951,20.225 271.426,20.225 271.426,16.995 269.701,16.995 269.701,16.076 266.401,16.076 266.401,16.995 264.676,16.995 264.676,20.225 263.851,20.225 263.851,23.026 264.676,23.026 264.676,29.295 266.401,29.295 266.401,30.276 269.701,30.276 269.701,29.295 271.426,29.295 271.426,24.826 272.951,24.826 272.951,25.425 272.151,25.425 272.151,28.526 272.951,28.526 272.951,29.526 286.951,29.526 286.951,28.526 287.751,28.526 287.751,25.425 286.951,25.425 286.951,24.826 288.476,24.826 288.476,29.295 290.201,29.295 290.201,30.276 293.501,30.276 293.501,29.295 295.226,29.295 295.226,23.026 296.051,23.026 296.051,20.225 295.226,20.225 295.226,16.995 293.501,16.995 293.501,16.076 290.201,16.076 290.201,16.995 288.476,16.995 288.476,20.225 286.951,20.225 286.951,19.626 287.751,19.626 287.751,16.526 286.951,16.526 286.951,15.525" style="fill:none;stroke-width:0.050000mm;stroke:black"/>
<polygon points="244.376,15.525 244.376,16.526 243.576,16.526 243.576,19.626 244.376,19.626 244.376,25.425 243.576,25.425 243.576,28.526 244.376,28.526 244.376,29.526 258.376,29.526 258.376,28.526 259.176,28.526 259.176,25.425 258.376,25.425 258.376,19.626 259.176,19.626 259.176,16.526 258.376,16.526 258.376,15.525" style="fill:none;stroke-width:0.050000mm;stroke:black"/>
<polygon points="225.326,15.525 225.326,16.526 224.526,16.526 224.526,19.626 225.326,19.626 225.326,25.425 224.526,25.425 224.526,28.526 225.326,28.526 225.326,29.526 239.326,29.526 239.326,28.526 240.126,28.526 240.126,25.425 239.326,25.425 239.326,19.626 240.126,19.626 240.126,16.526 239.326,16.526 239.326,15.525" style="fill:none;stroke-width:0.050000mm;stroke:black"/>
<polygon points="206.276,15.525 206.276,16.526 205.476,16.526 205.476,19.626 206.276,19.626 206.276,25.425 205.476,25.425 205.476,28.526 206.276,28.526 206.276,29.526 220.276,29.526 220.276,28.526 221.076,28.526 221.076,25.425 220.276,25.425 220.276,19.626 221.076,19.626 221.076,16.526 220.276,16.526 220.276,15.525" style="fill:none;stroke-width:0.050000mm;stroke:black"/>
<polygon points="187.226,15.525 187.226,16.526 186.426,16.526 186.426,19.626 187.226,19.626 187.226,25.425 186.426,25.425 186.426,28.526 187.226,28.526 187.226,29.526 201.226,29.526 201.226,28.526 202.026,28.526 202.026,25.425 201.226,25.425 201.226,19.626 202.026,19.626 202.026,16.526 201.226,16.526 201.226,15.525" style="fill:none;stroke-width:0.050000mm;stroke:black"/>
<polygon points="168.176,15.525 168.176,16.526 167.376,16.526 167.376,19.626 168.176,19.626 168.176,25.425 167.376,25.425 167.376,28.526 168.176,28.526 168.176,29.526 182.176,29.526 182.176,28.526 182.976,28.526 182.976,25.425 182.176,25.425 182.176,19.626 182.976,19.626 182.976,16.526 182.176,16.526 182.176,15.525" style="fill:none;stroke-width:0.050000mm;stroke:black"/>
<polygon points="149.126,15.525 149.126,16.526 148.326,16.526 148.326,19.626 149.126,19.626 149.126,25.425 148.326,25.425 148.326,28.526 149.126,28.526 149.126,29.526 163.126,29.526 163.126,28.526 163.926,28.526 163.926,25.425 163.126,25.425 163.126,19.626 163.926,19.626 163.926,16.526 163.126,16.526 163.126,15.525" style="fill:none;stroke-width:0.050000mm;stroke:black"/>
<polygon points="130.075,15.525 130.075,16.526 129.275,16.526 129.275,19.626 130.075,19.626 130.075,25.425 129.275,25.425 129.275,28.526 130.075,28.526 130.075,29.526 144.076,29.526 144.076,28.526 144.876,28.526 144.876,25.425 144.076,25.425 144.076,19.626 144.876,19.626 144.876,16.526 144.076,16.526 144.076,15.525" style="fill:none;stroke-width:0.050000mm;stroke:black"/>
<polygon points="111.025,15.525 111.025,16.526 110.226,16.526 110.226,19.626 111.025,19.626 111.025,25.425 110.226,25.425 110.226,28.526 111.025,28.526 111.025,29.526 125.025,29.526 125.025,28.526 125.825,28.526 125.825,25.425 125.025,25.425 125.025,19.626 125.825,19.626 125.825,16.526 125.025,16.526 125.025,15.525" style="fill:none;stroke-width:0.050000mm;stroke:black"/>
<polygon points="91.976,15.525 91.976,16.526 91.176,16.526 91.176,19.626 91.976,19.626 91.976,25.425 91.176,25.425 91.176,28.526 91.976,28.526 91.976,29.526 105.976,29.526 105.976,28.526 106.775,28.526 106.775,25.425 105.976,25.425 105.976,19.626 106.775,19.626 106.775,16.526 105.976,16.526 105.976,15.525" style="fill:none;stroke-width:0.050000mm;stroke:black"/>
<polygon points="72.926,15.525 72.926,16.526 72.126,16.526 72.126,19.626 72.926,19.626 72.926,25.425 72.126,25.425 72.126,28.526 72.926,28.526 72.926,29.526 86.926,29.526 86.926,28.526 87.726,28.526 87.726,25.425 86.926,25.425 86.926,19.626 87.726,19.626 87.726,16.526 86.926,16.526 86.926,15.525" style="fill:none;stroke-width:0.050000mm;stroke:black"/>
<polygon points="53.876,15.525 53.876,16.526 53.076,16.526 53.076,19.626 53.876,19.626 53.876,25.425 53.076,25.425 53.076,28.526 53.876,28.526 53.876,29.526 67.876,29.526 67.876,28.526 68.676,28.526 68.676,25.425 67.876,25.425 67.876,19.626 68.676,19.626 68.676,16.526 67.876,16.526 67.876,15.525" style="fill:none;stroke-width:0.050000mm;stroke:black"/>
<polygon points="34.826,15.525 34.826,16.526 34.026,16.526 34.026,19.626 34.826,19.626 34.826,25.425 34.026,25.425 34.026,28.526 34.826,28.526 34.826,29.526 48.826,29.526 48.826,28.526 49.626,28.526 49.626,25.425 48.826,25.425 48.826,19.626 49.626,19.626 49.626,16.526 48.826,16.526 48.826,15.525" style="fill:none;stroke-width:0.050000mm;stroke:black"/>
<polygon points="15.775,15.525 15.775,16.526 14.975,16.526 14.975,19.626 15.775,19.626 15.775,25.425 14.975,25.425 14.975,28.526 15.775,28.526 15.775,29.526 29.776,29.526 29.776,28.526 30.576,28.526 30.576,25.425 29.776,25.425 29.776,19.626 30.576,19.626 30.576,16.526 29.776,16.526 29.776,15.525" style="fill:none;stroke-width:0.050000mm;stroke:black"/>
<polygon points="8.176,7.502 7.883,7.651 7.651,7.883 7.502,8.176 7.450,8.501 7.502,8.825 7.651,9.118 7.883,9.350 8.176,9.499 8.500,9.551 8.825,9.499 9.118,9.350 9.350,9.118 9.499,8.825 9.550,8.501 9.499,8.176 9.350,7.883 9.118,7.651 8.825,7.502 8.500,7.451" style="fill:none;stroke-width:0.050000mm;stroke:black"/>
<polygon points="322.477,7.502 322.184,7.651 321.952,7.883 321.803,8.176 321.752,8.501 321.803,8.825 321.952,9.118 322.184,9.350 322.477,9.499 322.802,9.551 323.126,9.499 323.419,9.350 323.651,9.118 323.800,8.825 323.852,8.501 323.800,8.176 323.651,7.883 323.419,7.651 323.126,7.502 322.802,7.451" style="fill:none;stroke-width:0.050000mm;stroke:black"/>
<polygon points="217.710,7.502 217.417,7.651 217.185,7.883 217.036,8.176 216.985,8.501 217.036,8.825 217.185,9.118 217.417,9.350 217.710,9.499 218.035,9.551 218.359,9.499 218.652,9.350 218.884,9.118 219.033,8.825 219.085,8.501 219.033,8.176 218.884,7.883 218.652,7.651 218.359,7.502 218.035,7.451" style="fill:none;stroke-width:0.050000mm;stroke:black"/>
<polygon points="112.943,7.502 112.650,7.651 112.418,7.883 112.269,8.176 112.218,8.501 112.269,8.825 112.418,9.118 112.650,9.350 112.943,9.499 113.268,9.551 113.592,9.499 113.885,9.350 114.117,9.118 114.266,8.825 114.318,8.501 114.266,8.176 114.117,7.883 113.885,7.651 113.592,7.502 113.268,7.451" style="fill:none;stroke-width:0.050000mm;stroke:black"/>
</svg>
